<svg width="632" height="586" viewBox="0 0 632 586" fill="none" xmlns="http://www.w3.org/2000/svg">
<path d="M316 585.294C490.522 585.294 632 502.595 632 400.582C632 298.568 490.522 215.87 316 215.87C141.478 215.87 0 298.568 0 400.582C0 502.595 141.478 585.294 316 585.294Z" fill="#F5F5F5"/>
<path d="M371.956 318.29L366.231 315.067C364.055 313.984 361.648 313.419 359.206 313.419C356.764 313.419 354.357 313.984 352.181 315.067L49.921 485.505C46.055 487.688 46.055 491.254 49.921 493.398L55.6324 496.621C57.8098 497.699 60.2163 498.26 62.6571 498.26C65.098 498.26 67.5045 497.699 69.6819 496.621L161.509 444.918L202.364 467.954C212.898 473.888 230.127 473.888 240.661 467.954L303.971 432.235C312.969 427.157 312.969 418.856 303.971 413.817L260.368 389.136L371.956 326.21C375.822 324.027 375.822 320.461 371.956 318.29Z" fill="#E0E0E0"/>
<path d="M481.954 527.578C513.502 545.365 564.635 545.365 596.169 527.578C627.703 509.791 627.717 480.966 596.169 463.179C564.622 445.392 513.502 445.392 481.954 463.179C450.407 480.966 450.42 509.791 481.954 527.578Z" fill="#E0E0E0"/>
<path d="M172.972 61.3648L178.051 58.3652C178.007 58.0204 177.984 57.6733 177.983 57.3258V54.8788C178.117 52.5067 178.821 50.1986 180.038 48.1415C181.255 46.0845 182.95 44.3362 184.988 43.0383C185.595 42.6424 186.277 42.3686 186.994 42.2331C187.711 42.0976 188.449 42.103 189.164 42.249C189.797 36.0524 194.202 29.0928 199.563 26.0143C205.341 22.7516 210.043 25.396 210.043 31.9214V35.592C210.019 37.3798 209.72 39.154 209.154 40.8544L216.32 36.776C218.475 35.5656 220.213 36.5392 220.213 38.9599C220.14 40.2784 219.75 41.5615 219.073 42.7046C218.397 43.8477 217.453 44.8186 216.32 45.538L172.945 70.1267C170.804 71.3371 169.066 70.3635 169.066 67.9428C169.142 66.6237 169.535 65.3406 170.214 64.1977C170.893 63.0548 171.838 62.0843 172.972 61.3648Z" fill="#EBEBEB"/>
<path d="M129.49 51.3664L124.102 53.3661V41.9203C124.102 32.8426 116.693 30.6718 108.638 35.1975C100.664 39.7101 94.144 50.7744 94.144 59.8521V61.5097C93.015 61.1717 91.8222 61.0884 90.6555 61.2661C89.4888 61.4439 88.3787 61.8781 87.4088 62.5359C84.356 64.4777 81.8157 67.0959 79.9947 70.1776C78.1736 73.2592 77.1232 76.7173 76.9289 80.2703V81.0202L69.4933 85.2039C67.482 86.4833 65.808 88.208 64.6073 90.2379C63.4066 92.2678 62.7131 94.5456 62.583 96.8865C62.583 101.189 65.6812 102.925 69.4933 100.833L129.49 66.9432C131.498 65.6616 133.169 63.9361 134.367 61.9064C135.565 59.8767 136.257 57.6 136.387 55.2606C136.387 50.9585 133.302 49.2088 129.49 51.3664Z" fill="#EBEBEB"/>
<path d="M241.388 458.732L293.801 429.131C299.189 426.079 301.883 422.093 301.883 418.106C301.883 414.12 301.883 410.976 301.883 410.976L252.569 383.65C251.051 382.682 249.788 381.378 248.883 379.845C247.977 378.311 247.454 376.59 247.356 374.823V311.673L155.865 363.351V426.5C155.965 428.267 156.49 429.986 157.398 431.518C158.307 433.05 159.572 434.35 161.092 435.314L202.284 458.732C213.074 464.824 230.585 464.824 241.388 458.732Z" fill="#263238"/>
<path opacity="0.15" d="M177.835 437.669V444.76L161.091 435.314C159.573 434.346 158.31 433.043 157.404 431.509C156.498 429.975 155.976 428.254 155.878 426.486V363.35L173.322 353.522C173.673 357.851 174.077 362.324 174.427 366.679L162.209 373.586V422.895C162.302 424.66 162.821 426.38 163.725 427.912C164.629 429.444 165.891 430.745 167.409 431.709L177.835 437.669Z" fill="black"/>
<path d="M162.169 422.934C162.268 424.703 162.793 426.425 163.701 427.959C164.609 429.493 165.875 430.796 167.396 431.762L202.257 451.614C213.033 457.719 230.545 457.719 241.388 451.614L293.815 422.026C304.591 415.935 304.591 406.055 293.815 399.963L258.913 380.085C257.394 379.121 256.13 377.82 255.225 376.288C254.319 374.756 253.796 373.037 253.7 371.27V321.974L162.102 373.625L162.169 422.934Z" fill="#455A64"/>
<path opacity="0.3" d="M269.554 386.097L258.926 380.098C257.408 379.134 256.144 377.833 255.238 376.301C254.332 374.769 253.809 373.05 253.713 371.283V321.974L162.115 373.625V422.934C162.214 424.703 162.739 426.425 163.647 427.959C164.555 429.493 165.821 430.796 167.342 431.762L177.781 437.656L269.554 386.097Z" fill="black"/>
<path d="M53.1404 461.85C55.1166 462.784 57.2902 463.251 59.4853 463.212C61.6805 463.173 63.8354 462.63 65.7756 461.626L366.931 291.807C368.827 290.599 370.405 288.971 371.535 287.056C372.666 285.14 373.318 282.991 373.437 280.783V12.8191C373.361 10.6755 372.767 8.57988 371.705 6.70289C370.642 4.8259 369.14 3.22066 367.322 2.01793C365.346 1.08375 363.172 0.617196 360.977 0.656051C358.782 0.694907 356.627 1.23808 354.687 2.24158L53.5445 172.047C51.6435 173.261 50.0624 174.895 48.9296 176.818C47.7968 178.74 47.1442 180.897 47.0249 183.112V451.049C47.1034 453.192 47.698 455.287 48.7605 457.164C49.8231 459.04 51.3236 460.646 53.1404 461.85Z" fill="#455A64"/>
<path d="M65.7755 461.613L366.931 291.807C368.829 290.596 370.408 288.966 371.54 287.048C372.673 285.131 373.327 282.98 373.451 280.769V12.8058C373.451 8.74061 370.528 7.09609 366.931 9.13529L65.7755 178.941C63.8791 180.15 62.3007 181.778 61.168 183.693C60.0354 185.609 59.3803 187.757 59.2559 189.966V457.943C59.2559 462.021 62.1789 463.639 65.7755 461.613Z" fill="#37474F"/>
<path d="M67.877 416.119V192.808C67.9528 191.446 68.3587 190.122 69.0613 188.944C69.7639 187.766 70.7431 186.768 71.9181 186.032L360.802 23.1072C363.025 21.7916 364.843 22.8704 364.843 25.3701V248.682C364.766 250.045 364.36 251.37 363.658 252.55C362.955 253.73 361.977 254.731 360.802 255.47L71.8776 418.382C69.6685 419.632 67.877 418.606 67.877 416.119Z" fill="#034C95"/>
<path opacity="0.7" d="M67.877 416.119V192.808C67.9528 191.446 68.3587 190.122 69.0613 188.944C69.7639 187.766 70.7431 186.768 71.9181 186.032L360.802 23.1072C363.025 21.7916 364.843 22.8704 364.843 25.3701V248.682C364.766 250.045 364.36 251.37 363.658 252.55C362.955 253.73 361.977 254.731 360.802 255.47L71.8776 418.382C69.6685 419.632 67.877 418.606 67.877 416.119Z" fill="white"/>
<path d="M48.9512 176.784L61.1688 183.664C60.0127 185.581 59.3516 187.744 59.2426 189.966V457.943C59.2426 461.64 61.8154 463.718 65.7622 461.627C63.825 462.639 61.6691 463.188 59.4722 463.227C57.2754 463.265 55.1005 462.794 53.127 461.85C51.33 460.808 49.828 459.344 48.7576 457.591C47.6872 455.838 47.0824 453.852 46.998 451.812V183.112C47.0836 180.874 47.7561 178.695 48.9512 176.784Z" fill="#263238"/>
<path d="M210.635 363.008L225.385 354.733C226.732 353.996 227.783 354.522 227.783 355.917C227.721 356.702 227.473 357.462 227.056 358.136C226.64 358.81 226.067 359.379 225.385 359.798L210.635 368.06C209.288 368.81 208.251 368.284 208.251 366.876C208.308 366.093 208.553 365.335 208.968 364.662C209.382 363.99 209.954 363.423 210.635 363.008Z" fill="#034C95"/>
<path d="M488.501 19.2262C488.484 18.9807 488.439 18.7379 488.366 18.5026C488.379 18.4782 488.386 18.4511 488.386 18.4236C488.386 18.3962 488.379 18.3691 488.366 18.3447C488.334 18.1054 488.27 17.8711 488.177 17.6474C488.073 17.2926 487.914 16.9554 487.706 16.6476C487.643 16.4965 487.551 16.3582 487.436 16.2397C487.376 16.1325 487.298 16.0349 487.208 15.9503C487.053 15.7601 486.877 15.588 486.682 15.4372C486.467 15.2877 486.237 15.1598 485.995 15.0557C485.109 14.7311 484.155 14.6226 483.216 14.7395C482.277 14.8564 481.382 15.1953 480.607 15.7266L206.405 170.245C201.974 172.732 198.323 178.836 198.323 187.572V434.288C198.322 435.235 198.576 436.166 199.061 436.987C199.546 437.807 200.244 438.488 201.084 438.96C201.925 439.433 202.878 439.68 203.848 439.678C204.818 439.675 205.77 439.422 206.607 438.945L480.513 284.414C482.86 282.927 484.815 280.92 486.22 278.556C487.624 276.192 488.438 273.539 488.595 270.81V20.1997C488.541 19.8708 488.528 19.5288 488.501 19.2262Z" fill="#FAFAFA"/>
<path d="M484.069 15.8845C484.534 15.8715 484.996 15.9662 485.416 16.1607C485.546 16.2105 485.668 16.2769 485.78 16.3581H485.86C485.96 16.4356 486.05 16.5239 486.13 16.6212L486.238 16.7659L486.332 16.8975L486.399 16.9764V17.0817L486.494 17.2264C486.627 17.4242 486.727 17.6419 486.79 17.871C486.817 17.9398 486.839 18.0101 486.857 18.0815V18.1868L487.019 18.6867C487.06 18.8241 487.087 18.9651 487.1 19.1077C487.1 19.384 487.1 19.6866 487.1 19.976V270.771C486.943 273.271 486.193 275.702 484.909 277.871C483.626 280.04 481.844 281.888 479.705 283.269L205.853 437.853C205.215 438.229 204.483 438.424 203.738 438.419C202.618 438.416 201.544 437.979 200.751 437.205C199.959 436.431 199.512 435.383 199.509 434.288V187.572C199.509 178.678 203.334 173.35 206.904 171.337L481.146 16.7659C482.026 16.2307 483.033 15.927 484.069 15.8845ZM484.069 14.5688C482.808 14.6128 481.582 14.9803 480.513 15.6345L206.405 170.245C201.974 172.732 198.323 178.836 198.323 187.572V434.288C198.323 434.996 198.466 435.698 198.744 436.352C199.021 437.007 199.428 437.601 199.941 438.102C200.454 438.603 201.063 439 201.733 439.272C202.403 439.543 203.121 439.682 203.846 439.682C204.795 439.672 205.724 439.418 206.54 438.945L480.513 284.414C482.86 282.927 484.815 280.92 486.22 278.556C487.624 276.192 488.438 273.539 488.595 270.81V20.1997C488.595 19.8708 488.595 19.5287 488.595 19.2261C488.579 18.9807 488.534 18.7379 488.46 18.5025C488.473 18.4781 488.48 18.4511 488.48 18.4236C488.48 18.3961 488.473 18.369 488.46 18.3446C488.428 18.1054 488.364 17.8711 488.272 17.6474C488.168 17.2926 488.009 16.9554 487.8 16.6475C487.737 16.4964 487.646 16.3581 487.531 16.2397C487.47 16.1324 487.393 16.0348 487.302 15.9502C487.147 15.7601 486.971 15.5879 486.776 15.4372C486.561 15.2876 486.331 15.1598 486.089 15.0556C485.513 14.7877 484.882 14.6526 484.244 14.6609L484.069 14.5688Z" fill="#E0E0E0"/>
<path d="M277.583 165.325L460.456 62.1938V70.4822L277.583 173.6C275.858 174.573 274.458 173.771 274.458 171.837V170.613C274.512 169.553 274.824 168.52 275.367 167.601C275.91 166.681 276.67 165.901 277.583 165.325Z" fill="#E0E0E0"/>
<path d="M475.138 53.9188L464.065 60.1548V68.4431L475.138 62.1939C476.044 61.6169 476.799 60.8402 477.342 59.9261C477.885 59.0121 478.2 57.9864 478.263 56.9315V55.708C478.263 53.7346 476.862 52.9452 475.138 53.9188Z" fill="#E0E0E0"/>
<path d="M469.75 63.1279C469.531 63.1307 469.316 63.0713 469.131 62.9569C468.859 62.7663 468.644 62.509 468.506 62.2109C468.369 61.9129 468.315 61.5848 468.349 61.2598C468.36 60.5473 468.543 59.8473 468.882 59.2165C469.221 58.5856 469.708 58.0417 470.303 57.6287C470.523 57.4838 470.779 57.3989 471.044 57.3827C471.309 57.3665 471.574 57.4197 471.811 57.5366C472.081 57.729 472.295 57.9867 472.432 58.2842C472.569 58.5818 472.624 58.909 472.593 59.2337C472.585 59.9468 472.404 60.648 472.064 61.2793C471.725 61.9106 471.236 62.4541 470.639 62.8648C470.371 63.0262 470.065 63.1169 469.75 63.1279ZM471.178 58.0234C470.988 58.0335 470.804 58.0876 470.639 58.1812C470.143 58.5381 469.737 59.001 469.452 59.5345C469.168 60.0681 469.011 60.6582 468.996 61.2598C468.971 61.4725 469 61.688 469.08 61.8875C469.16 62.087 469.288 62.2644 469.454 62.4044C469.591 62.465 469.742 62.4884 469.891 62.4722C470.041 62.456 470.183 62.4008 470.303 62.3123C470.799 61.9554 471.205 61.4925 471.489 60.959C471.774 60.4254 471.93 59.8353 471.946 59.2337C471.971 59.0209 471.942 58.8055 471.862 58.606C471.782 58.4065 471.654 58.2291 471.488 58.0892C471.392 58.0414 471.286 58.0187 471.178 58.0234Z" fill="#FAFAFA"/>
<path d="M473.185 62.5757C473.119 62.5924 473.049 62.5924 472.983 62.5757L471.542 61.51C471.484 61.4492 471.452 61.3693 471.452 61.2864C471.452 61.2034 471.484 61.1235 471.542 61.0627C471.566 61.029 471.596 61.0004 471.632 60.9787C471.668 60.957 471.708 60.9427 471.749 60.9365C471.791 60.9304 471.833 60.9325 471.874 60.9429C471.915 60.9533 471.953 60.9717 471.986 60.9969L473.441 62.0626C473.499 62.1234 473.531 62.2033 473.531 62.2862C473.531 62.3692 473.499 62.4491 473.441 62.5099C473.406 62.5395 473.365 62.5608 473.321 62.5722C473.276 62.5836 473.23 62.5848 473.185 62.5757Z" fill="#FAFAFA"/>
<path d="M206.405 170.245C201.974 172.732 198.323 178.836 198.323 187.572V434.288C198.322 435.236 198.576 436.166 199.061 436.987C199.546 437.807 200.244 438.488 201.084 438.961C201.925 439.433 202.878 439.68 203.848 439.678C204.818 439.675 205.77 439.423 206.607 438.946L267.507 404.608V159.72L267.601 135.75L206.405 170.245Z" fill="#F0F0F0"/>
<path d="M266.268 137.947L266.16 159.72V403.885L205.974 437.854C205.336 438.229 204.604 438.425 203.86 438.419C202.739 438.416 201.665 437.979 200.873 437.206C200.08 436.432 199.633 435.383 199.63 434.288V187.572C199.63 178.678 203.455 173.35 207.025 171.337L266.294 137.947H266.268ZM267.641 135.75L206.473 170.245C202.041 172.732 198.391 178.836 198.391 187.572V434.288C198.391 434.997 198.533 435.698 198.811 436.353C199.089 437.007 199.495 437.602 200.008 438.102C200.521 438.603 201.13 439.001 201.8 439.272C202.47 439.543 203.188 439.682 203.913 439.682C204.862 439.673 205.792 439.419 206.608 438.946L267.507 404.608V159.72L267.601 135.75H267.641Z" fill="#E0E0E0"/>
<path d="M222.556 199.439L254.696 181.323C255.828 180.691 256.744 181.204 256.744 182.48V185.112C256.706 185.805 256.501 186.48 256.145 187.081C255.789 187.683 255.293 188.193 254.696 188.572L222.556 206.661C221.425 207.293 220.509 206.78 220.509 205.504V202.872C220.551 202.183 220.758 201.514 221.114 200.917C221.469 200.321 221.964 199.814 222.556 199.439Z" fill="#E0E0E0"/>
<path d="M214.111 206.516V209.148C214.071 209.841 213.866 210.515 213.51 211.116C213.154 211.718 212.659 212.228 212.063 212.608L211.241 213.094C210.11 213.739 209.194 213.213 209.194 211.937V209.305C209.233 208.61 209.439 207.934 209.794 207.331C210.15 206.727 210.646 206.214 211.241 205.832L212.063 205.345C213.195 204.714 214.111 205.24 214.111 206.516Z" fill="#034C95"/>
<path d="M222.556 213.831L254.696 195.715C255.828 195.084 256.744 195.597 256.744 196.873V199.504C256.706 200.198 256.501 200.873 256.145 201.474C255.789 202.075 255.293 202.586 254.696 202.964L222.556 221.08C221.425 221.712 220.509 221.199 220.509 219.922V217.291C220.547 216.598 220.752 215.923 221.108 215.322C221.464 214.72 221.96 214.21 222.556 213.831Z" fill="#E0E0E0"/>
<path d="M214.111 220.909V223.54C214.072 224.234 213.867 224.909 213.511 225.51C213.156 226.111 212.659 226.622 212.063 227L211.241 227.487C210.11 228.132 209.194 227.619 209.194 226.342V223.711C209.233 223.016 209.439 222.34 209.794 221.737C210.15 221.133 210.646 220.62 211.241 220.238L212.063 219.751C213.195 219.107 214.111 219.633 214.111 220.909Z" fill="#034C95"/>
<path d="M222.556 228.224L254.696 210.108C255.828 209.477 256.744 209.99 256.744 211.266V213.897C256.706 214.591 256.501 215.266 256.145 215.867C255.789 216.468 255.293 216.979 254.696 217.357L222.556 235.473C221.425 236.105 220.509 235.592 220.509 234.316V231.684C220.547 230.991 220.752 230.316 221.108 229.715C221.464 229.113 221.96 228.603 222.556 228.224Z" fill="#E0E0E0"/>
<path d="M214.111 235.302V237.933C214.072 238.627 213.867 239.302 213.511 239.903C213.156 240.504 212.659 241.015 212.063 241.393L211.241 241.88C210.11 242.525 209.194 242.012 209.194 240.736V238.104C209.233 237.409 209.439 236.733 209.794 236.13C210.15 235.527 210.646 235.013 211.241 234.631L212.063 234.144C213.195 233.513 214.111 234.026 214.111 235.302Z" fill="#034C95"/>
<path d="M222.556 275.954L254.696 257.838C255.828 257.207 256.744 257.72 256.744 258.996V261.627C256.706 262.321 256.501 262.996 256.145 263.597C255.789 264.198 255.293 264.709 254.696 265.087L222.556 283.203C221.425 283.835 220.509 283.322 220.509 282.046V279.414C220.547 278.721 220.752 278.046 221.108 277.445C221.464 276.843 221.96 276.333 222.556 275.954Z" fill="#E0E0E0"/>
<path d="M214.111 283.098V285.729C214.072 286.423 213.867 287.098 213.511 287.699C213.156 288.3 212.659 288.811 212.063 289.189L211.241 289.676C210.11 290.321 209.194 289.808 209.194 288.532V285.9C209.233 285.205 209.439 284.529 209.794 283.926C210.15 283.322 210.646 282.809 211.241 282.427L212.063 281.94C213.195 281.243 214.111 281.782 214.111 283.098Z" fill="#034C95"/>
<path d="M222.556 288.703L254.696 270.587C255.828 269.955 256.744 270.468 256.744 271.745V274.376C256.706 275.069 256.501 275.744 256.145 276.345C255.789 276.947 255.293 277.457 254.696 277.836L222.556 295.952C221.425 296.583 220.509 296.07 220.509 294.794V292.163C220.547 291.469 220.752 290.794 221.108 290.193C221.464 289.592 221.96 289.081 222.556 288.703Z" fill="#E0E0E0"/>
<path d="M214.111 295.781V298.412C214.072 299.105 213.867 299.78 213.511 300.382C213.156 300.983 212.659 301.494 212.063 301.872L211.241 302.359C210.11 303.003 209.194 302.49 209.194 301.214V298.583C209.233 297.888 209.439 297.212 209.794 296.608C210.15 296.005 210.646 295.492 211.241 295.11L212.063 294.623C213.195 293.991 214.111 294.505 214.111 295.781Z" fill="#034C95"/>
<path d="M222.556 301.517L254.696 283.401C255.828 282.769 256.744 283.282 256.744 284.559V287.19C256.706 287.883 256.501 288.558 256.145 289.159C255.789 289.761 255.293 290.271 254.696 290.65L222.556 308.766C221.425 309.397 220.509 308.884 220.509 307.608V304.977C220.547 304.283 220.752 303.608 221.108 303.007C221.464 302.406 221.96 301.895 222.556 301.517Z" fill="#E0E0E0"/>
<path d="M214.111 308.529V311.16C214.072 311.854 213.867 312.529 213.511 313.13C213.156 313.731 212.659 314.242 212.063 314.62L211.241 315.107C210.11 315.752 209.194 315.239 209.194 313.962V311.331C209.233 310.636 209.439 309.96 209.794 309.357C210.15 308.753 210.646 308.24 211.241 307.858L212.063 307.371C213.195 306.779 214.111 307.253 214.111 308.529Z" fill="#034C95"/>
<path d="M222.004 243.117V247.616L225.991 243.117H222.004Z" fill="#034C95"/>
<path d="M228.443 242.196C228.443 243.025 229.049 243.367 229.79 242.933L255.383 228.54C255.777 228.286 256.105 227.946 256.339 227.546C256.573 227.146 256.707 226.698 256.731 226.238C256.731 225.396 256.124 225.054 255.383 225.475L229.79 239.946C229.402 240.193 229.078 240.525 228.844 240.915C228.61 241.306 228.473 241.745 228.443 242.196Z" fill="#E0E0E0"/>
<path d="M222.004 250.339V254.839L225.991 250.339H222.004Z" fill="#034C95"/>
<path d="M228.443 249.419C228.443 250.247 229.049 250.576 229.79 250.155L255.383 235.736C255.777 235.483 256.105 235.142 256.339 234.742C256.573 234.342 256.707 233.894 256.731 233.434C256.731 232.592 256.124 232.25 255.383 232.671L229.79 247.143C229.398 247.392 229.072 247.728 228.838 248.123C228.604 248.519 228.469 248.963 228.443 249.419Z" fill="#E0E0E0"/>
<path d="M222.004 257.562V262.048L225.991 257.562H222.004Z" fill="#034C95"/>
<path d="M228.443 256.641C228.443 257.47 229.049 257.799 229.79 257.378L255.383 242.985C255.776 242.73 256.102 242.389 256.336 241.99C256.57 241.59 256.705 241.143 256.731 240.683C256.731 239.841 256.124 239.499 255.383 239.92L229.79 254.392C229.402 254.638 229.078 254.97 228.844 255.361C228.61 255.751 228.473 256.19 228.443 256.641Z" fill="#E0E0E0"/>
<path d="M222.004 264.785V269.271L225.991 264.785H222.004Z" fill="#034C95"/>
<path d="M228.443 263.864C228.443 264.693 229.049 265.022 229.79 264.601L255.383 250.208C255.776 249.953 256.102 249.612 256.336 249.212C256.57 248.813 256.705 248.365 256.731 247.906C256.731 247.064 256.124 246.722 255.383 247.143L229.79 261.614C229.4 261.86 229.075 262.191 228.841 262.582C228.607 262.973 228.471 263.412 228.443 263.864Z" fill="#E0E0E0"/>
<path d="M485.914 15.003C485.028 14.6784 484.074 14.5699 483.135 14.6868C482.196 14.8037 481.301 15.1426 480.526 15.674L206.405 170.245C204.058 171.729 202.103 173.734 200.699 176.095C199.294 178.457 198.48 181.109 198.323 183.835V199.057L188.072 193.176V178.139C188.226 175.419 189.034 172.774 190.432 170.417C191.829 168.06 193.776 166.059 196.114 164.575L470.248 10.0037C472.538 8.68808 474.599 8.68808 476.081 9.54323C477.563 10.3984 484.204 14.1216 485.914 15.003Z" fill="#034C95"/>
<path d="M488.528 20.147C488.528 15.2003 484.918 13.1874 480.445 15.687L206.405 170.245C204.057 171.728 202.1 173.732 200.696 176.094C199.291 178.455 198.478 181.108 198.323 183.835V199.07L488.528 35.4738V20.147Z" fill="#E82E5D"/>
<g opacity="0.2">
<path d="M480.499 15.6738L206.405 170.245C204.051 171.69 202.106 173.69 200.748 176.06L190.551 170.297C191.874 167.953 193.789 165.979 196.114 164.561L470.248 10.0035C471.083 9.41136 472.069 9.05412 473.097 8.97062C474.125 8.88711 475.157 9.08055 476.081 9.5299C477.522 10.3982 484.163 14.0951 485.887 14.9897C485 14.6658 484.045 14.5589 483.106 14.6781C482.167 14.7974 481.272 15.1392 480.499 15.6738Z" fill="#FF3366"/>
</g>
<path opacity="0.15" d="M188.1 193.216V178.139C188.202 175.344 189.047 172.624 190.551 170.245L200.775 175.994C199.293 178.341 198.467 181.027 198.377 183.783V199.018L188.1 193.216Z" fill="black"/>
<path d="M456.872 36.2633C455.188 37.2106 453.814 40.0391 453.814 42.5783C453.814 45.1174 455.161 46.3935 456.872 45.4463C458.583 44.4991 459.917 41.6705 459.917 39.1314C459.917 36.5922 458.556 35.3161 456.872 36.2633Z" fill="#37474F"/>
<path d="M467.864 30.0539C466.167 31.0011 464.807 33.8297 464.807 36.3688C464.807 38.9079 466.154 40.1841 467.864 39.2368C469.575 38.2896 470.909 35.461 470.909 32.9219C470.909 30.3828 469.562 29.1066 467.864 30.0539Z" fill="#37474F"/>
<path d="M478.843 23.8439C477.159 24.8043 475.798 27.6197 475.798 30.1588C475.798 32.698 477.145 33.9741 478.843 33.0269C480.54 32.0796 481.9 29.2511 481.9 26.7119C481.9 24.1728 480.54 22.8967 478.843 23.8439Z" fill="#37474F"/>
<path d="M200.829 438.801L192.37 434.025C191.241 433.389 190.276 432.509 189.548 431.454C188.819 430.398 188.347 429.194 188.167 427.934C188.147 427.557 188.147 427.179 188.167 426.802V193.189L198.431 199.057V434.288C198.433 434.57 198.455 434.851 198.499 435.13C198.52 435.282 198.556 435.432 198.607 435.577C198.593 435.643 198.593 435.71 198.607 435.775C198.651 435.942 198.709 436.104 198.782 436.262C198.78 436.283 198.78 436.305 198.782 436.327L199.065 436.906C199.172 437.09 199.307 437.275 199.428 437.446C199.524 437.578 199.628 437.706 199.738 437.827C200.165 438.306 200.676 438.707 201.247 439.011L200.829 438.801Z" fill="#E0E0E0"/>
<path d="M289.625 537.931C287.984 537.969 286.36 537.593 284.91 536.84L227.096 504.252L230.019 502.594L225.884 499.016C225.735 498.885 225.621 498.721 225.55 498.537C225.48 498.354 225.456 498.157 225.479 497.963C225.512 497.752 225.596 497.553 225.725 497.381C225.854 497.209 226.024 497.07 226.22 496.977L252.056 482.4C252.761 482.048 253.579 481.982 254.333 482.215L260.893 484.623C261.078 484.683 261.273 484.707 261.467 484.693C261.661 484.68 261.85 484.629 262.024 484.544L310.881 456.995L311.218 457.192L367.941 489.175C368.495 489.486 368.954 489.934 369.271 490.475C369.588 491.016 369.752 491.63 369.746 492.254C369.751 492.877 369.585 493.489 369.266 494.029C368.946 494.568 368.484 495.013 367.928 495.319L294.326 536.84C292.879 537.587 291.262 537.963 289.625 537.931ZM229.79 504.252L285.557 535.695C286.813 536.304 288.196 536.62 289.598 536.62C291 536.62 292.383 536.304 293.639 535.695L367.254 494.174C367.601 493.979 367.89 493.699 368.09 493.36C368.29 493.022 368.396 492.638 368.396 492.247C368.396 491.856 368.29 491.472 368.09 491.134C367.89 490.795 367.601 490.514 367.254 490.32L310.881 458.534L262.725 485.702C262.381 485.882 262.002 485.991 261.613 486.023C261.224 486.055 260.832 486.008 260.462 485.886L253.888 483.478C253.703 483.42 253.507 483.399 253.313 483.414C253.119 483.43 252.93 483.483 252.757 483.57L226.907 498.134L231.056 501.713C231.204 501.845 231.318 502.009 231.388 502.192C231.458 502.374 231.483 502.571 231.46 502.765C231.423 502.974 231.336 503.172 231.208 503.343C231.079 503.514 230.912 503.654 230.719 503.752L229.79 504.252Z" fill="#E0E0E0"/>
<path d="M322.735 537.958C321.092 537.982 319.47 537.597 318.021 536.84L260.166 504.252L263.102 502.594L258.953 499.016C258.805 498.885 258.691 498.721 258.62 498.537C258.55 498.354 258.526 498.157 258.549 497.963C258.587 497.754 258.673 497.556 258.802 497.385C258.93 497.214 259.097 497.074 259.29 496.977L285.14 482.4C285.839 482.049 286.653 481.982 287.403 482.215L293.963 484.623C294.34 484.744 294.751 484.715 295.108 484.544L343.951 456.995L344.301 457.192L387.757 481.755L387.083 482.899L343.978 458.587L295.795 485.702C295.45 485.882 295.072 485.991 294.683 486.023C294.294 486.055 293.902 486.008 293.532 485.886L286.972 483.478C286.592 483.362 286.181 483.395 285.827 483.57L259.991 498.134L264.126 501.726C264.274 501.854 264.389 502.016 264.459 502.197C264.529 502.378 264.554 502.573 264.53 502.765C264.498 502.976 264.413 503.176 264.284 503.348C264.155 503.52 263.985 503.658 263.789 503.752L262.9 504.265L318.694 535.695C319.95 536.304 321.333 536.62 322.735 536.62C324.137 536.62 325.52 536.304 326.776 535.695L387.716 501.318L388.39 502.476L327.45 536.84C326.001 537.597 324.379 537.982 322.735 537.958Z" fill="#034C95"/>
<path d="M402.452 505.436C396.704 505.55 391.021 504.232 385.938 501.608C381.371 498.976 378.893 495.556 378.947 491.833C379.001 488.109 381.533 484.768 386.032 482.229C395.151 477.085 409.996 477.085 419.115 482.229C423.668 484.794 426.16 488.241 426.147 491.925C426.133 495.608 423.601 499.055 419.034 501.608C413.925 504.227 408.222 505.544 402.452 505.436ZM386.625 500.45C395.327 505.357 409.524 505.357 418.361 500.45C422.483 498.148 424.773 495.122 424.786 491.925C424.8 488.728 422.55 485.689 418.442 483.373C409.686 478.44 395.461 478.44 386.706 483.373C382.664 485.676 380.361 488.636 380.307 491.859C380.253 495.082 382.503 498.134 386.625 500.45Z" fill="#034C95"/>
<path d="M410.077 497.542C409.841 497.544 409.608 497.485 409.403 497.371L394.343 488.872C394.189 488.786 394.054 488.671 393.946 488.534C393.838 488.396 393.758 488.239 393.712 488.072C393.665 487.905 393.653 487.73 393.676 487.558C393.699 487.386 393.756 487.22 393.845 487.07C393.933 486.92 394.051 486.788 394.192 486.682C394.332 486.576 394.493 486.499 394.664 486.453C394.836 486.408 395.014 486.396 395.19 486.419C395.367 486.441 395.536 486.497 395.69 486.583L410.764 495.069C410.919 495.156 411.054 495.272 411.163 495.411C411.271 495.55 411.35 495.708 411.396 495.877C411.441 496.046 411.451 496.223 411.426 496.395C411.4 496.568 411.34 496.735 411.248 496.884C411.13 497.085 410.959 497.252 410.753 497.367C410.547 497.483 410.314 497.543 410.077 497.542Z" fill="#034C95"/>
<path d="M395.017 497.542C394.714 497.55 394.417 497.458 394.175 497.28C393.933 497.103 393.758 496.851 393.681 496.565C393.603 496.279 393.626 495.976 393.746 495.705C393.866 495.433 394.077 495.209 394.343 495.069L409.403 486.583C409.556 486.496 409.725 486.439 409.901 486.415C410.076 486.392 410.255 486.402 410.426 486.446C410.598 486.49 410.759 486.567 410.9 486.671C411.041 486.776 411.159 486.907 411.249 487.057C411.34 487.207 411.401 487.373 411.426 487.546C411.451 487.719 411.441 487.895 411.396 488.064C411.351 488.233 411.271 488.392 411.163 488.53C411.054 488.669 410.919 488.785 410.764 488.873L395.69 497.371C395.485 497.485 395.253 497.544 395.017 497.542Z" fill="#034C95"/>
<path d="M202.715 136.289C204.062 137.118 210.46 140.67 212.063 141.473C211.213 141.169 210.3 141.073 209.403 141.192C208.507 141.311 207.653 141.642 206.917 142.157L99.9765 202.491C97.7588 203.914 95.9162 205.828 94.5984 208.077C93.2807 210.326 92.5249 212.848 92.3927 215.436V334.315C92.3374 336.464 93.1504 338.548 94.6557 340.117C94.8348 340.281 95.0237 340.435 95.2215 340.577C89.1194 336.341 82.7345 336.406 82.6133 328.881V210.003C82.7625 207.411 83.5326 204.889 84.8615 202.641C86.1903 200.392 88.0409 198.48 90.2644 197.057L197.205 136.723C198.004 136.186 198.934 135.863 199.9 135.787C200.867 135.71 201.838 135.884 202.715 136.289Z" fill="#263238"/>
<path d="M210.325 141.131C209.114 141.173 207.935 141.522 206.904 142.144L99.9764 202.478C97.7631 203.905 95.9239 205.82 94.6067 208.069C93.2896 210.317 92.5312 212.836 92.3926 215.423V334.302C92.3926 338.065 94.5344 341.275 97.5248 341.275C98.4186 341.25 99.2908 341.001 100.057 340.551L207.119 280.178C209.326 278.762 211.161 276.86 212.478 274.625C213.795 272.391 214.557 269.886 214.703 267.311L214.555 146.525C214.555 143.144 212.831 141.262 210.325 141.262V141.131Z" fill="#37474F"/>
<path d="M206.891 142.144L99.9902 202.478C97.7418 203.853 95.8878 205.763 94.602 208.03L84.8765 202.53C86.1625 200.289 88.0182 198.408 90.2646 197.071L197.205 136.737C198.001 136.176 198.938 135.837 199.917 135.759C200.895 135.68 201.876 135.863 202.755 136.289C204.102 137.118 210.487 140.644 212.09 141.552C211.241 141.223 210.321 141.105 209.414 141.208C208.506 141.311 207.639 141.633 206.891 142.144Z" fill="#455A64"/>
<path d="M126.594 209.99V281.033C126.594 284.282 128.924 285.598 131.807 283.98L194.794 248.458C196.307 247.496 197.568 246.201 198.476 244.678C199.383 243.154 199.912 241.443 200.02 239.683V168.64C200.02 165.39 197.69 164.075 194.807 165.693L131.82 201.214C130.306 202.175 129.045 203.47 128.137 204.994C127.229 206.518 126.701 208.229 126.594 209.99Z" fill="#E82E5D"/>
<path opacity="0.3" d="M171.059 197.899C171.059 194.65 168.715 193.334 165.833 194.952L126.594 217.081V281.02C126.594 284.269 128.924 285.585 131.807 283.966L171.046 261.838L171.059 197.899Z" fill="black"/>
<path d="M107.021 243.104V314.147C107.021 317.396 109.352 318.712 112.234 317.094L175.222 281.572C176.741 280.605 178.005 279.302 178.91 277.768C179.816 276.234 180.339 274.513 180.435 272.744V201.701C180.435 198.452 178.104 197.136 175.222 198.755L112.234 234.276C110.717 235.244 109.454 236.548 108.549 238.082C107.643 239.615 107.12 241.336 107.021 243.104Z" fill="#E82E5D"/>
<path opacity="0.3" d="M107.021 243.104V314.147C107.021 317.396 109.352 318.712 112.234 317.094L175.222 281.572C176.741 280.605 178.005 279.302 178.91 277.768C179.816 276.234 180.339 274.513 180.435 272.744V201.701C180.435 198.452 178.104 197.136 175.222 198.755L112.234 234.276C110.717 235.244 109.454 236.548 108.549 238.082C107.643 239.615 107.12 241.336 107.021 243.104Z" fill="white"/>
<path d="M165.752 252.273V245.09C165.752 243.775 164.823 243.261 163.678 243.919L151.069 251.024V236.815C151.069 235.499 150.14 234.986 148.982 235.631L142.624 239.223C142.016 239.608 141.511 240.129 141.148 240.742C140.785 241.354 140.575 242.042 140.536 242.748V256.957L127.941 264.061C127.333 264.446 126.827 264.967 126.464 265.579C126.101 266.192 125.892 266.88 125.853 267.587V274.77C125.853 276.086 126.782 276.586 127.941 275.941L140.536 268.837V283.098C140.536 284.414 141.479 284.927 142.624 284.269L148.982 280.691C149.59 280.303 150.096 279.78 150.459 279.165C150.822 278.55 151.031 277.86 151.069 277.152V262.904L163.678 255.799C164.28 255.41 164.782 254.888 165.142 254.276C165.502 253.664 165.711 252.978 165.752 252.273Z" fill="white"/>
<path d="M249.363 298.373L241.914 294.176V369.139L249.363 373.323L263.789 343.748L284.318 332.184L249.363 298.373Z" fill="#E0E0E0"/>
<path d="M249.363 373.954C249.246 373.955 249.13 373.927 249.026 373.875L241.59 369.678C241.493 369.623 241.412 369.545 241.356 369.45C241.299 369.356 241.268 369.248 241.267 369.139V294.149C241.27 294.038 241.301 293.929 241.357 293.833C241.414 293.737 241.494 293.655 241.59 293.597C241.692 293.545 241.805 293.518 241.92 293.518C242.035 293.518 242.149 293.545 242.25 293.597L249.686 297.793L249.807 297.885L284.763 331.776C284.834 331.845 284.889 331.93 284.921 332.024C284.954 332.117 284.964 332.217 284.951 332.315C284.941 332.41 284.907 332.502 284.853 332.582C284.799 332.662 284.727 332.728 284.641 332.775L264.288 344.248L249.996 373.599C249.957 373.677 249.903 373.746 249.836 373.803C249.768 373.86 249.69 373.902 249.605 373.928C249.528 373.957 249.445 373.966 249.363 373.954ZM242.628 368.771L249.12 372.441L263.264 343.498C263.319 343.383 263.408 343.286 263.52 343.221L283.308 332.065L248.959 298.885L242.574 295.281L242.628 368.771Z" fill="#455A64"/>
<path d="M249.362 298.373V373.323L263.789 343.748L284.318 332.184L249.362 298.373Z" fill="#FAFAFA"/>
<path d="M249.362 373.954H249.214C249.069 373.924 248.939 373.846 248.846 373.734C248.753 373.621 248.702 373.481 248.702 373.336V298.346C248.699 298.22 248.735 298.096 248.805 297.989C248.875 297.883 248.976 297.8 249.095 297.75C249.214 297.701 249.345 297.687 249.472 297.711C249.599 297.735 249.716 297.796 249.807 297.886L284.762 331.776C284.834 331.846 284.888 331.93 284.921 332.024C284.954 332.118 284.964 332.217 284.951 332.315C284.94 332.41 284.907 332.502 284.853 332.582C284.799 332.662 284.726 332.728 284.641 332.776L264.287 344.248L249.995 373.599C249.94 373.715 249.85 373.811 249.737 373.875C249.623 373.938 249.493 373.966 249.362 373.954ZM250.009 299.885V370.52L263.21 343.472C263.265 343.356 263.354 343.26 263.466 343.195L283.254 332.039L250.009 299.885Z" fill="#455A64"/>
<path d="M228.16 294.044L220.725 289.847V364.811L228.16 368.994L242.6 339.419L263.116 327.842L228.16 294.044Z" fill="#263238"/>
<path d="M228.16 294.044V368.994L242.6 339.419L263.116 327.842L228.16 294.044Z" fill="#455A64"/>
<path d="M390.086 312.791C389.981 312.791 389.878 312.763 389.787 312.71C389.697 312.656 389.624 312.58 389.575 312.489C389.496 312.354 389.474 312.195 389.514 312.045C389.555 311.894 389.654 311.766 389.79 311.686L392.915 309.923C393.055 309.845 393.22 309.824 393.375 309.864C393.531 309.905 393.663 310.004 393.744 310.14C393.824 310.277 393.846 310.438 393.804 310.59C393.762 310.742 393.661 310.871 393.521 310.95L390.396 312.712C390.302 312.765 390.195 312.792 390.086 312.791ZM385.749 311.726C385.67 311.728 385.592 311.714 385.518 311.686C385.445 311.657 385.378 311.615 385.321 311.561C385.265 311.507 385.22 311.443 385.189 311.371C385.159 311.3 385.143 311.224 385.143 311.147C385.137 311.116 385.137 311.085 385.143 311.055V307.582C385.143 307.425 385.207 307.274 385.32 307.163C385.434 307.052 385.588 306.99 385.749 306.99C385.91 306.99 386.064 307.052 386.178 307.163C386.291 307.274 386.355 307.425 386.355 307.582V311.121C386.355 311.281 386.29 311.435 386.174 311.549C386.058 311.662 385.9 311.726 385.736 311.726H385.749ZM398.438 308.081C398.304 308.087 398.171 308.047 398.063 307.969C397.955 307.89 397.877 307.779 397.842 307.651C397.808 307.524 397.819 307.389 397.873 307.269C397.928 307.149 398.022 307.05 398.142 306.99L401.267 305.227C401.335 305.187 401.41 305.16 401.488 305.149C401.567 305.138 401.647 305.143 401.723 305.162C401.8 305.182 401.872 305.217 401.934 305.264C401.997 305.311 402.049 305.37 402.089 305.437C402.167 305.572 402.189 305.731 402.149 305.881C402.108 306.032 402.009 306.16 401.873 306.24L398.734 308.003C398.641 308.06 398.534 308.091 398.425 308.095L398.438 308.081ZM406.776 303.385C406.671 303.385 406.567 303.356 406.477 303.303C406.387 303.25 406.313 303.173 406.264 303.082C406.185 302.948 406.164 302.788 406.204 302.638C406.244 302.488 406.343 302.359 406.48 302.28L409.618 300.517C409.688 300.469 409.766 300.436 409.849 300.42C409.933 300.404 410.018 300.405 410.101 300.423C410.183 300.442 410.261 300.477 410.329 300.526C410.397 300.575 410.454 300.638 410.495 300.71C410.537 300.782 410.562 300.862 410.571 300.944C410.579 301.026 410.569 301.11 410.542 301.188C410.516 301.266 410.472 301.339 410.415 301.4C410.358 301.461 410.289 301.51 410.211 301.543L407.086 303.306C406.988 303.36 406.876 303.388 406.763 303.385H406.776ZM385.749 302.293C385.588 302.293 385.434 302.23 385.32 302.119C385.207 302.008 385.143 301.858 385.143 301.701V298.175C385.143 298.018 385.207 297.867 385.32 297.756C385.434 297.645 385.588 297.583 385.749 297.583C385.91 297.583 386.064 297.645 386.178 297.756C386.291 297.867 386.355 298.018 386.355 298.175V301.701C386.355 301.78 386.339 301.858 386.308 301.93C386.276 302.003 386.231 302.069 386.173 302.124C386.115 302.179 386.047 302.223 385.972 302.252C385.897 302.281 385.816 302.295 385.736 302.293H385.749ZM415.128 298.675C415.022 298.673 414.919 298.646 414.828 298.595C414.736 298.545 414.658 298.473 414.602 298.385C414.525 298.249 414.505 298.088 414.548 297.938C414.591 297.788 414.693 297.66 414.831 297.583L417.957 295.82C418.092 295.765 418.243 295.76 418.382 295.805C418.521 295.851 418.639 295.944 418.713 296.068C418.787 296.192 418.812 296.337 418.785 296.478C418.757 296.619 418.678 296.745 418.563 296.833L415.424 298.596C415.33 298.65 415.223 298.678 415.114 298.675H415.128ZM423.479 293.978C423.372 293.98 423.265 293.953 423.173 293.9C423.08 293.846 423.004 293.769 422.954 293.676C422.875 293.541 422.853 293.381 422.894 293.231C422.934 293.081 423.033 292.953 423.17 292.873L426.308 291.11C426.377 291.063 426.456 291.03 426.539 291.014C426.622 290.997 426.708 290.999 426.79 291.017C426.873 291.035 426.951 291.07 427.019 291.119C427.087 291.169 427.143 291.231 427.185 291.303C427.226 291.375 427.252 291.455 427.26 291.538C427.268 291.62 427.259 291.703 427.232 291.781C427.205 291.86 427.162 291.932 427.105 291.993C427.048 292.054 426.978 292.103 426.901 292.136L423.762 293.899C423.672 293.949 423.57 293.977 423.466 293.978H423.479ZM385.763 292.886C385.602 292.886 385.448 292.824 385.334 292.713C385.22 292.602 385.156 292.451 385.156 292.294V288.768C385.156 288.611 385.22 288.461 385.334 288.35C385.448 288.239 385.602 288.176 385.763 288.176C385.923 288.176 386.077 288.239 386.191 288.35C386.305 288.461 386.369 288.611 386.369 288.768V292.307C386.367 292.386 386.349 292.464 386.316 292.536C386.283 292.608 386.236 292.673 386.177 292.727C386.118 292.781 386.048 292.823 385.973 292.85C385.897 292.877 385.816 292.89 385.736 292.886H385.763ZM431.831 289.268C431.702 289.263 431.578 289.217 431.478 289.138C431.377 289.059 431.305 288.95 431.272 288.829C431.239 288.707 431.247 288.578 431.294 288.46C431.341 288.343 431.425 288.244 431.535 288.176L434.66 286.413C434.729 286.373 434.805 286.347 434.884 286.336C434.964 286.324 435.045 286.329 435.122 286.348C435.2 286.368 435.273 286.402 435.337 286.45C435.401 286.497 435.455 286.556 435.495 286.624C435.573 286.76 435.592 286.921 435.549 287.071C435.506 287.221 435.405 287.349 435.266 287.426L432.141 289.189C432.05 289.24 431.948 289.267 431.844 289.268H431.831ZM440.183 284.572C440.076 284.57 439.971 284.541 439.879 284.488C439.787 284.435 439.711 284.359 439.657 284.269C439.579 284.133 439.56 283.972 439.603 283.822C439.646 283.671 439.747 283.544 439.886 283.466L443.011 281.704C443.151 281.628 443.315 281.608 443.469 281.65C443.623 281.692 443.754 281.792 443.833 281.927C443.912 282.062 443.934 282.221 443.893 282.371C443.853 282.522 443.754 282.65 443.617 282.73L440.479 284.493C440.381 284.549 440.269 284.577 440.156 284.572H440.183ZM385.763 283.466C385.602 283.466 385.448 283.404 385.334 283.293C385.22 283.182 385.156 283.031 385.156 282.874V279.349C385.156 279.271 385.172 279.194 385.202 279.122C385.233 279.05 385.278 278.985 385.334 278.93C385.39 278.875 385.457 278.831 385.531 278.802C385.604 278.772 385.683 278.757 385.763 278.757C385.842 278.757 385.921 278.772 385.994 278.802C386.068 278.831 386.135 278.875 386.191 278.93C386.247 278.985 386.292 279.05 386.323 279.122C386.353 279.194 386.369 279.271 386.369 279.349V282.874C386.369 282.954 386.352 283.034 386.32 283.107C386.288 283.181 386.241 283.247 386.182 283.303C386.123 283.358 386.052 283.401 385.976 283.429C385.899 283.457 385.817 283.47 385.736 283.466H385.763ZM448.534 279.862C448.428 279.864 448.323 279.838 448.231 279.787C448.139 279.736 448.062 279.662 448.009 279.572C447.93 279.438 447.908 279.278 447.949 279.128C447.989 278.978 448.088 278.849 448.224 278.77L451.363 277.007C451.43 276.965 451.506 276.937 451.584 276.925C451.663 276.913 451.744 276.917 451.821 276.937C451.898 276.957 451.97 276.992 452.033 277.04C452.095 277.088 452.147 277.149 452.185 277.217C452.262 277.354 452.282 277.514 452.239 277.665C452.196 277.815 452.094 277.942 451.956 278.02L448.83 279.783C448.732 279.837 448.62 279.865 448.507 279.862H448.534ZM456.872 275.165C456.767 275.165 456.663 275.137 456.573 275.083C456.483 275.03 456.409 274.954 456.36 274.862C456.32 274.796 456.293 274.723 456.281 274.646C456.27 274.569 456.275 274.491 456.295 274.417C456.315 274.342 456.35 274.272 456.398 274.21C456.447 274.149 456.507 274.098 456.576 274.06L459.701 272.297C459.84 272.218 460.006 272.197 460.161 272.238C460.317 272.279 460.449 272.378 460.529 272.514C460.61 272.65 460.632 272.812 460.59 272.964C460.548 273.115 460.447 273.245 460.307 273.323L457.182 275.086C457.084 275.157 456.967 275.198 456.845 275.204L456.872 275.165ZM385.763 274.06C385.602 274.06 385.448 273.997 385.334 273.886C385.22 273.775 385.156 273.625 385.156 273.468V269.942C385.156 269.785 385.22 269.634 385.334 269.523C385.448 269.412 385.602 269.35 385.763 269.35C385.923 269.35 386.077 269.412 386.191 269.523C386.305 269.634 386.369 269.785 386.369 269.942V273.468C386.369 273.548 386.352 273.627 386.32 273.701C386.288 273.774 386.241 273.841 386.182 273.896C386.123 273.951 386.052 273.994 385.976 274.023C385.899 274.051 385.817 274.063 385.736 274.06H385.763ZM464.483 269.626C464.39 269.65 464.293 269.65 464.2 269.626C464.13 269.591 464.067 269.543 464.016 269.485C463.965 269.426 463.926 269.358 463.902 269.284C463.878 269.211 463.87 269.133 463.877 269.056C463.884 268.98 463.907 268.905 463.944 268.837C464.357 268.087 464.587 267.254 464.618 266.403V265.693C464.639 265.552 464.712 265.424 464.822 265.332C464.932 265.239 465.072 265.189 465.217 265.189C465.362 265.189 465.503 265.239 465.613 265.332C465.723 265.424 465.795 265.552 465.817 265.693V266.403C465.792 267.443 465.515 268.461 465.008 269.376C464.949 269.464 464.866 269.534 464.768 269.578C464.671 269.622 464.563 269.639 464.456 269.626H464.483ZM385.736 264.68C385.577 264.68 385.425 264.619 385.312 264.511C385.198 264.403 385.133 264.255 385.129 264.101V260.562C385.129 260.405 385.193 260.254 385.307 260.143C385.421 260.032 385.575 259.97 385.736 259.97C385.896 259.97 386.05 260.032 386.164 260.143C386.278 260.254 386.342 260.405 386.342 260.562V264.101C386.338 264.255 386.273 264.403 386.159 264.511C386.046 264.619 385.894 264.68 385.736 264.68ZM465.21 260.377C465.05 260.377 464.895 260.315 464.782 260.204C464.668 260.093 464.604 259.942 464.604 259.785V256.26C464.591 256.175 464.597 256.089 464.621 256.008C464.645 255.926 464.687 255.85 464.744 255.785C464.801 255.721 464.872 255.669 464.951 255.633C465.03 255.598 465.116 255.58 465.204 255.58C465.291 255.58 465.377 255.598 465.456 255.633C465.536 255.669 465.606 255.721 465.663 255.785C465.72 255.85 465.762 255.926 465.786 256.008C465.81 256.089 465.816 256.175 465.803 256.26V259.785C465.793 259.936 465.724 260.076 465.612 260.179C465.499 260.281 465.351 260.338 465.197 260.338L465.21 260.377ZM385.736 255.273C385.575 255.273 385.421 255.211 385.307 255.1C385.193 254.988 385.129 254.838 385.129 254.681V251.155C385.129 250.998 385.193 250.847 385.307 250.736C385.421 250.625 385.575 250.563 385.736 250.563C385.896 250.563 386.05 250.625 386.164 250.736C386.278 250.847 386.342 250.998 386.342 251.155V254.681C386.331 254.831 386.263 254.972 386.15 255.074C386.038 255.177 385.89 255.234 385.736 255.233V255.273ZM465.21 250.958C465.053 250.958 464.902 250.897 464.791 250.788C464.68 250.68 464.618 250.532 464.618 250.379V246.84C464.639 246.7 464.712 246.572 464.822 246.479C464.932 246.387 465.072 246.336 465.217 246.336C465.362 246.336 465.503 246.387 465.613 246.479C465.723 246.572 465.795 246.7 465.817 246.84V250.379C465.803 250.531 465.729 250.672 465.611 250.773C465.493 250.874 465.34 250.926 465.183 250.918L465.21 250.958ZM385.736 245.866C385.575 245.866 385.421 245.804 385.307 245.693C385.193 245.582 385.129 245.431 385.129 245.274V241.748C385.129 241.591 385.193 241.441 385.307 241.33C385.421 241.219 385.575 241.156 385.736 241.156C385.896 241.156 386.05 241.219 386.164 241.33C386.278 241.441 386.342 241.591 386.342 241.748V245.274C386.331 245.424 386.263 245.565 386.15 245.668C386.038 245.77 385.89 245.827 385.736 245.827V245.866ZM465.21 241.551C465.052 241.548 464.901 241.484 464.79 241.373C464.68 241.262 464.618 241.114 464.618 240.959V237.433C464.605 237.349 464.611 237.263 464.635 237.181C464.659 237.099 464.701 237.024 464.758 236.959C464.815 236.894 464.885 236.843 464.964 236.807C465.044 236.772 465.13 236.753 465.217 236.753C465.304 236.753 465.391 236.772 465.47 236.807C465.549 236.843 465.62 236.894 465.676 236.959C465.733 237.024 465.775 237.099 465.8 237.181C465.824 237.263 465.829 237.349 465.817 237.433V240.959C465.806 241.114 465.734 241.258 465.616 241.362C465.497 241.465 465.342 241.519 465.183 241.512L465.21 241.551ZM385.736 236.447C385.575 236.447 385.421 236.384 385.307 236.273C385.193 236.162 385.129 236.012 385.129 235.854V232.329C385.129 232.172 385.193 232.021 385.307 231.91C385.421 231.799 385.575 231.737 385.736 231.737C385.896 231.737 386.05 231.799 386.164 231.91C386.278 232.021 386.342 232.172 386.342 232.329V235.854C386.331 236.005 386.263 236.145 386.15 236.248C386.038 236.35 385.89 236.407 385.736 236.407V236.447ZM465.21 232.144C465.052 232.141 464.901 232.077 464.79 231.967C464.68 231.856 464.618 231.707 464.618 231.552V228.027C464.605 227.942 464.611 227.856 464.635 227.775C464.659 227.693 464.701 227.617 464.758 227.552C464.815 227.488 464.885 227.436 464.964 227.4C465.044 227.365 465.13 227.347 465.217 227.347C465.304 227.347 465.391 227.365 465.47 227.4C465.549 227.436 465.62 227.488 465.676 227.552C465.733 227.617 465.775 227.693 465.8 227.775C465.824 227.856 465.829 227.942 465.817 228.027V231.552C465.806 231.707 465.734 231.852 465.616 231.955C465.497 232.058 465.342 232.112 465.183 232.105L465.21 232.144ZM385.736 227.04C385.575 227.04 385.421 226.978 385.307 226.867C385.193 226.755 385.129 226.605 385.129 226.448V222.922C385.129 222.765 385.193 222.614 385.307 222.503C385.421 222.392 385.575 222.33 385.736 222.33C385.896 222.33 386.05 222.392 386.164 222.503C386.278 222.614 386.342 222.765 386.342 222.922V226.448C386.331 226.598 386.263 226.739 386.15 226.841C386.038 226.944 385.89 227.001 385.736 227V227.04ZM465.21 222.725C465.052 222.725 464.9 222.664 464.786 222.556C464.673 222.448 464.608 222.301 464.604 222.146V218.633C464.604 218.476 464.668 218.326 464.782 218.215C464.895 218.104 465.05 218.041 465.21 218.041C465.371 218.041 465.525 218.104 465.639 218.215C465.753 218.326 465.817 218.476 465.817 218.633V222.172C465.796 222.32 465.72 222.455 465.603 222.55C465.485 222.645 465.336 222.693 465.183 222.685L465.21 222.725ZM385.736 217.62C385.577 217.62 385.425 217.56 385.312 217.451C385.198 217.343 385.133 217.196 385.129 217.041V213.502C385.129 213.345 385.193 213.195 385.307 213.084C385.421 212.973 385.575 212.91 385.736 212.91C385.896 212.91 386.05 212.973 386.164 213.084C386.278 213.195 386.342 213.345 386.342 213.502V217.041C386.328 217.189 386.258 217.326 386.146 217.426C386.034 217.526 385.887 217.581 385.736 217.581V217.62ZM465.21 213.318C465.05 213.318 464.895 213.256 464.782 213.145C464.668 213.034 464.604 212.883 464.604 212.726V209.161C464.604 209.004 464.668 208.853 464.782 208.742C464.895 208.631 465.05 208.569 465.21 208.569C465.371 208.569 465.525 208.631 465.639 208.742C465.753 208.853 465.817 209.004 465.817 209.161V212.687C465.817 212.767 465.8 212.846 465.768 212.919C465.736 212.993 465.689 213.059 465.63 213.115C465.57 213.17 465.5 213.213 465.424 213.241C465.347 213.27 465.265 213.282 465.183 213.279L465.21 213.318ZM385.736 208.214C385.575 208.214 385.421 208.151 385.307 208.04C385.193 207.929 385.129 207.779 385.129 207.622V204.096C385.129 203.939 385.193 203.788 385.307 203.677C385.421 203.566 385.575 203.504 385.736 203.504C385.896 203.504 386.05 203.566 386.164 203.677C386.278 203.788 386.342 203.939 386.342 204.096V207.622C386.331 207.772 386.263 207.912 386.15 208.015C386.038 208.117 385.89 208.174 385.736 208.174V208.214ZM465.21 203.911C465.05 203.911 464.895 203.849 464.782 203.738C464.668 203.627 464.604 203.476 464.604 203.319V199.794C464.591 199.709 464.597 199.623 464.621 199.542C464.645 199.46 464.687 199.384 464.744 199.319C464.801 199.255 464.872 199.203 464.951 199.167C465.03 199.132 465.116 199.114 465.204 199.114C465.291 199.114 465.377 199.132 465.456 199.167C465.536 199.203 465.606 199.255 465.663 199.319C465.72 199.384 465.762 199.46 465.786 199.542C465.81 199.623 465.816 199.709 465.803 199.794V203.319C465.793 203.472 465.722 203.614 465.607 203.717C465.492 203.82 465.34 203.876 465.183 203.872L465.21 203.911ZM385.736 198.807C385.575 198.807 385.421 198.745 385.307 198.634C385.193 198.522 385.129 198.372 385.129 198.215V194.689C385.129 194.532 385.193 194.381 385.307 194.27C385.421 194.159 385.575 194.097 385.736 194.097C385.896 194.097 386.05 194.159 386.164 194.27C386.278 194.381 386.342 194.532 386.342 194.689V198.215C386.331 198.365 386.263 198.506 386.15 198.608C386.038 198.711 385.89 198.768 385.736 198.767V198.807ZM465.21 194.492C465.05 194.492 464.895 194.429 464.782 194.318C464.668 194.207 464.604 194.057 464.604 193.9V190.374C464.591 190.29 464.597 190.204 464.621 190.122C464.645 190.04 464.687 189.964 464.744 189.9C464.801 189.835 464.872 189.783 464.951 189.748C465.03 189.712 465.116 189.694 465.204 189.694C465.291 189.694 465.377 189.712 465.456 189.748C465.536 189.783 465.606 189.835 465.663 189.9C465.72 189.964 465.762 190.04 465.786 190.122C465.81 190.204 465.816 190.29 465.803 190.374V193.9C465.793 194.052 465.722 194.195 465.607 194.298C465.492 194.401 465.34 194.456 465.183 194.452L465.21 194.492ZM385.736 189.387C385.577 189.387 385.425 189.327 385.312 189.218C385.198 189.11 385.133 188.963 385.129 188.808V185.269C385.129 185.112 385.193 184.962 385.307 184.851C385.421 184.74 385.575 184.677 385.736 184.677C385.896 184.677 386.05 184.74 386.164 184.851C386.278 184.962 386.342 185.112 386.342 185.269V188.808C386.328 188.956 386.258 189.093 386.146 189.193C386.034 189.293 385.887 189.348 385.736 189.348V189.387ZM465.21 185.085C465.05 185.085 464.895 185.023 464.782 184.912C464.668 184.801 464.604 184.65 464.604 184.493V180.967C464.591 180.883 464.597 180.797 464.621 180.715C464.645 180.633 464.687 180.558 464.744 180.493C464.801 180.428 464.872 180.377 464.951 180.341C465.03 180.306 465.116 180.287 465.204 180.287C465.291 180.287 465.377 180.306 465.456 180.341C465.536 180.377 465.606 180.428 465.663 180.493C465.72 180.558 465.762 180.633 465.786 180.715C465.81 180.797 465.816 180.883 465.803 180.967V184.427C465.807 184.508 465.793 184.589 465.764 184.665C465.734 184.741 465.689 184.81 465.631 184.868C465.573 184.926 465.503 184.972 465.426 185.002C465.349 185.033 465.266 185.048 465.183 185.046L465.21 185.085ZM387.15 180.283C387.019 180.282 386.892 180.241 386.786 180.165C386.658 180.071 386.573 179.93 386.55 179.775C386.527 179.619 386.569 179.462 386.665 179.336C387.182 178.638 387.837 178.047 388.591 177.599L389.642 177.007C389.78 176.93 389.943 176.909 390.097 176.948C390.251 176.988 390.382 177.085 390.464 177.218C390.505 177.284 390.531 177.358 390.543 177.434C390.554 177.511 390.549 177.589 390.529 177.663C390.509 177.738 390.474 177.808 390.426 177.87C390.377 177.931 390.317 177.982 390.248 178.02L389.197 178.612C388.585 178.979 388.053 179.462 387.635 180.033C387.573 180.106 387.494 180.162 387.405 180.199C387.316 180.236 387.219 180.251 387.123 180.244L387.15 180.283ZM465.197 175.665C465.04 175.665 464.889 175.604 464.778 175.496C464.667 175.387 464.604 175.24 464.604 175.086V171.547C464.626 171.407 464.698 171.279 464.808 171.187C464.918 171.094 465.059 171.043 465.204 171.043C465.349 171.043 465.489 171.094 465.599 171.187C465.709 171.279 465.781 171.407 465.803 171.547V175.086C465.789 175.239 465.716 175.38 465.598 175.481C465.48 175.581 465.326 175.633 465.17 175.626L465.197 175.665ZM395.151 175.165C395.044 175.168 394.937 175.141 394.845 175.087C394.752 175.034 394.676 174.956 394.626 174.863C394.547 174.728 394.525 174.569 394.566 174.419C394.606 174.268 394.705 174.14 394.841 174.06L397.98 172.297C398.118 172.22 398.281 172.199 398.435 172.239C398.589 172.278 398.72 172.375 398.802 172.508C398.881 172.645 398.903 172.806 398.863 172.958C398.823 173.111 398.724 173.242 398.586 173.324L395.475 175.047C395.372 175.104 395.255 175.131 395.138 175.126L395.151 175.165ZM403.489 170.456C403.361 170.45 403.237 170.404 403.136 170.325C403.036 170.246 402.964 170.138 402.931 170.016C402.898 169.894 402.905 169.765 402.953 169.648C403 169.53 403.084 169.431 403.193 169.364L406.318 167.587C406.457 167.509 406.623 167.488 406.778 167.528C406.934 167.569 407.066 167.668 407.147 167.805C407.227 167.941 407.249 168.102 407.207 168.254C407.165 168.406 407.064 168.535 406.924 168.614L403.799 170.377C403.697 170.418 403.585 170.431 403.476 170.416L403.489 170.456ZM465.183 166.259C465.023 166.259 464.868 166.196 464.755 166.085C464.641 165.974 464.577 165.824 464.577 165.667V162.062C464.577 161.905 464.641 161.754 464.755 161.643C464.868 161.532 465.023 161.47 465.183 161.47C465.344 161.47 465.498 161.532 465.612 161.643C465.726 161.754 465.79 161.905 465.79 162.062V165.588C465.795 165.67 465.783 165.752 465.755 165.83C465.726 165.907 465.681 165.978 465.622 166.037C465.564 166.096 465.494 166.143 465.416 166.175C465.338 166.206 465.254 166.221 465.17 166.219L465.183 166.259ZM411.841 165.746C411.736 165.744 411.633 165.716 411.541 165.666C411.449 165.615 411.372 165.543 411.316 165.456C411.238 165.32 411.218 165.159 411.261 165.009C411.304 164.859 411.406 164.731 411.545 164.654L414.67 162.891C414.738 162.851 414.813 162.825 414.891 162.814C414.97 162.803 415.05 162.807 415.126 162.827C415.203 162.846 415.274 162.881 415.337 162.928C415.4 162.975 415.452 163.034 415.491 163.101C415.57 163.236 415.592 163.395 415.552 163.546C415.511 163.696 415.412 163.824 415.276 163.904L412.137 165.667C412.04 165.707 411.933 165.721 411.828 165.706L411.841 165.746ZM420.193 161.049C420.094 161.042 419.999 161.01 419.917 160.957C419.834 160.904 419.767 160.832 419.721 160.746C419.642 160.612 419.621 160.452 419.661 160.302C419.701 160.152 419.8 160.023 419.937 159.944L423.062 158.181C423.202 158.103 423.367 158.082 423.523 158.121C423.679 158.16 423.813 158.257 423.897 158.391C423.937 158.458 423.963 158.533 423.974 158.61C423.984 158.687 423.978 158.765 423.957 158.84C423.936 158.915 423.899 158.985 423.849 159.046C423.8 159.107 423.738 159.157 423.668 159.194L420.543 160.97C420.428 161.019 420.302 161.032 420.179 161.009L420.193 161.049ZM465.183 156.852C465.023 156.852 464.868 156.79 464.755 156.679C464.641 156.568 464.577 156.417 464.577 156.26V152.734C464.577 152.577 464.641 152.427 464.755 152.316C464.868 152.205 465.023 152.142 465.183 152.142C465.344 152.142 465.498 152.205 465.612 152.316C465.726 152.427 465.79 152.577 465.79 152.734V156.26C465.776 156.41 465.704 156.549 465.589 156.65C465.474 156.75 465.324 156.803 465.17 156.799L465.183 156.852ZM428.531 156.339C428.425 156.337 428.322 156.31 428.23 156.259C428.139 156.209 428.061 156.137 428.005 156.05C427.927 155.911 427.907 155.749 427.95 155.596C427.993 155.444 428.095 155.314 428.234 155.234L431.36 153.471C431.499 153.395 431.664 153.376 431.817 153.418C431.971 153.46 432.102 153.559 432.181 153.695C432.26 153.829 432.282 153.989 432.241 154.139C432.201 154.289 432.102 154.418 431.966 154.497L428.827 156.26C428.729 156.301 428.622 156.314 428.517 156.3L428.531 156.339ZM436.882 151.629C436.776 151.631 436.672 151.605 436.579 151.555C436.487 151.504 436.41 151.429 436.357 151.34C436.278 151.205 436.256 151.045 436.297 150.895C436.337 150.745 436.436 150.617 436.573 150.537L439.711 148.774C439.779 148.736 439.854 148.712 439.932 148.702C440.01 148.692 440.089 148.698 440.165 148.718C440.24 148.738 440.311 148.773 440.373 148.82C440.435 148.866 440.487 148.925 440.526 148.991C440.565 149.058 440.59 149.131 440.6 149.207C440.61 149.283 440.604 149.36 440.584 149.434C440.563 149.508 440.528 149.577 440.48 149.638C440.432 149.699 440.372 149.749 440.304 149.787L437.233 151.537C437.114 151.573 436.987 151.573 436.869 151.537L436.882 151.629ZM465.17 147.432C465.011 147.432 464.859 147.372 464.746 147.264C464.633 147.155 464.567 147.008 464.564 146.853V143.314C464.564 143.157 464.628 143.007 464.741 142.896C464.855 142.785 465.009 142.722 465.17 142.722C465.331 142.722 465.485 142.785 465.599 142.896C465.712 143.007 465.776 143.157 465.776 143.314V146.853C465.763 147.001 465.693 147.139 465.581 147.238C465.468 147.338 465.322 147.393 465.17 147.393V147.432ZM445.207 146.932C445.1 146.93 444.996 146.902 444.904 146.849C444.811 146.796 444.735 146.72 444.682 146.63C444.604 146.494 444.584 146.333 444.627 146.183C444.67 146.032 444.772 145.905 444.911 145.827L448.036 144.064C448.174 143.987 448.337 143.966 448.491 144.006C448.644 144.045 448.776 144.142 448.857 144.275C448.898 144.341 448.925 144.415 448.936 144.491C448.948 144.568 448.943 144.646 448.923 144.721C448.903 144.795 448.868 144.866 448.819 144.927C448.771 144.988 448.711 145.039 448.642 145.077L445.517 146.853C445.418 146.891 445.312 146.904 445.207 146.893V146.932ZM453.559 142.223C453.452 142.225 453.348 142.199 453.255 142.148C453.163 142.097 453.086 142.023 453.033 141.933C452.954 141.796 452.932 141.635 452.972 141.483C453.012 141.33 453.111 141.199 453.249 141.117L456.387 139.354C456.457 139.307 456.535 139.274 456.618 139.258C456.701 139.242 456.787 139.243 456.87 139.261C456.952 139.279 457.03 139.314 457.098 139.364C457.166 139.413 457.222 139.476 457.264 139.548C457.306 139.62 457.331 139.7 457.34 139.782C457.348 139.864 457.338 139.947 457.311 140.026C457.284 140.104 457.241 140.176 457.184 140.237C457.127 140.299 457.058 140.347 456.98 140.381L453.855 142.144C453.761 142.18 453.659 142.194 453.559 142.183V142.223ZM464.954 138.052C464.835 138.052 464.719 138.017 464.62 137.951C464.521 137.885 464.446 137.792 464.402 137.684C464.079 136.934 463.271 136.829 462.341 137.355L462.207 137.434C462.138 137.474 462.061 137.5 461.982 137.512C461.902 137.523 461.822 137.518 461.744 137.499C461.666 137.479 461.593 137.445 461.529 137.398C461.465 137.35 461.412 137.291 461.371 137.223C461.331 137.156 461.305 137.082 461.295 137.005C461.284 136.928 461.29 136.849 461.311 136.774C461.333 136.7 461.369 136.63 461.419 136.569C461.469 136.508 461.53 136.458 461.6 136.421L461.735 136.342C462.029 136.113 462.372 135.953 462.739 135.873C463.106 135.794 463.487 135.798 463.852 135.884C464.217 135.97 464.557 136.137 464.846 136.371C465.136 136.606 465.366 136.902 465.52 137.236C465.578 137.381 465.575 137.542 465.512 137.685C465.449 137.828 465.331 137.941 465.183 137.999C465.11 138.023 465.031 138.028 464.954 138.013V138.052Z" fill="#034C95"/>
<path d="M385.735 215.818C385.631 215.818 385.529 215.791 385.439 215.739L382.3 213.976C382.164 213.896 382.065 213.768 382.025 213.618C381.984 213.467 382.006 213.308 382.085 213.173C382.164 213.038 382.295 212.938 382.449 212.896C382.603 212.854 382.767 212.874 382.907 212.95L386.045 214.686C386.185 214.766 386.287 214.896 386.33 215.048C386.373 215.201 386.353 215.364 386.274 215.502C386.224 215.599 386.146 215.679 386.051 215.735C385.956 215.791 385.846 215.82 385.735 215.818ZM377.384 211.108C377.28 211.106 377.178 211.079 377.087 211.029L373.922 209.266C373.799 209.181 373.713 209.055 373.679 208.912C373.646 208.769 373.669 208.619 373.743 208.491C373.817 208.363 373.936 208.266 374.079 208.22C374.222 208.174 374.377 208.181 374.515 208.24L377.653 210.016C377.79 210.095 377.889 210.224 377.929 210.374C377.969 210.524 377.948 210.684 377.869 210.818C377.819 210.902 377.749 210.973 377.664 211.023C377.579 211.074 377.483 211.103 377.384 211.108ZM369.046 206.398C368.937 206.399 368.83 206.371 368.736 206.319L365.611 204.556C365.472 204.479 365.37 204.351 365.327 204.201C365.284 204.05 365.304 203.89 365.382 203.753C365.422 203.686 365.476 203.626 365.54 203.579C365.604 203.532 365.677 203.497 365.754 203.478C365.832 203.458 365.913 203.454 365.992 203.465C366.072 203.476 366.148 203.503 366.217 203.543L369.342 205.306C369.451 205.373 369.535 205.473 369.583 205.59C369.63 205.707 369.637 205.836 369.604 205.958C369.571 206.08 369.499 206.188 369.399 206.267C369.298 206.346 369.175 206.392 369.046 206.398ZM360.694 201.688C360.585 201.695 360.476 201.667 360.384 201.609L357.259 199.846C357.19 199.808 357.13 199.757 357.082 199.696C357.033 199.634 356.998 199.564 356.978 199.489C356.958 199.414 356.953 199.336 356.965 199.26C356.976 199.183 357.003 199.11 357.044 199.044C357.125 198.91 357.257 198.814 357.41 198.774C357.564 198.735 357.727 198.756 357.865 198.833L360.99 200.596C361.099 200.663 361.184 200.763 361.231 200.88C361.278 200.997 361.286 201.126 361.253 201.248C361.22 201.37 361.148 201.478 361.047 201.557C360.947 201.637 360.823 201.682 360.694 201.688Z" fill="#034C95"/>
<path d="M464.173 122.16C471.137 118.213 476.781 121.423 476.781 129.277C476.781 137.131 471.137 146.696 464.173 150.616C457.209 154.537 451.551 151.366 451.551 143.512C451.551 135.658 457.182 126.093 464.173 122.16Z" fill="#FAFAFA"/>
<path d="M458.515 152.852C457.274 152.871 456.05 152.562 454.973 151.958C452.427 150.524 451.026 147.537 451.026 143.551C451.026 135.539 456.805 125.764 463.903 121.765C467.433 119.765 470.787 119.462 473.333 120.896C475.879 122.33 477.293 125.33 477.293 129.316C477.293 137.328 471.514 147.09 464.415 151.103C462.636 152.173 460.604 152.776 458.515 152.852ZM469.79 121.015C467.881 121.089 466.024 121.646 464.402 122.633C457.586 126.474 452.036 135.855 452.036 143.551C452.036 147.156 453.262 149.84 455.471 151.09C457.68 152.339 460.684 152.037 463.89 150.221C470.706 146.38 476.242 136.999 476.242 129.316C476.242 125.698 475.017 123.028 472.807 121.778C471.893 121.252 470.851 120.975 469.79 120.975V121.015Z" fill="#034C95"/>
<path d="M472.255 133.276V130.369C472.255 129.843 471.878 129.632 471.407 129.895L466.288 132.776V127.001C466.288 126.475 465.911 126.264 465.453 126.527L462.826 127.988C462.579 128.145 462.374 128.356 462.226 128.605C462.079 128.855 461.994 129.134 461.978 129.422V135.184L456.859 138.065C456.612 138.222 456.406 138.434 456.259 138.683C456.111 138.932 456.026 139.212 456.01 139.499V142.42C456.01 142.946 456.387 143.157 456.859 142.894L461.978 140.012V145.775C461.978 146.301 462.355 146.525 462.826 146.261L465.413 144.801C465.656 144.642 465.859 144.43 466.004 144.181C466.149 143.932 466.232 143.653 466.248 143.367V137.605L471.366 134.71C471.621 134.558 471.834 134.348 471.989 134.099C472.144 133.849 472.235 133.567 472.255 133.276Z" fill="#034C95"/>
<path d="M468.928 166.877V258.102C468.892 258.782 468.691 259.444 468.342 260.034C467.993 260.624 467.506 261.125 466.921 261.496L399.408 299.57C399.208 299.718 398.97 299.809 398.72 299.832C398.47 299.856 398.219 299.81 397.994 299.701L394.222 297.583C394.006 297.442 393.836 297.243 393.733 297.009C393.63 296.776 393.599 296.518 393.643 296.268V186.125C393.678 185.445 393.877 184.784 394.223 184.194C394.569 183.604 395.054 183.103 395.636 182.73L446.339 154.168L468.928 166.877Z" fill="#F0F0F0"/>
<path d="M401.172 188.111L394.127 184.322C393.815 184.876 393.64 185.493 393.615 186.125V296.254C393.572 296.505 393.603 296.762 393.706 296.996C393.809 297.229 393.978 297.429 394.195 297.57L397.966 299.688C398.191 299.797 398.443 299.843 398.693 299.819C398.943 299.796 399.181 299.705 399.381 299.557L401.145 298.57L401.172 188.111Z" fill="#E0E0E0"/>
<path d="M468.928 166.877V258.102C468.889 258.781 468.686 259.442 468.338 260.032C467.989 260.621 467.504 261.123 466.921 261.496L399.408 299.57C398.303 300.188 397.401 299.688 397.401 298.438V188.256C397.438 187.576 397.64 186.914 397.988 186.324C398.337 185.734 398.824 185.233 399.408 184.862L438.809 162.628L450.11 156.26L468.928 166.877Z" fill="#FAFAFA"/>
<path d="M450.11 157.379L467.932 167.443V258.102C467.896 258.611 467.741 259.106 467.479 259.548C467.218 259.991 466.857 260.369 466.423 260.654L398.91 298.728C398.787 298.801 398.649 298.846 398.506 298.859C398.506 298.859 398.411 298.715 398.411 298.438V188.256C398.447 187.748 398.6 187.254 398.859 186.812C399.118 186.37 399.476 185.991 399.906 185.704L439.307 163.47L450.083 157.379H450.11ZM450.083 156.26L438.782 162.628L399.381 184.862C398.797 185.233 398.31 185.734 397.962 186.324C397.613 186.914 397.412 187.576 397.374 188.256V298.386C397.374 299.267 397.832 299.78 398.492 299.78C398.807 299.772 399.114 299.681 399.381 299.517L466.867 261.443C467.45 261.07 467.935 260.569 468.284 259.979C468.633 259.39 468.835 258.729 468.874 258.049V166.877L450.016 156.26H450.083Z" fill="#E0E0E0"/>
<path d="M459.054 167.601C459.781 167.601 460.293 168.166 460.293 169.153V246.774C460.251 247.527 460.027 248.26 459.641 248.914C459.255 249.568 458.717 250.123 458.071 250.537L408.231 278.612C407.934 278.802 407.588 278.906 407.234 278.914C406.506 278.914 406.008 278.349 406.008 277.362V199.741C406.051 198.988 406.274 198.255 406.66 197.601C407.046 196.947 407.584 196.392 408.231 195.978L441.906 176.994L458.071 167.903C458.367 167.725 458.706 167.625 459.054 167.614V167.601ZM459.054 166.706C458.54 166.72 458.038 166.865 457.599 167.127L441.435 176.205L407.759 195.202C406.971 195.693 406.315 196.362 405.847 197.151C405.378 197.941 405.11 198.829 405.065 199.741V277.362C405.03 277.664 405.058 277.97 405.149 278.26C405.24 278.551 405.392 278.82 405.594 279.051C405.796 279.282 406.045 279.469 406.325 279.602C406.605 279.735 406.909 279.81 407.22 279.822C407.739 279.81 408.245 279.665 408.689 279.401L458.529 251.326C459.317 250.832 459.973 250.161 460.441 249.369C460.91 248.577 461.178 247.688 461.223 246.774V169.153C461.26 168.851 461.233 168.544 461.143 168.253C461.053 167.961 460.901 167.692 460.699 167.46C460.496 167.229 460.247 167.041 459.966 166.909C459.685 166.777 459.379 166.703 459.067 166.693L459.054 166.706Z" fill="#034C95"/>
<path d="M450.11 175.218V156.26L468.968 166.877L452.157 176.35C451.012 176.981 450.11 176.534 450.11 175.218Z" fill="#E0E0E0"/>
<path d="M416.205 225.356L450.137 206.03C450.88 205.575 451.504 204.956 451.958 204.222C452.412 203.489 452.683 202.661 452.75 201.807C452.75 200.281 451.578 199.702 450.137 200.491L416.192 219.804C415.448 220.261 414.825 220.883 414.373 221.619C413.921 222.355 413.654 223.185 413.592 224.04C413.592 225.593 414.764 226.172 416.205 225.356ZM450.137 212.726L416.192 232.053C415.448 232.509 414.825 233.131 414.373 233.867C413.921 234.603 413.654 235.433 413.592 236.289C413.592 237.802 414.764 238.381 416.205 237.604L450.137 218.278C450.882 217.822 451.507 217.201 451.961 216.465C452.415 215.729 452.685 214.899 452.75 214.042C452.75 212.489 451.578 211.911 450.137 212.726ZM450.137 224.948L416.192 244.275C415.447 244.728 414.824 245.347 414.372 246.081C413.92 246.815 413.653 247.643 413.592 248.498C413.592 250.024 414.764 250.603 416.205 249.813L450.137 230.474C450.883 230.021 451.508 229.403 451.963 228.669C452.417 227.935 452.687 227.106 452.75 226.251C452.75 224.711 451.578 224.133 450.137 224.948Z" fill="#034C95"/>
<path opacity="0.3" d="M416.205 225.356L450.137 206.03C450.88 205.575 451.504 204.956 451.958 204.222C452.412 203.489 452.683 202.661 452.75 201.807C452.75 200.281 451.578 199.702 450.137 200.491L416.192 219.804C415.448 220.261 414.825 220.883 414.373 221.619C413.921 222.355 413.654 223.185 413.592 224.04C413.592 225.593 414.764 226.172 416.205 225.356ZM450.137 212.726L416.192 232.053C415.448 232.509 414.825 233.131 414.373 233.867C413.921 234.603 413.654 235.433 413.592 236.289C413.592 237.802 414.764 238.381 416.205 237.604L450.137 218.278C450.882 217.822 451.507 217.201 451.961 216.465C452.415 215.729 452.685 214.899 452.75 214.042C452.75 212.489 451.578 211.911 450.137 212.726ZM450.137 224.948L416.192 244.275C415.447 244.728 414.824 245.347 414.372 246.081C413.92 246.815 413.653 247.643 413.592 248.498C413.592 250.024 414.764 250.603 416.205 249.813L450.137 230.474C450.883 230.021 451.508 229.403 451.963 228.669C452.417 227.935 452.687 227.106 452.75 226.251C452.75 224.711 451.578 224.133 450.137 224.948Z" fill="white"/>
<path d="M359.536 171.521V262.693C359.497 263.373 359.294 264.034 358.946 264.623C358.597 265.213 358.112 265.714 357.529 266.087L290.016 304.148C289.811 304.291 289.571 304.378 289.32 304.402C289.069 304.425 288.817 304.383 288.588 304.279L284.83 302.161C284.614 302.02 284.444 301.821 284.341 301.587C284.238 301.354 284.207 301.096 284.251 300.846V190.769C284.288 190.09 284.488 189.429 284.834 188.84C285.18 188.25 285.663 187.748 286.244 187.374L336.947 158.786L359.536 171.521Z" fill="#F0F0F0"/>
<path d="M291.753 192.755L284.749 188.966C284.428 189.517 284.248 190.135 284.223 190.769V300.912C284.189 301.163 284.226 301.419 284.331 301.651C284.435 301.883 284.603 302.082 284.816 302.227L288.574 304.345C288.801 304.457 289.055 304.504 289.308 304.481C289.56 304.457 289.801 304.365 290.002 304.214L291.753 303.227V192.755Z" fill="#E0E0E0"/>
<path d="M359.536 171.521V262.693C359.496 263.373 359.294 264.034 358.945 264.623C358.597 265.213 358.111 265.714 357.529 266.087L290.015 304.148C288.911 304.766 288.008 304.266 288.008 303.017V192.9C288.046 192.22 288.247 191.558 288.596 190.968C288.945 190.379 289.431 189.877 290.015 189.506L329.47 167.325L340.758 160.957L359.536 171.521Z" fill="#FAFAFA"/>
<path d="M340.704 162.062L358.539 172.126V262.733C358.5 263.241 358.344 263.735 358.083 264.177C357.822 264.619 357.462 264.998 357.03 265.285L289.517 303.359C289.391 303.434 289.248 303.479 289.1 303.49C289.024 303.363 288.991 303.216 289.005 303.069V192.9C289.041 192.39 289.196 191.896 289.457 191.453C289.719 191.011 290.08 190.633 290.514 190.348L329.915 168.114L340.691 162.023L340.704 162.062ZM340.691 160.904L329.47 167.324L290.07 189.558C289.485 189.93 288.999 190.431 288.65 191.021C288.301 191.611 288.1 192.272 288.062 192.953V303.082C288.062 303.964 288.52 304.477 289.181 304.477C289.496 304.468 289.803 304.377 290.07 304.214L357.583 266.14C358.166 265.767 358.651 265.265 358.999 264.676C359.348 264.086 359.55 263.425 359.59 262.746V171.574L340.731 160.957L340.691 160.904Z" fill="#E0E0E0"/>
<path d="M349.676 172.245C350.403 172.245 350.901 172.81 350.901 173.797V251.418C350.859 252.172 350.635 252.905 350.249 253.558C349.863 254.212 349.325 254.768 348.679 255.181L298.839 283.256C298.54 283.443 298.196 283.547 297.842 283.558C297.114 283.558 296.616 282.993 296.616 282.006V204.385C296.659 203.632 296.882 202.899 297.268 202.245C297.654 201.591 298.192 201.036 298.839 200.622L332.514 181.638L348.679 172.547C348.981 172.37 349.324 172.271 349.676 172.258V172.245ZM349.676 171.35C349.161 171.362 348.659 171.508 348.221 171.771L332.056 180.849L298.381 199.846C297.594 200.338 296.938 201.007 296.47 201.796C296.001 202.586 295.733 203.473 295.687 204.385V282.006C295.651 282.308 295.68 282.614 295.771 282.904C295.862 283.195 296.013 283.464 296.215 283.695C296.418 283.926 296.666 284.113 296.946 284.246C297.226 284.379 297.531 284.454 297.842 284.466C298.356 284.454 298.858 284.309 299.297 284.045L349.137 255.97C349.925 255.476 350.581 254.805 351.049 254.013C351.518 253.221 351.786 252.332 351.831 251.418V173.797C351.866 173.495 351.838 173.189 351.747 172.899C351.656 172.608 351.504 172.339 351.302 172.108C351.1 171.877 350.851 171.69 350.571 171.557C350.291 171.424 349.986 171.349 349.676 171.337V171.35Z" fill="#034C95"/>
<path d="M340.718 179.862V160.904L359.576 171.521L342.765 180.994C341.593 181.625 340.718 181.112 340.718 179.862Z" fill="#E0E0E0"/>
<path d="M306.799 230L340.745 210.74C341.488 210.285 342.112 209.666 342.566 208.932C343.02 208.199 343.291 207.371 343.358 206.517C343.358 204.991 342.186 204.412 340.745 205.201L306.799 224.514C306.054 224.97 305.43 225.591 304.978 226.327C304.526 227.064 304.26 227.894 304.2 228.75C304.2 230.237 305.358 230.816 306.799 230ZM340.745 217.37L306.799 236.697C306.054 237.152 305.43 237.773 304.978 238.51C304.526 239.246 304.26 240.077 304.2 240.933C304.2 242.446 305.358 243.025 306.799 242.249L340.745 222.922C341.49 222.466 342.115 221.845 342.569 221.109C343.023 220.373 343.293 219.543 343.358 218.686C343.358 217.134 342.186 216.568 340.745 217.318V217.37ZM340.745 229.592L306.799 248.892C306.053 249.343 305.428 249.962 304.976 250.696C304.523 251.431 304.257 252.26 304.2 253.116C304.2 254.642 305.358 255.221 306.799 254.431L340.745 235.105C341.491 234.652 342.116 234.034 342.57 233.3C343.025 232.566 343.294 231.737 343.358 230.882C343.358 229.356 342.186 228.777 340.745 229.592Z" fill="#034C95"/>
<path opacity="0.3" d="M306.799 230L340.745 210.74C341.488 210.285 342.112 209.666 342.566 208.932C343.02 208.199 343.291 207.371 343.358 206.517C343.358 204.991 342.186 204.412 340.745 205.201L306.799 224.514C306.054 224.97 305.43 225.591 304.978 226.327C304.526 227.064 304.26 227.894 304.2 228.75C304.2 230.237 305.358 230.816 306.799 230ZM340.745 217.37L306.799 236.697C306.054 237.152 305.43 237.773 304.978 238.51C304.526 239.246 304.26 240.077 304.2 240.933C304.2 242.446 305.358 243.025 306.799 242.249L340.745 222.922C341.49 222.466 342.115 221.845 342.569 221.109C343.023 220.373 343.293 219.543 343.358 218.686C343.358 217.134 342.186 216.568 340.745 217.318V217.37ZM340.745 229.592L306.799 248.892C306.053 249.343 305.428 249.962 304.976 250.696C304.523 251.431 304.257 252.26 304.2 253.116C304.2 254.642 305.358 255.221 306.799 254.431L340.745 235.105C341.491 234.652 342.116 234.034 342.57 233.3C343.025 232.566 343.294 231.737 343.358 230.882C343.358 229.356 342.186 228.777 340.745 229.592Z" fill="white"/>
<path d="M506.631 472.967C506.739 478.677 507.197 486.978 506.631 489.347C506.065 491.715 496.326 494.03 488.702 494.372C481.078 494.714 471.905 493.596 471.352 498.858C470.8 504.121 475.582 507.634 479.084 509.212C485.025 511.909 491.652 511.317 497.485 510.528C503.318 509.739 506.429 510.291 512.585 511.765C518.741 513.238 522.216 512.33 524.843 511.041C528.749 509.133 527.712 502.621 526.338 498.385C524.964 494.149 525.112 490.268 525.624 484.387C526.136 478.506 527.86 469.915 527.86 469.915L506.631 472.967Z" fill="#FFBDA7"/>
<path d="M526.339 498.28C526.339 498.28 526.339 500.082 522.297 500.911C518.256 501.74 511.683 501.516 507.036 501.819C500.071 502.253 494.791 503.029 486.83 501.819C479.826 500.74 480.095 495.319 486.399 494.451C479.341 494.57 471.838 494.096 471.339 498.806C470.787 504.068 475.569 507.581 479.071 509.16C485.012 511.857 491.639 511.265 497.472 510.475C503.304 509.686 506.416 510.238 512.572 511.712C518.728 513.185 522.203 512.278 524.83 510.988C528.75 509.028 527.712 502.516 526.339 498.28Z" fill="#455A64"/>
<path d="M579.021 458.798C582.294 463.429 587.682 472.191 588.45 474.362C589.218 476.533 589.878 484.703 588.45 487.11C586.402 488.57 583.197 489.412 580.462 490.728C576.502 492.636 575.653 495.806 578.239 498.227C581.836 501.608 587.669 502.003 591.171 501.805C596.29 501.042 596.64 495.451 597.367 490.491C598.095 485.531 597.273 475.809 601.126 469.823C604.978 463.837 611.781 463.245 612.67 465.271C612.252 462.258 610.541 462.179 606.864 460.14C603.186 458.101 599.967 458.167 597.933 453.444C595.508 447.852 593.313 441.182 593.313 441.182L579.021 458.798Z" fill="#FFBDA7"/>
<path d="M586.214 501.898C589.878 502.49 592.464 502.49 598.97 499.372C604.601 496.675 606.029 495.53 606.891 494.044C608.238 491.676 606.783 485.834 607.955 480.809C608.826 477.267 610.072 473.823 611.673 470.534C612.952 467.482 612.858 466.166 612.656 465.271C612.212 463.364 608.238 463.127 604.453 465.271C600.668 467.416 598.216 471.507 596.963 481.256C595.71 491.005 597.637 501.661 586.214 501.898Z" fill="#263238"/>
<path d="M612.656 465.271C612.225 462.258 611.161 461.811 607.483 459.785C606.136 459.022 604.789 458.469 603.51 457.864C599.94 457.206 594.323 459.943 594.08 467.258C593.838 474.572 595.077 483.847 592.828 487.281C590.901 490.215 587.749 490.018 588.477 487.11C583.412 488.926 581.674 488.952 578.819 490.478C575.532 492.241 574.427 496.832 577.472 498.674C581.49 501.347 586.383 502.463 591.198 501.805C596.316 501.042 596.667 495.451 597.394 490.491C598.122 485.531 597.3 475.809 601.152 469.823C605.005 463.837 611.767 463.337 612.656 465.271Z" fill="#455A64"/>
<path d="M580.018 461.706C580.018 461.706 561.442 435.065 551.528 417.804C544.187 405.042 543.527 402.569 541.722 394.215C537.856 376.283 536.953 372.073 536.953 372.073L531.188 408.305C532.117 412.252 533.976 420.027 534.043 424.606C533.994 433.55 533.251 442.478 531.821 451.312C530.478 461.27 528.594 471.151 526.177 480.914C524.735 481.887 520.546 482.085 516.909 481.966C513.366 481.755 509.864 481.115 506.483 480.059C506.483 480.059 503.452 437.367 502.752 425.619C501.903 411.528 501.607 405.99 501.149 398.254C500.435 385.927 498.724 368.087 499.209 345.432C500.179 300.386 510.457 279.823 510.457 279.823L562.506 272.758C566.83 287.94 575.815 289.703 576.758 310.424C576.973 315.12 574.427 324.461 574.333 331.75C574.064 355.431 571.895 392.61 571.895 392.61C577.606 397.754 581.796 402.411 585.743 414.344C588.14 421.593 593.461 439.959 595.711 447.405C589.124 447.405 579.91 458.798 580.018 461.706Z" fill="#455A64"/>
<path d="M527.349 305.793L528.696 305.582C529.908 313.752 531.902 323.014 532.993 323.737C534.905 325.053 541.991 326.053 543.58 325.658C545.17 325.264 546.584 324.001 549.413 320.251C551.393 317.62 551.178 315.975 550.76 312.357C550.585 311.042 550.383 309.489 550.262 307.569L551.609 307.477C551.73 309.345 551.918 310.858 552.094 312.186C552.565 315.804 552.848 317.975 550.518 321.067C547.46 325.119 545.924 326.513 543.904 326.987C543.613 327.056 543.314 327.091 543.015 327.092C540.213 327.224 534.124 326.132 532.238 324.882C530.177 323.488 527.968 309.924 527.349 305.793Z" fill="#37474F"/>
<path d="M506.039 304.596L507.386 304.977C503.439 318.804 504.301 331.474 511.36 335.328C512.707 325.988 514.458 316.331 516.95 306.003L518.297 306.319C510.215 339.591 509.299 365.798 510.336 397.28C511.117 421.277 512.68 462.508 513.407 481.651L511.993 481.414C511.265 462.166 509.716 421.198 508.935 397.333C508.235 376.007 508.464 357.102 511.158 336.815C503.075 332.776 501.809 319.423 506.039 304.596Z" fill="#37474F"/>
<path d="M576.138 317.002C575.273 317.814 574.226 318.417 573.081 318.765C570.885 318.857 567.248 315.805 566.211 313.502C565.723 312.154 565.429 310.746 565.335 309.319C565.123 307.23 564.736 305.162 564.177 303.135L565.524 302.741C566.107 304.84 566.512 306.983 566.736 309.148C566.814 310.439 567.072 311.714 567.504 312.937C568.379 314.884 571.545 317.436 573.027 317.37C574.357 316.727 575.542 315.833 576.516 314.739C576.381 315.371 576.246 316.305 576.138 317.002Z" fill="#37474F"/>
<path d="M584.355 454.536C584.678 454.167 585.015 453.812 585.352 453.457C576.461 438.314 557.374 405.2 555.717 397.162C553.535 386.874 549.777 352.366 549.615 333.802H548.268C548.416 352.431 552.188 387.098 554.384 397.438C556.094 405.858 575.532 439.512 584.355 454.536Z" fill="#37474F"/>
<path d="M557.118 300.386C560.647 305.872 562.789 315.502 558.236 326.053L556.956 325.514C561.294 315.449 559.273 306.319 555.933 301.136L557.118 300.386Z" fill="#37474F"/>
<path d="M536.913 372.073L542.57 334.092C542.57 334.092 557.212 332.092 559.233 318.673C559.583 326.567 556.337 333.473 547.244 337.091L539.97 372.152L541.681 394.149L536.913 372.073Z" fill="#37474F"/>
<path d="M566.898 211.397C576.327 213.595 581.513 216.16 585.406 228.737C589.097 240.578 595.28 260.746 596.91 269.271C597.691 273.428 598.055 277.388 592.141 279.796C578.779 285.322 565.888 289.189 565.888 289.189L560.675 273.784L574.953 266.811L571.397 255.576L566.898 211.397Z" fill="#FFBDA7"/>
<path d="M574.953 266.837C576.163 269.507 578.235 271.716 580.853 273.126C577.364 273.534 573.97 269.982 573.081 267.745L574.953 266.837Z" fill="#F0997A"/>
<path d="M567.571 211.292C571.801 212.042 577.593 212.911 581.823 219.186C586.053 225.462 592.922 247.34 592.922 247.34C592.922 247.34 589.568 251.419 580.799 253.708C572.03 255.997 568.339 254.05 568.339 254.05L561.792 233.105L567.571 211.292Z" fill="#034C95"/>
<path opacity="0.2" d="M567.571 211.292C571.801 212.042 577.593 212.911 581.823 219.186C586.053 225.462 592.922 247.34 592.922 247.34C592.922 247.34 589.568 251.419 580.799 253.708C572.03 255.997 568.339 254.05 568.339 254.05L561.792 233.105L567.571 211.292Z" fill="black"/>
<path d="M520.883 165.338C519.226 163.18 519.469 159.944 520.654 157.444C521.84 154.945 524.13 152.511 530.474 149.84C538.018 146.669 558.6 144.578 566.494 158.023C567.666 160.036 546.154 195.597 546.571 203.162C541.857 197.557 526.366 177.968 526.366 177.968C522.5 176.034 520.183 174.455 519.631 170.719C519.465 168.842 519.902 166.961 520.883 165.338Z" fill="#263238"/>
<path d="M523.133 175.771C523.133 175.771 517.125 183.994 517.664 184.73C518.848 185.788 520.123 186.743 521.476 187.585L523.133 175.771Z" fill="#F0997A"/>
<path d="M530.972 160.549C527.241 161.97 523.901 164.496 522.217 172.14C521.772 174.14 523.187 177.021 522.217 179.665C518.176 190.979 521.274 200.86 523.416 203.149C524.857 204.688 532.926 205.885 537.263 205.017C542.651 203.938 554.64 199.649 560.755 191.861C567.935 182.744 570.387 169.982 563.53 164.325C553.939 156.392 534.96 159.036 530.972 160.549Z" fill="#FFBDA7"/>
<path d="M556.836 198.176L557.509 209.674C564.056 213.397 550.532 218.265 536.186 212.305L535.148 201.938L556.836 198.176Z" fill="#FFBDA7"/>
<path d="M535.633 206.635C535.889 209.266 536.159 213.213 531.942 214.371C527.969 215.397 521.557 216.042 515.307 218.318C515.307 218.318 537.829 221.791 549.656 219.883C561.483 217.976 563.53 210.556 563.53 210.556C559.274 209.99 557.496 209.24 557.334 206.609L535.633 206.635Z" fill="#FFBDA7"/>
<path d="M523.86 203.465C525.679 204.622 529.787 205.662 535.499 205.293L535.243 202.412C533.447 202.973 531.603 203.373 529.733 203.609C527.779 203.848 525.8 203.799 523.86 203.465Z" fill="#F0997A"/>
<path d="M525.328 164.325C524.763 169.324 527.874 171.14 530.097 172.284C529.089 174.072 528.621 176.102 528.75 178.139C529.073 180.77 529.922 182.875 532.427 183.901C533.949 184.52 534.461 183.901 535.121 182.717C536.037 181.046 537.223 178.481 540.967 179.244C545.264 180.125 545.951 186.585 543.109 190.585C542.558 191.434 541.805 192.139 540.913 192.641C540.022 193.143 539.019 193.426 537.99 193.466C537.431 193.412 536.89 193.245 536.4 192.976C535.911 192.706 535.484 192.34 535.148 191.9C535.148 191.9 535.027 197.478 542.112 201.294C542.112 201.294 549.211 205.872 556.93 204.201C560.621 200.748 564.119 197.103 567.41 193.282C576.233 182.546 578.078 162.167 564.715 157.51C564.082 157.3 553.118 154.59 547.015 155.445C528.265 158.115 525.423 163.457 525.328 164.325Z" fill="#263238"/>
<path d="M566.548 158.115C568.649 158.115 575.021 161.286 574.994 175.1C574.994 184.441 572.69 196.926 569.606 202.728C561.416 211.542 537.708 213.252 527.228 209.529C533.963 206.49 535.229 198.255 535.202 191.874C538.301 196.452 543.972 197.544 550.841 194.176C557.711 190.808 566.548 158.115 566.548 158.115Z" fill="#263238"/>
<path d="M576.084 222.83C574.118 213.503 568.945 211.477 566.655 211.069L560.701 210.056C560.701 211.161 561.51 213.805 550.949 215.094C544.214 215.923 532.427 214.226 532.427 214.226C527.918 214.939 523.455 215.914 519.065 217.147C512.208 219.054 508.598 226.869 504.113 237.197C500.583 245.353 501.904 253.655 508.221 259.733C508.414 264.823 508.288 269.919 507.844 274.994C505.181 284.863 503.592 294.979 503.102 305.174C503.102 305.174 507.143 308.858 539.243 308.161C564.109 307.608 575.613 296.754 575.613 296.754C574.899 293.136 572.299 285.361 567.598 273.284C568.164 261.47 580.328 243.025 576.084 222.83Z" fill="#034C95"/>
<path d="M464.241 247.327C464.241 247.327 428.895 240.46 426.874 239.039C425.163 237.828 424.611 235.842 423.749 234.066C422.73 232.047 421.414 230.185 419.842 228.54C418.846 227.435 417.633 226.488 416.69 225.343C415.748 224.199 415.465 222.949 414.616 221.87C413.767 220.791 412.636 221.567 412.097 222.607C411.51 224.128 411.554 225.813 412.218 227.303C412.474 227.961 412.703 228.619 412.973 229.29C413.284 229.877 413.532 230.495 413.713 231.132C413.802 231.46 413.773 231.808 413.633 232.119C413.256 232.737 412.057 232.329 411.531 232.119C407.965 230.715 404.729 228.615 402.021 225.948C400.863 224.804 399.947 223.514 398.708 222.449C397.571 221.442 396.286 220.608 394.895 219.975C393.967 219.521 392.924 219.338 391.892 219.449C390.369 220.002 392.067 222.383 392.471 223.186C392.97 224.065 393.213 225.062 393.171 226.067C393.115 226.658 393.178 227.254 393.359 227.82C393.539 228.387 393.833 228.913 394.222 229.369C395.109 230.338 395.77 231.482 396.162 232.724C396.188 233.162 396.188 233.601 396.162 234.039C396.295 235.402 396.86 236.689 397.778 237.723C398.671 238.667 399.179 239.898 399.206 241.183C399.516 244.104 402.641 246.248 404.971 247.643C407.675 249.209 410.56 250.455 413.565 251.353C415.182 251.866 416.744 252.511 418.361 252.984C419.977 253.458 421.297 253.681 422.712 254.208C426.066 255.457 452.09 265.14 462.463 267.943C467.581 269.324 468.955 270.574 476.162 266.903C489.134 260.325 501.836 255.76 509.299 251.3C519.523 245.183 523.86 241.762 525.261 235.25C528.481 220.147 518.297 217.357 518.297 217.357C514.566 218.292 512.639 219.133 501.284 225.554C489.161 232.421 464.241 247.327 464.241 247.327Z" fill="#FFBDA7"/>
<path d="M518.297 217.384C512.033 218.081 508.774 219.765 501.823 224.041C494.872 228.317 483.032 235.802 483.032 235.802C483.827 242.596 486.71 248.994 491.303 254.155C496.879 260.378 501.405 259.865 501.405 259.865C501.405 259.865 520.089 246.446 523.86 241.275C527.632 236.105 530.434 220.607 518.297 217.384Z" fill="#034C95"/>
<path opacity="0.2" d="M518.297 217.384C512.033 218.081 508.774 219.765 501.823 224.041C494.872 228.317 483.032 235.802 483.032 235.802C483.827 242.596 486.71 248.994 491.303 254.155C496.879 260.378 501.405 259.865 501.405 259.865C501.405 259.865 520.089 246.446 523.86 241.275C527.632 236.105 530.434 220.607 518.297 217.384Z" fill="black"/>
<path d="M549.656 124.488L546.127 118.028L548.969 110.043V105.162L540.294 110.043V114.937L544.025 121.238C544.079 121.338 544.171 121.414 544.281 121.449L549.656 124.488Z" fill="#E82E5D"/>
<path opacity="0.2" d="M549.656 124.488L546.127 118.028L548.969 110.043V105.162L540.294 110.043V114.937L544.025 121.238C544.079 121.338 544.171 121.414 544.281 121.449L549.656 124.488Z" fill="black"/>
<path d="M570.347 66.3119C570.3 65.4309 570.04 64.5732 569.588 63.8094C569.136 63.0455 568.505 62.3972 567.747 61.9178L565.632 60.76C564.826 60.3643 563.935 60.1582 563.033 60.1582C562.13 60.1582 561.239 60.3643 560.433 60.76L527.996 79.047C527.24 79.5281 526.61 80.1767 526.158 80.9402C525.706 81.7037 525.445 82.5606 525.396 83.4412V118.305C525.443 119.186 525.703 120.044 526.155 120.807C526.607 121.571 527.238 122.22 527.996 122.699L530.178 123.909C530.983 124.311 531.874 124.521 532.778 124.521C533.682 124.521 534.573 124.311 535.378 123.909L545.804 118.029L549.522 124.317C549.577 124.405 549.656 124.476 549.751 124.522C549.845 124.568 549.951 124.587 550.056 124.578C550.161 124.568 550.262 124.53 550.346 124.468C550.43 124.405 550.494 124.321 550.532 124.225L554.425 113.121L567.788 105.57C568.546 105.09 569.177 104.442 569.629 103.678C570.081 102.914 570.341 102.057 570.387 101.176L570.347 66.3119Z" fill="#E82E5D"/>
<path d="M562.062 90.177V86.2302C562.062 85.5197 561.537 85.2303 560.904 85.5855L553.953 89.5324V81.6387C553.953 80.9283 553.441 80.6257 552.808 80.994L549.292 82.9675C548.958 83.1816 548.681 83.4694 548.482 83.8076C548.283 84.1458 548.168 84.525 548.147 84.9146V92.8082L541.197 96.7551C540.858 96.9653 540.576 97.2519 540.374 97.5907C540.173 97.9296 540.057 98.3107 540.038 98.7022V102.649C540.038 103.359 540.55 103.649 541.197 103.294L548.147 99.3468V107.24C548.147 107.964 548.659 108.253 549.292 107.885L552.808 105.912C553.142 105.698 553.419 105.41 553.618 105.072C553.817 104.733 553.932 104.354 553.953 103.965V96.0709L560.904 92.1241C561.24 91.9115 561.52 91.6243 561.721 91.286C561.923 90.9477 562.039 90.5677 562.062 90.177Z" fill="#FAFAFA"/>
<path opacity="0.2" d="M525.396 118.305C525.442 119.186 525.702 120.043 526.154 120.807C526.606 121.571 527.237 122.219 527.996 122.699L530.178 123.909C530.91 124.272 531.712 124.479 532.532 124.515C533.352 124.551 534.17 124.416 534.933 124.12C533.707 124.567 532.778 123.896 532.778 122.449V87.5852C532.804 86.7024 533.064 85.8413 533.532 85.0856L526.137 80.9414C525.675 81.6997 525.415 82.5593 525.382 83.4411L525.396 118.305Z" fill="black"/>
<path opacity="0.3" d="M570.265 65.5883C569.956 64.5095 568.918 64.1675 567.747 64.8384L535.297 83.1254C534.528 83.5875 533.901 84.2415 533.478 85.0199L526.137 80.9547C526.565 80.1757 527.197 79.5219 527.969 79.0602L560.432 60.76C561.239 60.3643 562.129 60.1582 563.032 60.1582C563.935 60.1582 564.825 60.3643 565.632 60.76L567.747 61.9573C568.395 62.3654 568.953 62.8975 569.386 63.5215C569.819 64.1455 570.118 64.8485 570.265 65.5883Z" fill="white"/>
</svg>
