<svg width="632" height="585" viewBox="0 0 632 585" fill="none" xmlns="http://www.w3.org/2000/svg">
<path d="M316 584.64C490.522 584.64 632 512.408 632 423.305C632 334.202 490.522 261.97 316 261.97C141.478 261.97 0 334.202 0 423.305C0 512.408 141.478 584.64 316 584.64Z" fill="#E6EEF6"/>
<path d="M87.4832 463.476C112.948 463.476 133.592 452.937 133.592 439.937C133.592 426.937 112.948 416.399 87.4832 416.399C62.0181 416.399 41.3745 426.937 41.3745 439.937C41.3745 452.937 62.0181 463.476 87.4832 463.476Z" fill="#E0E0E0"/>
<path d="M277.843 388.398L150.828 453.248L58.4829 405.745L185.498 340.908L277.843 388.398Z" fill="#E0E0E0"/>
<path d="M484.829 521.57L172.585 362.153C171.934 361.824 171.393 361.348 171.017 360.775C170.64 360.202 170.442 359.55 170.442 358.887C170.442 358.224 170.64 357.573 171.017 357C171.393 356.426 171.934 355.951 172.585 355.622L222.989 329.891C225.043 328.837 227.375 328.283 229.75 328.283C232.124 328.283 234.457 328.837 236.511 329.891L548.755 489.295C549.409 489.623 549.953 490.099 550.332 490.674C550.711 491.248 550.91 491.902 550.91 492.567C550.91 493.232 550.711 493.885 550.332 494.46C549.953 495.035 549.409 495.51 548.755 495.838L498.365 521.57C496.306 522.617 493.972 523.168 491.597 523.168C489.222 523.168 486.888 522.617 484.829 521.57Z" fill="#E0E0E0"/>
<path d="M533.546 439.198L551.093 448.21C551.093 448.21 542.235 423.217 547.153 398.075C549.01 388.574 552.908 383.861 554.24 381.329C555.573 378.798 566.203 363.105 556.891 355.886C547.578 348.666 525.707 363.03 526.7 401.759C527.183 414.445 529.483 427.025 533.546 439.198Z" fill="#FF5C85"/>
<path opacity="0.3" d="M533.546 439.198L551.093 448.21C551.093 448.21 542.235 423.217 547.153 398.075C549.01 388.574 552.908 383.861 554.24 381.329C555.573 378.798 566.203 363.105 556.891 355.886C547.578 348.666 525.707 363.03 526.7 401.759C527.183 414.445 529.483 427.025 533.546 439.198Z" fill="black"/>
<path d="M541.696 443.948C541.567 443.948 541.441 443.913 541.334 443.848C541.228 443.783 541.146 443.691 541.101 443.585C541.03 443.422 534.41 427.153 534.75 401.045C535.091 374.937 550.682 360.824 550.838 360.686C550.959 360.58 551.122 360.52 551.292 360.52C551.462 360.52 551.625 360.58 551.745 360.686C551.866 360.793 551.933 360.937 551.933 361.087C551.933 361.238 551.866 361.382 551.745 361.488C551.589 361.626 536.366 375.275 536.026 401.057C535.686 426.84 542.234 443.033 542.291 443.196C542.321 443.264 542.334 443.337 542.332 443.41C542.329 443.483 542.31 443.555 542.276 443.621C542.242 443.688 542.193 443.748 542.132 443.797C542.071 443.847 542 443.885 541.923 443.911C541.85 443.935 541.773 443.948 541.696 443.948Z" fill="white"/>
<path d="M538.535 441.529L567.536 456.57C567.536 456.57 580.803 454.84 579.796 443.798C578.79 432.755 573.404 430.136 580.122 425.285C586.841 420.435 588.627 420.109 588.244 415.346C587.862 410.583 584.304 408.515 582.575 406.572C580.845 404.629 576.125 400.731 579.456 394.991C582.787 389.25 587.337 383.711 580.604 381.078C576.593 379.512 569.846 381.48 565.367 385.678C560.888 389.877 557.217 392.898 552.979 393.875C548.741 394.853 539.896 394.928 540.222 401.396C540.548 407.863 542.419 410.082 540.647 412.952C537.245 418.467 522.944 421.324 538.535 441.529Z" fill="#FF5C85"/>
<path d="M550.286 448.235C550.127 448.233 549.974 448.179 549.857 448.085C549.739 447.99 549.665 447.861 549.648 447.721C549.648 447.332 546.473 409.18 576.451 384.124C576.509 384.072 576.579 384.03 576.655 384.001C576.732 383.973 576.815 383.958 576.898 383.958C576.981 383.958 577.063 383.973 577.14 384.001C577.217 384.03 577.286 384.072 577.344 384.124C577.462 384.232 577.528 384.376 577.528 384.526C577.528 384.675 577.462 384.819 577.344 384.927C547.819 409.606 550.909 447.232 550.952 447.596C550.964 447.745 550.91 447.892 550.802 448.006C550.693 448.121 550.539 448.194 550.371 448.21L550.286 448.235Z" fill="white"/>
<path d="M555.544 415.472C555.385 415.472 555.23 415.42 555.112 415.324C554.994 415.229 554.921 415.098 554.906 414.958C554.661 412.008 553.743 409.133 552.208 406.505C550.674 403.877 548.554 401.551 545.977 399.666C545.909 399.623 545.851 399.568 545.807 399.505C545.763 399.441 545.733 399.371 545.72 399.298C545.707 399.224 545.71 399.149 545.73 399.077C545.75 399.005 545.785 398.937 545.835 398.877C545.883 398.817 545.944 398.766 546.014 398.727C546.084 398.689 546.163 398.663 546.245 398.651C546.326 398.639 546.41 398.642 546.491 398.66C546.571 398.677 546.647 398.708 546.714 398.751C549.465 400.722 551.723 403.176 553.343 405.96C554.964 408.744 555.911 411.795 556.125 414.92C556.133 415.069 556.076 415.215 555.965 415.327C555.854 415.439 555.698 415.509 555.53 415.522L555.544 415.472Z" fill="white"/>
<path d="M553.347 422.002C553.269 422.003 553.191 421.99 553.118 421.964C553.045 421.938 552.978 421.9 552.922 421.851C552.863 421.8 552.815 421.738 552.783 421.671C552.751 421.603 552.734 421.53 552.734 421.456C552.734 421.383 552.751 421.31 552.783 421.242C552.815 421.174 552.863 421.113 552.922 421.062C553.234 420.761 560.76 413.541 578.138 415.697C578.305 415.716 578.457 415.792 578.56 415.91C578.664 416.027 578.711 416.176 578.691 416.324C578.666 416.473 578.577 416.607 578.442 416.698C578.307 416.789 578.137 416.831 577.968 416.813C561.299 414.782 553.943 421.738 553.872 421.826C553.806 421.89 553.724 421.938 553.633 421.969C553.542 421.999 553.444 422.011 553.347 422.002Z" fill="white"/>
<path d="M506.02 326.394L465.552 305.437L489.648 334.741L506.02 326.394Z" fill="#3575B6"/>
<path opacity="0.6" d="M506.02 326.394L465.552 305.437L489.648 334.741L506.02 326.394Z" fill="black"/>
<path d="M481.966 403.953L245.129 283.027C244.112 282.509 243.268 281.764 242.681 280.866C242.094 279.969 241.784 278.95 241.784 277.913V134.915C241.785 133.878 242.094 132.859 242.68 131.961C243.266 131.063 244.109 130.317 245.124 129.798C246.139 129.279 247.29 129.005 248.463 129.003C249.635 129.001 250.788 129.272 251.805 129.788L488.67 250.714C489.687 251.235 490.531 251.982 491.118 252.882C491.705 253.782 492.014 254.802 492.015 255.841V398.839C492.015 399.878 491.705 400.899 491.116 401.799C490.527 402.699 489.681 403.446 488.662 403.964C487.643 404.482 486.488 404.754 485.312 404.752C484.137 404.75 482.982 404.475 481.966 403.953Z" fill="#E0E0E0"/>
<path d="M489.648 334.741L506.019 326.394V495.6C506.021 497.125 505.567 498.624 504.704 499.945C503.84 501.265 502.597 502.361 501.101 503.12L484.928 511.405L489.648 334.741Z" fill="#3575B6"/>
<path opacity="0.3" d="M489.648 334.741L506.019 326.394V495.6C506.021 497.125 505.567 498.624 504.704 499.945C503.84 501.265 502.597 502.361 501.101 503.12L484.928 511.405L489.648 334.741Z" fill="black"/>
<path d="M471.222 409.305L234.356 288.378C233.343 287.855 232.503 287.107 231.919 286.208C231.334 285.308 231.026 284.289 231.025 283.252V140.216C231.024 139.179 231.333 138.16 231.919 137.261C232.505 136.363 233.349 135.617 234.365 135.098C235.381 134.58 236.533 134.307 237.706 134.308C238.879 134.309 240.031 134.583 241.047 135.103L477.912 256.029C478.928 256.546 479.773 257.291 480.36 258.189C480.947 259.087 481.257 260.105 481.257 261.143V404.178C481.258 405.217 480.949 406.237 480.362 407.137C479.775 408.037 478.93 408.784 477.913 409.304C476.896 409.823 475.742 410.097 474.568 410.097C473.393 410.097 472.239 409.824 471.222 409.305Z" fill="#EBEBEB"/>
<path d="M460.463 414.894L223.612 293.981C222.596 293.46 221.752 292.713 221.164 291.813C220.577 290.914 220.268 289.893 220.267 288.855V145.857C220.266 144.819 220.574 143.8 221.16 142.902C221.747 142.003 222.59 141.257 223.606 140.739C224.622 140.22 225.775 139.948 226.948 139.948C228.121 139.949 229.273 140.223 230.288 140.743L467.154 261.669C468.174 262.188 469.021 262.937 469.609 263.84C470.196 264.742 470.503 265.766 470.499 266.808V409.781C470.497 410.818 470.186 411.837 469.598 412.735C469.01 413.633 468.166 414.379 467.149 414.897C466.132 415.415 464.979 415.688 463.806 415.687C462.632 415.687 461.48 415.413 460.463 414.894Z" fill="#FAFAFA"/>
<path d="M186.929 143.977V354.169C186.929 357.152 187.817 360.082 189.504 362.665C191.191 365.248 193.617 367.393 196.54 368.883L475.772 511.418C477.183 512.136 478.782 512.514 480.411 512.514C482.039 512.513 483.639 512.134 485.049 511.414C486.459 510.694 487.63 509.659 488.445 508.412C489.26 507.165 489.689 505.751 489.691 504.311V334.741L342.421 259.538L316.978 207.648C312.229 197.957 304.079 189.876 293.732 184.599L200.537 136.97C199.153 136.264 197.582 135.893 195.984 135.896C194.386 135.898 192.817 136.274 191.436 136.985C190.055 137.696 188.911 138.717 188.119 139.945C187.328 141.173 186.918 142.564 186.929 143.977Z" fill="#3575B6"/>
<path opacity="0.2" d="M186.929 143.977V354.169C186.929 357.152 187.817 360.082 189.504 362.665C191.191 365.248 193.617 367.393 196.54 368.883L475.772 511.418C477.183 512.136 478.782 512.514 480.411 512.514C482.039 512.513 483.639 512.134 485.049 511.414C486.459 510.694 487.63 509.659 488.445 508.412C489.26 507.165 489.689 505.751 489.691 504.311V334.741L342.421 259.538L316.978 207.648C312.229 197.957 304.079 189.876 293.732 184.599L200.537 136.97C199.153 136.264 197.582 135.893 195.984 135.896C194.386 135.898 192.817 136.274 191.436 136.985C190.055 137.696 188.911 138.717 188.119 139.945C187.328 141.173 186.918 142.564 186.929 143.977Z" fill="black"/>
<path d="M408.217 373.345C407.438 372.944 406.658 372.593 405.893 372.28C405.298 356.111 392.541 336.997 376.949 329.026C371.691 326.331 366.758 325.265 362.506 325.591C356.552 308.52 342.874 291.75 326.943 283.578C306.617 273.2 289.948 280.683 288.332 300.185C287.354 299.584 286.362 299.02 285.37 298.506C269.934 290.635 257.432 297.014 257.432 312.769C257.432 328.524 269.934 347.688 285.37 355.56L408.26 418.304C420.436 424.571 430.301 419.482 430.301 407.023C430.301 394.565 420.393 379.499 408.217 373.345Z" fill="#3575B6"/>
<path opacity="0.4" d="M408.217 373.345C407.438 372.944 406.658 372.593 405.893 372.28C405.298 356.111 392.541 336.997 376.949 329.026C371.691 326.331 366.758 325.265 362.506 325.591C356.552 308.52 342.874 291.75 326.943 283.578C306.617 273.2 289.948 280.683 288.332 300.185C287.354 299.584 286.362 299.02 285.37 298.506C269.934 290.635 257.432 297.014 257.432 312.769C257.432 328.524 269.934 347.688 285.37 355.56L408.26 418.304C420.436 424.571 430.301 419.482 430.301 407.023C430.301 394.565 420.393 379.499 408.217 373.345Z" fill="white"/>
<path d="M303.512 371.879L332.47 418.567L363.412 401.985L351.18 395.881V349.669L318.211 332.874V379.462L303.512 371.879Z" fill="white"/>
<path d="M220.21 76.8203C189.348 76.8198 159.287 85.5071 134.382 101.624C109.476 117.741 91.0199 140.45 81.6857 166.462L69.9636 160.496C69.6201 160.318 69.2309 160.221 68.8329 160.213C68.4349 160.205 68.0413 160.287 67.6893 160.452C67.3373 160.616 67.0385 160.857 66.8214 161.152C66.6043 161.448 66.4759 161.787 66.4484 162.138C64.3187 182.228 67.5973 202.48 76.016 221.235C80.156 230.543 85.7579 239.29 92.6566 247.217C92.8774 247.464 93.1677 247.655 93.4983 247.771C93.829 247.887 94.1883 247.924 94.5402 247.878C94.892 247.832 95.2241 247.705 95.5031 247.51C95.782 247.315 95.998 247.058 96.1292 246.766C101.238 235.437 108.284 224.869 117.022 215.432C122.674 209.23 129.029 203.556 135.987 198.498C136.378 198.217 136.685 197.855 136.882 197.445C137.079 197.034 137.161 196.588 137.119 196.143C137.077 195.699 136.913 195.27 136.642 194.895C136.371 194.519 136 194.207 135.562 193.986L121.501 186.804C128.996 162.856 145.377 141.831 168.012 127.106C190.648 112.382 218.223 104.813 246.309 105.615C274.395 106.418 301.361 115.545 322.874 131.532C344.387 147.518 359.198 169.434 364.929 193.761C361.664 161.814 345.005 132.102 318.226 110.464C291.448 88.825 256.486 76.8246 220.21 76.8203Z" fill="#3575B6"/>
<path opacity="0.4" d="M220.21 76.8203C189.348 76.8198 159.287 85.5071 134.382 101.624C109.476 117.741 91.0199 140.45 81.6857 166.462L69.9636 160.496C69.6201 160.318 69.2309 160.221 68.8329 160.213C68.4349 160.205 68.0413 160.287 67.6893 160.452C67.3373 160.616 67.0385 160.857 66.8214 161.152C66.6043 161.448 66.4759 161.787 66.4484 162.138C64.3187 182.228 67.5973 202.48 76.016 221.235C80.156 230.543 85.7579 239.29 92.6566 247.217C92.8774 247.464 93.1677 247.655 93.4983 247.771C93.829 247.887 94.1883 247.924 94.5402 247.878C94.892 247.832 95.2241 247.705 95.5031 247.51C95.782 247.315 95.998 247.058 96.1292 246.766C101.238 235.437 108.284 224.869 117.022 215.432C122.674 209.23 129.029 203.556 135.987 198.498C136.378 198.217 136.685 197.855 136.882 197.445C137.079 197.034 137.161 196.588 137.119 196.143C137.077 195.699 136.913 195.27 136.642 194.895C136.371 194.519 136 194.207 135.562 193.986L121.501 186.804C128.996 162.856 145.377 141.831 168.012 127.106C190.648 112.382 218.223 104.813 246.309 105.615C274.395 106.418 301.361 115.545 322.874 131.532C344.387 147.518 359.198 169.434 364.929 193.761C361.664 161.814 345.005 132.102 318.226 110.464C291.448 88.825 256.486 76.8246 220.21 76.8203Z" fill="white"/>
<path d="M499.653 103.438C515.639 95.2763 515.639 68.813 499.654 44.3301C483.669 19.8473 457.751 6.61605 441.765 14.7774C425.779 22.9387 425.779 49.402 441.764 73.8848C457.749 98.3677 483.667 111.599 499.653 103.438Z" fill="#FFC0D0"/>
<path opacity="0.2" d="M499.653 103.438C515.639 95.2763 515.639 68.813 499.654 44.3301C483.669 19.8473 457.751 6.61605 441.765 14.7774C425.779 22.9387 425.779 49.402 441.764 73.8848C457.749 98.3677 483.667 111.599 499.653 103.438Z" fill="black"/>
<path d="M497.247 104.666C513.233 96.5048 513.233 70.0415 497.248 45.5586C481.263 21.0758 455.345 7.84454 439.36 16.0058C423.374 24.1671 423.373 50.6305 439.358 75.1133C455.343 99.5962 481.261 112.827 497.247 104.666Z" fill="#FFC0D0"/>
<path d="M452.073 72.5339L483.582 88.7025C483.966 88.9013 484.402 89.0069 484.847 89.0086C485.292 89.0103 485.729 88.908 486.115 88.712C486.5 88.5161 486.821 88.2334 487.043 87.8928C487.265 87.5521 487.382 87.1656 487.381 86.7722V52.3043C487.373 51.4414 487.107 50.5957 486.609 49.8536C486.111 49.1116 485.399 48.4997 484.546 48.0804L453.036 31.962C452.653 31.7631 452.216 31.6575 451.772 31.6558C451.327 31.6541 450.889 31.7564 450.504 31.9524C450.118 32.1483 449.798 32.431 449.576 32.7716C449.353 33.1123 449.237 33.4988 449.238 33.8922V68.3601C449.255 69.2145 449.526 70.0497 450.024 70.7823C450.521 71.5148 451.228 72.1188 452.073 72.5339Z" fill="#FFC0D0"/>
<path opacity="0.6" d="M452.073 72.5339L483.582 88.7025C483.966 88.9013 484.402 89.0069 484.847 89.0086C485.292 89.0103 485.729 88.908 486.115 88.712C486.5 88.5161 486.821 88.2334 487.043 87.8928C487.265 87.5521 487.382 87.1656 487.381 86.7722V52.3043C487.373 51.4414 487.107 50.5957 486.609 49.8536C486.111 49.1116 485.399 48.4997 484.546 48.0804L453.036 31.962C452.653 31.7631 452.216 31.6575 451.772 31.6558C451.327 31.6541 450.889 31.7564 450.504 31.9524C450.118 32.1483 449.798 32.431 449.576 32.7716C449.353 33.1123 449.237 33.4988 449.238 33.8922V68.3601C449.255 69.2145 449.526 70.0497 450.024 70.7823C450.521 71.5148 451.228 72.1188 452.073 72.5339Z" fill="white"/>
<path d="M455.233 67.5207L480.563 80.3929C480.873 80.5546 481.227 80.6397 481.588 80.6392C481.948 80.6387 482.302 80.5526 482.612 80.39C482.922 80.2273 483.176 79.9941 483.35 79.7146C483.523 79.4351 483.608 79.1196 483.596 78.8011V52.9815C483.596 52.2955 483.391 51.6216 483.003 51.0276C482.615 50.4336 482.057 49.9404 481.385 49.5974L456.056 36.675C455.747 36.5192 455.398 36.4376 455.044 36.4385C454.689 36.4394 454.34 36.5226 454.033 36.68C453.726 36.8374 453.471 37.0633 453.294 37.3352C453.116 37.607 453.023 37.9153 453.022 38.2292V64.0864C453.013 64.7809 453.213 65.4651 453.601 66.0687C453.99 66.6723 454.553 67.1735 455.233 67.5207Z" fill="#FFC0D0"/>
<path opacity="0.4" d="M483.596 52.9815V78.8011C483.6 79.1165 483.51 79.4271 483.333 79.7012C483.157 79.9754 482.901 80.2032 482.593 80.3613C482.284 80.5194 481.934 80.6022 481.577 80.6011C481.22 80.6001 480.87 80.5152 480.563 80.3553L455.234 67.5207C454.561 67.1817 454.002 66.6911 453.614 66.0988C453.225 65.5065 453.021 64.8338 453.023 64.1491V38.2292C453.019 37.9139 453.109 37.6032 453.286 37.3291C453.462 37.0549 453.718 36.8272 454.026 36.669C454.335 36.5109 454.685 36.4282 455.042 36.4292C455.399 36.4303 455.748 36.5151 456.056 36.675L481.385 49.6099C482.058 49.9489 482.617 50.4395 483.005 51.0318C483.394 51.6241 483.598 52.2968 483.596 52.9815Z" fill="white"/>
<path d="M483.596 77.8857V78.8007C483.6 79.1161 483.51 79.4267 483.333 79.7008C483.157 79.975 482.901 80.2028 482.593 80.3609C482.284 80.519 481.934 80.6018 481.577 80.6007C481.22 80.5997 480.87 80.5148 480.563 80.3549L455.234 67.5203C454.561 67.1813 454.002 66.6906 453.613 66.0984C453.225 65.5061 453.021 64.8334 453.022 64.1487V61.6419L459.656 56.6284L467.48 66.48L475.12 58.4458L483.596 77.8857Z" fill="#FAFAFA"/>
<path d="M461.754 48.8702C461.819 49.916 462.161 50.9337 462.751 51.8415C463.342 52.7493 464.166 53.5217 465.156 54.0968C467.041 55.0619 468.572 54.2848 468.572 52.3546C468.505 51.3077 468.161 50.2893 467.568 49.3814C466.975 48.4736 466.148 47.7017 465.156 47.128C463.285 46.2131 461.754 46.9525 461.754 48.8702Z" fill="#FAFAFA"/>
<path d="M570.594 232.122C586.58 223.96 586.581 197.497 570.595 173.014C554.61 148.531 528.693 135.3 512.707 143.461C496.721 151.623 496.72 178.086 512.705 202.569C528.691 227.052 554.608 240.283 570.594 232.122Z" fill="#FFC0D0"/>
<path opacity="0.2" d="M570.594 232.122C586.58 223.96 586.581 197.497 570.595 173.014C554.61 148.531 528.693 135.3 512.707 143.461C496.721 151.623 496.72 178.086 512.705 202.569C528.691 227.052 554.608 240.283 570.594 232.122Z" fill="black"/>
<path d="M568.196 233.361C584.182 225.2 584.182 198.736 568.197 174.253C552.212 149.771 526.294 136.539 510.308 144.701C494.322 152.862 494.322 179.325 510.307 203.808C526.292 228.291 552.21 241.522 568.196 233.361Z" fill="#FFC0D0"/>
<path d="M523.978 160.647C523.593 160.451 523.156 160.349 522.712 160.35C522.268 160.35 521.831 160.454 521.447 160.651C521.062 160.848 520.743 161.13 520.52 161.47C520.298 161.811 520.18 162.196 520.18 162.589V197.057C520.18 197.912 520.435 198.752 520.921 199.492C521.406 200.231 522.104 200.844 522.944 201.269L554.524 217.4C554.913 217.614 555.361 217.731 555.819 217.737C556.277 217.743 556.729 217.639 557.125 217.435C557.522 217.232 557.848 216.936 558.069 216.581C558.29 216.226 558.397 215.824 558.379 215.419V189.838L549.875 173.807L523.978 160.647Z" fill="#FFC0D0"/>
<path opacity="0.6" d="M523.978 160.647C523.593 160.451 523.156 160.349 522.712 160.35C522.268 160.35 521.831 160.454 521.447 160.651C521.062 160.848 520.743 161.13 520.52 161.47C520.298 161.811 520.18 162.196 520.18 162.589V197.057C520.18 197.912 520.435 198.752 520.921 199.492C521.406 200.231 522.104 200.844 522.944 201.269L554.524 217.4C554.913 217.614 555.361 217.731 555.819 217.737C556.277 217.743 556.729 217.639 557.125 217.435C557.522 217.232 557.848 216.936 558.069 216.581C558.29 216.226 558.397 215.824 558.379 215.419V189.838L549.875 173.807L523.978 160.647Z" fill="white"/>
<path d="M548.642 179.673L549.747 173.807L558.252 189.85L550.527 184.223C549.789 183.677 549.227 182.969 548.896 182.171C548.565 181.372 548.477 180.511 548.642 179.673Z" fill="#FFC0D0"/>
<path opacity="0.4" d="M548.642 179.673L549.747 173.807L558.252 189.85L550.527 184.223C549.789 183.677 549.227 182.969 548.896 182.171C548.565 181.372 548.477 180.511 548.642 179.673Z" fill="white"/>
<path d="M551.718 193.134C551.562 193.132 551.411 193.093 551.278 193.022L526.346 180.325C526.148 180.22 526.005 180.052 525.947 179.855C525.888 179.658 525.92 179.449 526.034 179.272C526.149 179.098 526.338 178.972 526.558 178.92C526.778 178.868 527.013 178.896 527.21 178.996L552.157 191.718C552.355 191.822 552.498 191.991 552.556 192.188C552.614 192.385 552.583 192.594 552.469 192.771C552.391 192.885 552.281 192.978 552.149 193.042C552.017 193.106 551.868 193.138 551.718 193.134Z" fill="#FAFAFA"/>
<path d="M551.718 200.604C551.564 200.601 551.414 200.567 551.278 200.504L526.346 187.77C526.148 187.665 526.005 187.496 525.947 187.3C525.888 187.103 525.92 186.893 526.034 186.717C526.149 186.543 526.338 186.417 526.558 186.365C526.778 186.313 527.013 186.341 527.21 186.441L552.157 199.125C552.355 199.23 552.498 199.398 552.556 199.595C552.614 199.792 552.583 200.001 552.469 200.178C552.401 200.304 552.294 200.41 552.162 200.485C552.029 200.561 551.875 200.602 551.718 200.604Z" fill="#FAFAFA"/>
<path d="M551.718 208.074C551.564 208.071 551.414 208.037 551.278 207.974L526.346 195.24C526.148 195.135 526.005 194.967 525.947 194.77C525.888 194.573 525.92 194.364 526.034 194.187C526.149 194.013 526.338 193.887 526.558 193.835C526.778 193.783 527.013 193.811 527.21 193.911L552.157 206.646C552.324 206.73 552.454 206.86 552.528 207.017C552.601 207.173 552.614 207.347 552.563 207.511C552.513 207.674 552.403 207.818 552.25 207.92C552.097 208.023 551.909 208.077 551.718 208.074Z" fill="#FAFAFA"/>
<path d="M422.497 157.683C438.556 149.522 438.616 122.968 422.631 98.3724C406.645 73.7772 380.668 60.4549 364.609 68.6162C348.55 76.7775 348.49 103.332 364.475 127.927C380.46 152.522 406.437 165.845 422.497 157.683Z" fill="#FFC0D0"/>
<path opacity="0.2" d="M422.497 157.683C438.556 149.522 438.616 122.968 422.631 98.3724C406.645 73.7772 380.668 60.4549 364.609 68.6162C348.55 76.7775 348.49 103.332 364.475 127.927C380.46 152.522 406.437 165.845 422.497 157.683Z" fill="black"/>
<path d="M418.393 158.189C434.379 150.028 434.379 123.564 418.394 99.0816C402.409 74.5987 376.491 61.3675 360.506 69.5288C344.52 77.6901 344.519 104.153 360.504 128.636C376.489 153.119 402.407 166.35 418.393 158.189Z" fill="#FFC0D0"/>
<path d="M373.137 126.116L404.717 142.234C405.1 142.433 405.537 142.539 405.982 142.54C406.426 142.542 406.864 142.44 407.249 142.244C407.635 142.048 407.955 141.765 408.178 141.425C408.4 141.084 408.516 140.697 408.515 140.304V105.836C408.515 104.979 408.259 104.138 407.774 103.396C407.289 102.655 406.591 102.039 405.751 101.612L374.115 85.4937C373.731 85.298 373.296 85.1949 372.854 85.1948C372.411 85.1947 371.976 85.2977 371.593 85.4932C371.209 85.6888 370.891 85.9702 370.669 86.3091C370.447 86.648 370.33 87.0325 370.33 87.4239V121.892C370.336 122.752 370.599 123.596 371.092 124.337C371.585 125.079 372.29 125.692 373.137 126.116Z" fill="#FFC0D0"/>
<path opacity="0.6" d="M373.137 126.116L404.717 142.234C405.1 142.433 405.537 142.539 405.982 142.54C406.426 142.542 406.864 142.44 407.249 142.244C407.635 142.048 407.955 141.765 408.178 141.425C408.4 141.084 408.516 140.697 408.515 140.304V105.836C408.515 104.979 408.259 104.138 407.774 103.396C407.289 102.655 406.591 102.039 405.751 101.612L374.115 85.4937C373.731 85.298 373.296 85.1949 372.854 85.1948C372.411 85.1947 371.976 85.2977 371.593 85.4932C371.209 85.6888 370.891 85.9702 370.669 86.3091C370.447 86.648 370.33 87.0325 370.33 87.4239V121.892C370.336 122.752 370.599 123.596 371.092 124.337C371.585 125.079 372.29 125.692 373.137 126.116Z" fill="white"/>
<path d="M381.74 108.017V119.711C381.74 120.173 381.948 120.616 382.317 120.943C382.687 121.27 383.188 121.453 383.71 121.453H395.177C395.555 121.453 395.925 121.357 396.242 121.176C396.56 120.996 396.812 120.738 396.969 120.435C397.125 120.131 397.18 119.794 397.127 119.463C397.073 119.133 396.913 118.823 396.666 118.571L385.199 106.876C384.936 106.608 384.586 106.418 384.197 106.33C383.808 106.242 383.398 106.262 383.022 106.386C382.646 106.51 382.321 106.732 382.092 107.024C381.863 107.316 381.74 107.662 381.74 108.017Z" fill="#FAFAFA"/>
<path d="M470.712 109.534C470.445 109.534 470.189 109.44 470 109.273C469.812 109.106 469.706 108.88 469.706 108.644V106.275C469.706 106.039 469.812 105.813 470 105.646C470.189 105.479 470.445 105.385 470.712 105.385C470.843 105.385 470.974 105.408 471.095 105.453C471.216 105.498 471.326 105.564 471.419 105.647C471.511 105.729 471.584 105.828 471.633 105.936C471.682 106.043 471.706 106.159 471.704 106.275V108.644C471.706 108.76 471.682 108.876 471.633 108.984C471.584 109.092 471.511 109.19 471.419 109.273C471.326 109.355 471.216 109.421 471.095 109.466C470.974 109.511 470.843 109.534 470.712 109.534Z" fill="#FFC0D0"/>
<path d="M470.712 242.116C470.445 242.116 470.189 242.023 470 241.856C469.812 241.689 469.706 241.462 469.706 241.226V236.489C469.706 236.253 469.812 236.026 470 235.859C470.189 235.692 470.445 235.599 470.712 235.599C470.843 235.599 470.974 235.622 471.095 235.667C471.216 235.712 471.326 235.777 471.419 235.86C471.511 235.943 471.584 236.041 471.633 236.149C471.682 236.257 471.706 236.372 471.704 236.489V241.226C471.706 241.343 471.682 241.458 471.633 241.566C471.584 241.674 471.511 241.772 471.419 241.855C471.326 241.938 471.216 242.003 471.095 242.048C470.974 242.093 470.843 242.116 470.712 242.116ZM470.712 232.641C470.445 232.641 470.189 232.547 470 232.38C469.812 232.213 469.706 231.987 469.706 231.751V227.026C469.706 226.79 469.812 226.563 470 226.396C470.189 226.229 470.445 226.136 470.712 226.136C470.843 226.136 470.974 226.159 471.095 226.204C471.216 226.249 471.326 226.314 471.419 226.397C471.511 226.48 471.584 226.578 471.633 226.686C471.682 226.794 471.706 226.909 471.704 227.026V231.713C471.712 231.833 471.692 231.952 471.646 232.064C471.599 232.177 471.527 232.279 471.434 232.366C471.341 232.453 471.229 232.522 471.105 232.569C470.981 232.617 470.847 232.641 470.712 232.641ZM470.712 223.178C470.445 223.178 470.189 223.084 470 222.917C469.812 222.75 469.706 222.524 469.706 222.288V217.55C469.706 217.314 469.812 217.088 470 216.921C470.189 216.754 470.445 216.66 470.712 216.66C470.843 216.66 470.974 216.683 471.095 216.728C471.216 216.773 471.326 216.839 471.419 216.922C471.511 217.004 471.584 217.103 471.633 217.21C471.682 217.318 471.706 217.434 471.704 217.55V222.288C471.706 222.404 471.682 222.519 471.633 222.627C471.584 222.735 471.511 222.833 471.419 222.916C471.326 222.999 471.216 223.065 471.095 223.11C470.974 223.155 470.843 223.178 470.712 223.178ZM470.712 213.702C470.445 213.702 470.189 213.608 470 213.441C469.812 213.275 469.706 213.048 469.706 212.812V208.074C469.706 207.958 469.732 207.843 469.782 207.736C469.833 207.629 469.908 207.531 470.001 207.45C470.095 207.368 470.206 207.304 470.328 207.26C470.45 207.217 470.58 207.195 470.712 207.197C470.975 207.197 471.227 207.29 471.414 207.454C471.6 207.619 471.704 207.842 471.704 208.074V212.812C471.706 212.929 471.682 213.044 471.633 213.152C471.584 213.26 471.511 213.358 471.419 213.441C471.326 213.524 471.216 213.589 471.095 213.634C470.974 213.679 470.843 213.702 470.712 213.702ZM470.712 204.239C470.445 204.239 470.189 204.145 470 203.978C469.812 203.812 469.706 203.585 469.706 203.349V198.611C469.706 198.375 469.812 198.149 470 197.982C470.189 197.815 470.445 197.722 470.712 197.722C470.843 197.722 470.974 197.745 471.095 197.79C471.216 197.834 471.326 197.9 471.419 197.983C471.511 198.066 471.584 198.164 471.633 198.272C471.682 198.38 471.706 198.495 471.704 198.611V203.349C471.706 203.465 471.682 203.581 471.633 203.689C471.584 203.797 471.511 203.895 471.419 203.978C471.326 204.061 471.216 204.126 471.095 204.171C470.974 204.216 470.843 204.239 470.712 204.239ZM470.712 194.764C470.445 194.764 470.189 194.67 470 194.503C469.812 194.336 469.706 194.11 469.706 193.874V189.098C469.706 188.862 469.812 188.636 470 188.469C470.189 188.302 470.445 188.208 470.712 188.208C470.843 188.208 470.974 188.231 471.095 188.276C471.216 188.321 471.326 188.387 471.419 188.47C471.511 188.553 471.584 188.651 471.633 188.759C471.682 188.867 471.706 188.982 471.704 189.098V193.836C471.712 193.955 471.692 194.075 471.646 194.187C471.599 194.3 471.527 194.402 471.434 194.489C471.341 194.576 471.229 194.645 471.105 194.692C470.981 194.74 470.847 194.764 470.712 194.764ZM470.712 185.288C470.58 185.29 470.45 185.268 470.328 185.225C470.206 185.182 470.095 185.117 470.001 185.036C469.908 184.954 469.833 184.857 469.782 184.749C469.732 184.642 469.706 184.527 469.706 184.411V179.673C469.706 179.437 469.812 179.211 470 179.044C470.189 178.877 470.445 178.783 470.712 178.783C470.843 178.783 470.974 178.806 471.095 178.851C471.216 178.896 471.326 178.962 471.419 179.044C471.511 179.127 471.584 179.225 471.633 179.333C471.682 179.441 471.706 179.557 471.704 179.673V184.411C471.712 184.53 471.692 184.65 471.646 184.762C471.599 184.874 471.527 184.977 471.434 185.064C471.341 185.151 471.229 185.22 471.105 185.267C470.981 185.314 470.847 185.338 470.712 185.338V185.288ZM470.712 175.825C470.445 175.825 470.189 175.731 470 175.564C469.812 175.397 469.706 175.171 469.706 174.935V170.197C469.706 169.961 469.812 169.735 470 169.568C470.189 169.401 470.445 169.307 470.712 169.307C470.843 169.307 470.974 169.331 471.095 169.375C471.216 169.42 471.326 169.486 471.419 169.569C471.511 169.652 471.584 169.75 471.633 169.858C471.682 169.966 471.706 170.081 471.704 170.197V174.935C471.706 175.051 471.682 175.167 471.633 175.275C471.584 175.383 471.511 175.481 471.419 175.564C471.326 175.646 471.216 175.712 471.095 175.757C470.974 175.802 470.843 175.825 470.712 175.825ZM470.712 166.349C470.58 166.349 470.449 166.326 470.327 166.282C470.205 166.237 470.094 166.171 470 166.089C469.907 166.006 469.833 165.908 469.782 165.8C469.732 165.692 469.706 165.576 469.706 165.46V160.734C469.706 160.498 469.812 160.272 470 160.105C470.189 159.938 470.445 159.844 470.712 159.844C470.843 159.844 470.974 159.867 471.095 159.912C471.216 159.957 471.326 160.023 471.419 160.106C471.511 160.189 471.584 160.287 471.633 160.395C471.682 160.503 471.706 160.618 471.704 160.734V165.46C471.706 165.576 471.682 165.691 471.633 165.799C471.584 165.907 471.511 166.005 471.419 166.088C471.326 166.171 471.216 166.237 471.095 166.281C470.974 166.326 470.843 166.349 470.712 166.349ZM470.712 156.886C470.445 156.886 470.189 156.793 470 156.626C469.812 156.459 469.706 156.233 469.706 155.997V151.259C469.706 151.023 469.812 150.796 470 150.629C470.189 150.463 470.445 150.369 470.712 150.369C470.843 150.369 470.974 150.392 471.095 150.437C471.216 150.482 471.326 150.547 471.419 150.63C471.511 150.713 471.584 150.811 471.633 150.919C471.682 151.027 471.706 151.142 471.704 151.259V155.997C471.706 156.113 471.682 156.228 471.633 156.336C471.584 156.444 471.511 156.542 471.419 156.625C471.326 156.708 471.216 156.774 471.095 156.818C470.974 156.863 470.843 156.886 470.712 156.886ZM470.712 147.411C470.445 147.411 470.189 147.317 470 147.15C469.812 146.983 469.706 146.757 469.706 146.521V141.783C469.706 141.667 469.732 141.552 469.782 141.445C469.833 141.337 469.908 141.24 470.001 141.158C470.095 141.077 470.206 141.012 470.328 140.969C470.45 140.926 470.58 140.904 470.712 140.906C470.975 140.906 471.227 140.998 471.414 141.163C471.6 141.327 471.704 141.551 471.704 141.783V146.483C471.712 146.603 471.692 146.722 471.646 146.835C471.599 146.947 471.527 147.05 471.434 147.136C471.341 147.223 471.229 147.292 471.105 147.34C470.981 147.387 470.847 147.411 470.712 147.411ZM470.712 137.948C470.445 137.948 470.189 137.854 470 137.687C469.812 137.52 469.706 137.294 469.706 137.058V132.32C469.706 132.084 469.812 131.858 470 131.691C470.189 131.524 470.445 131.43 470.712 131.43C470.843 131.43 470.974 131.453 471.095 131.498C471.216 131.543 471.326 131.609 471.419 131.692C471.511 131.774 471.584 131.873 471.633 131.981C471.682 132.088 471.706 132.204 471.704 132.32V137.058C471.706 137.174 471.682 137.29 471.633 137.398C471.584 137.505 471.511 137.604 471.419 137.686C471.326 137.769 471.216 137.835 471.095 137.88C470.974 137.925 470.843 137.948 470.712 137.948ZM470.712 128.472C470.445 128.472 470.189 128.379 470 128.212C469.812 128.045 469.706 127.818 469.706 127.582V122.845C469.706 122.609 469.812 122.382 470 122.215C470.189 122.048 470.445 121.955 470.712 121.955C470.843 121.955 470.974 121.978 471.095 122.023C471.216 122.068 471.326 122.133 471.419 122.216C471.511 122.299 471.584 122.397 471.633 122.505C471.682 122.613 471.706 122.728 471.704 122.845V127.582C471.706 127.699 471.682 127.814 471.633 127.922C471.584 128.03 471.511 128.128 471.419 128.211C471.326 128.294 471.216 128.359 471.095 128.404C470.974 128.449 470.843 128.472 470.712 128.472ZM470.712 118.997C470.58 118.998 470.45 118.977 470.328 118.934C470.206 118.89 470.095 118.826 470.001 118.744C469.908 118.663 469.833 118.565 469.782 118.458C469.732 118.351 469.706 118.236 469.706 118.119V113.382C469.706 113.146 469.812 112.919 470 112.752C470.189 112.585 470.445 112.492 470.712 112.492C470.843 112.492 470.974 112.515 471.095 112.56C471.216 112.605 471.326 112.67 471.419 112.753C471.511 112.836 471.584 112.934 471.633 113.042C471.682 113.15 471.706 113.265 471.704 113.382V118.119C471.704 118.235 471.678 118.349 471.629 118.455C471.579 118.562 471.506 118.658 471.414 118.74C471.321 118.821 471.212 118.886 471.092 118.93C470.971 118.974 470.842 118.997 470.712 118.997Z" fill="#FFC0D0"/>
<path d="M470.712 249.261C470.58 249.262 470.45 249.241 470.328 249.198C470.206 249.154 470.095 249.09 470.001 249.008C469.908 248.927 469.833 248.829 469.782 248.722C469.732 248.615 469.706 248.5 469.706 248.383V246.014C469.706 245.778 469.812 245.552 470 245.385C470.189 245.218 470.445 245.125 470.712 245.125C470.843 245.124 470.974 245.148 471.095 245.192C471.216 245.237 471.326 245.303 471.419 245.386C471.511 245.469 471.584 245.567 471.633 245.675C471.682 245.783 471.706 245.898 471.704 246.014V248.383C471.704 248.616 471.6 248.839 471.414 249.004C471.227 249.168 470.975 249.261 470.712 249.261Z" fill="#FFC0D0"/>
<path d="M496.013 190.966C495.827 190.968 495.644 190.923 495.486 190.836C495.328 190.75 495.201 190.625 495.12 190.477C495.059 190.373 495.023 190.259 495.013 190.142C495.004 190.025 495.02 189.908 495.063 189.797C495.105 189.686 495.172 189.584 495.26 189.496C495.347 189.408 495.454 189.337 495.573 189.286L497.969 188.233C498.086 188.181 498.214 188.151 498.345 188.142C498.475 188.134 498.607 188.149 498.731 188.185C498.855 188.222 498.97 188.28 499.069 188.356C499.168 188.432 499.25 188.524 499.308 188.628C499.367 188.732 499.402 188.845 499.411 188.96C499.42 189.076 499.404 189.192 499.362 189.302C499.321 189.412 499.255 189.514 499.169 189.601C499.084 189.689 498.979 189.761 498.862 189.813L496.466 190.878C496.325 190.938 496.17 190.968 496.013 190.966Z" fill="#FFC0D0"/>
<path d="M484.22 196.155C484.034 196.157 483.851 196.112 483.693 196.026C483.535 195.939 483.408 195.814 483.327 195.666C483.255 195.559 483.209 195.44 483.193 195.317C483.177 195.193 483.191 195.068 483.234 194.949C483.277 194.831 483.348 194.721 483.442 194.629C483.536 194.537 483.651 194.463 483.78 194.413L489.677 191.818C489.798 191.757 489.933 191.718 490.072 191.705C490.212 191.692 490.352 191.704 490.486 191.742C490.619 191.78 490.742 191.842 490.847 191.924C490.952 192.006 491.036 192.107 491.094 192.22C491.164 192.327 491.208 192.446 491.223 192.569C491.238 192.692 491.223 192.817 491.181 192.935C491.138 193.053 491.068 193.162 490.975 193.254C490.882 193.347 490.768 193.421 490.641 193.473L484.673 196.067C484.532 196.128 484.377 196.158 484.22 196.155Z" fill="#FFC0D0"/>
<path d="M475.928 199.802C475.742 199.804 475.559 199.76 475.401 199.673C475.243 199.586 475.116 199.462 475.035 199.314C474.963 199.207 474.917 199.088 474.901 198.964C474.885 198.84 474.899 198.715 474.942 198.596C474.985 198.478 475.056 198.369 475.15 198.276C475.244 198.184 475.36 198.11 475.488 198.06L477.884 197.007C478.005 196.946 478.14 196.907 478.279 196.894C478.419 196.881 478.559 196.893 478.693 196.931C478.826 196.969 478.949 197.031 479.054 197.113C479.159 197.195 479.243 197.296 479.301 197.408C479.419 197.62 479.438 197.864 479.353 198.087C479.268 198.31 479.086 198.494 478.848 198.599L476.452 199.652C476.297 199.744 476.115 199.796 475.928 199.802Z" fill="#FFC0D0"/>
<path d="M438.82 135.579C438.648 135.58 438.479 135.542 438.33 135.467C438.181 135.392 438.056 135.284 437.969 135.153L436.552 133.123C436.475 133.023 436.422 132.91 436.397 132.791C436.372 132.673 436.375 132.551 436.406 132.433C436.436 132.315 436.494 132.205 436.575 132.108C436.656 132.011 436.759 131.929 436.878 131.869C436.993 131.805 437.121 131.763 437.255 131.743C437.389 131.724 437.526 131.728 437.658 131.756C437.79 131.784 437.914 131.835 438.024 131.906C438.133 131.977 438.225 132.067 438.295 132.17L439.713 134.201C439.807 134.335 439.859 134.489 439.862 134.647C439.866 134.806 439.821 134.962 439.732 135.099C439.644 135.236 439.515 135.35 439.359 135.428C439.203 135.506 439.027 135.545 438.848 135.542L438.82 135.579Z" fill="#FFC0D0"/>
<path d="M460.818 167.678C460.645 167.679 460.474 167.64 460.323 167.566C460.171 167.491 460.044 167.383 459.954 167.252L457.204 163.241C457.127 163.142 457.074 163.029 457.048 162.911C457.022 162.793 457.023 162.671 457.052 162.553C457.081 162.436 457.136 162.324 457.215 162.226C457.294 162.128 457.395 162.045 457.511 161.982C457.627 161.919 457.757 161.878 457.891 161.86C458.026 161.843 458.164 161.85 458.295 161.881C458.427 161.912 458.55 161.966 458.657 162.041C458.764 162.115 458.853 162.208 458.919 162.314L461.669 166.325C461.741 166.426 461.789 166.54 461.811 166.658C461.833 166.777 461.828 166.898 461.796 167.015C461.765 167.131 461.707 167.241 461.627 167.338C461.546 167.435 461.445 167.516 461.328 167.578C461.172 167.652 460.996 167.687 460.818 167.678ZM455.319 159.657C455.145 159.658 454.974 159.619 454.823 159.544C454.671 159.469 454.544 159.361 454.454 159.231L451.704 155.22C451.632 155.118 451.584 155.005 451.562 154.886C451.54 154.768 451.545 154.647 451.577 154.53C451.608 154.413 451.666 154.303 451.746 154.206C451.827 154.11 451.928 154.028 452.044 153.966C452.159 153.901 452.287 153.857 452.421 153.836C452.556 153.816 452.693 153.82 452.826 153.848C452.959 153.876 453.083 153.928 453.193 154C453.302 154.072 453.393 154.163 453.462 154.267L456.212 158.278C456.3 158.413 456.347 158.566 456.349 158.722C456.35 158.878 456.306 159.032 456.22 159.168C456.135 159.304 456.01 159.419 455.86 159.5C455.709 159.581 455.537 159.627 455.361 159.632L455.319 159.657ZM449.819 151.635C449.645 151.632 449.474 151.591 449.323 151.514C449.172 151.437 449.045 151.328 448.954 151.196L446.205 147.186C446.097 146.986 446.077 146.758 446.149 146.547C446.221 146.335 446.379 146.155 446.593 146.041C446.807 145.927 447.061 145.887 447.307 145.929C447.552 145.972 447.77 146.094 447.92 146.271L450.655 150.244C450.732 150.344 450.785 150.456 450.81 150.575C450.835 150.694 450.832 150.816 450.801 150.933C450.771 151.051 450.713 151.162 450.632 151.259C450.551 151.356 450.448 151.437 450.329 151.497C450.175 151.581 450 151.628 449.819 151.635ZM444.319 143.601C444.146 143.601 443.976 143.561 443.825 143.487C443.674 143.412 443.546 143.305 443.455 143.175L440.705 139.164C440.637 139.063 440.592 138.952 440.573 138.836C440.553 138.721 440.56 138.603 440.592 138.489C440.625 138.376 440.682 138.269 440.761 138.175C440.84 138.081 440.939 138.002 441.052 137.942C441.166 137.882 441.292 137.842 441.422 137.825C441.553 137.808 441.687 137.814 441.815 137.842C441.943 137.871 442.064 137.921 442.17 137.991C442.277 138.061 442.366 138.149 442.434 138.249L445.184 142.26C445.279 142.394 445.33 142.548 445.334 142.707C445.337 142.865 445.293 143.021 445.204 143.158C445.115 143.296 444.986 143.409 444.831 143.487C444.675 143.565 444.498 143.604 444.319 143.601Z" fill="#FFC0D0"/>
<path d="M464.943 173.719C464.77 173.718 464.601 173.677 464.452 173.6C464.303 173.523 464.179 173.413 464.093 173.281L462.675 171.263C462.551 171.062 462.519 170.827 462.586 170.606C462.652 170.385 462.813 170.196 463.033 170.077C463.254 169.957 463.518 169.918 463.77 169.966C464.023 170.014 464.245 170.146 464.39 170.335L465.808 172.366C465.884 172.466 465.936 172.58 465.96 172.699C465.984 172.818 465.98 172.941 465.948 173.058C465.916 173.176 465.857 173.287 465.774 173.383C465.691 173.48 465.587 173.56 465.468 173.619C465.306 173.695 465.125 173.729 464.943 173.719Z" fill="#FFC0D0"/>
<path d="M173.719 307.53L110.134 340.782V371.854L76.9375 388.298V405.006L138.539 436.603L235.306 388.586V339.128L173.719 307.53Z" fill="#263238"/>
<path d="M76.9375 388.298L138.539 419.896V436.604L76.9375 405.006V388.298Z" fill="#455A64"/>
<path d="M171.72 372.393V403.464L138.539 419.896V436.603L235.306 388.586V339.128L171.72 372.393Z" fill="#263238"/>
<path d="M138.539 419.896L171.72 403.464L110.134 371.854L76.9375 388.298L138.539 419.896Z" fill="#37474F"/>
<path d="M171.72 403.464V372.393L110.133 340.783V371.854L171.72 403.464Z" fill="#455A64"/>
<path d="M171.72 372.393L110.133 340.782L173.719 307.53L235.306 339.128L171.72 372.393Z" fill="#37474F"/>
<path d="M189.169 225.91C189.169 225.91 174.002 244.71 183.017 251.215C192.032 257.72 211.805 252.469 212.599 249.373C213.393 246.277 189.169 225.91 189.169 225.91Z" fill="#263238"/>
<path d="M121.416 390.454L99.1343 416.674L105.328 420.998C105.328 420.998 114.258 419.344 117.419 408.916C119.272 402.859 120.608 396.688 121.416 390.454Z" fill="#FFA8A7"/>
<path d="M123.429 388.674C123.429 388.674 129.623 393.687 126.888 398.087C124.152 402.486 119.404 406.108 119.262 411.962C119.12 417.815 115.803 428.256 108.461 429.91C101.119 431.564 93.9326 429.308 94.0743 427.002C94.2161 424.696 99.1345 416.674 99.1345 416.674C99.1345 416.674 105.881 420.372 110.857 416.8C115.832 413.228 116.98 398.225 116.98 398.225L123.429 388.674Z" fill="#034C95"/>
<path opacity="0.2" d="M123.429 388.674C123.429 388.674 129.623 393.687 126.888 398.087C124.152 402.486 119.404 406.108 119.262 411.962C119.12 417.815 115.803 428.256 108.461 429.91C101.119 431.564 93.9326 429.308 94.0743 427.002C94.2161 424.696 99.1345 416.674 99.1345 416.674C99.1345 416.674 105.881 420.372 110.857 416.8C115.832 413.228 116.98 398.225 116.98 398.225L123.429 388.674Z" fill="black"/>
<path d="M161.501 307.505C161.501 307.505 111.806 326.093 107.781 327.922C103.755 329.752 96.6963 332.936 97.405 347.262C98.1138 361.588 102.182 397.071 102.182 397.071L129.425 350.696L199.771 321.129L161.501 307.505Z" fill="#034C95"/>
<path opacity="0.5" d="M161.501 307.505C161.501 307.505 111.806 326.093 107.781 327.922C103.755 329.752 96.6963 332.936 97.405 347.262C98.1138 361.588 102.182 397.071 102.182 397.071L129.425 350.696L199.771 321.129L161.501 307.505Z" fill="black"/>
<path d="M100.155 378.71C101.204 388.837 102.153 397.072 102.153 397.072L129.396 350.697L179.559 329.577L168.219 321.693C152.188 328.813 128.9 339.14 121.941 342.299C113.096 346.31 110.36 357.653 102.734 373.408C101.87 375.137 101.019 376.892 100.155 378.71Z" fill="#034C95"/>
<path opacity="0.7" d="M100.155 378.71C101.204 388.837 102.153 397.072 102.153 397.072L129.396 350.697L179.559 329.577L168.219 321.693C152.188 328.813 128.9 339.14 121.941 342.299C113.096 346.31 110.36 357.653 102.734 373.408C101.87 375.137 101.019 376.892 100.155 378.71Z" fill="black"/>
<path d="M165.597 316.98L170.728 323.836L166.717 324.375L165.597 316.98Z" fill="#034C95"/>
<path opacity="0.7" d="M165.597 316.98L170.728 323.836L166.717 324.375L165.597 316.98Z" fill="black"/>
<path d="M99.4036 427.002C99.4036 427.002 100.112 428.055 100.112 433.357C100.112 438.658 97.7168 439.774 94.7544 440.664C91.792 441.554 82.9898 447.257 80.5802 449.738C78.1706 452.22 68.4471 454.752 58.837 453.273C49.2268 451.794 47.1999 446.179 51.8207 442.581C56.4415 438.984 69.6094 432.429 69.6094 432.429L99.4036 427.002Z" fill="#034C95"/>
<path d="M214.47 318.485L193.095 314.11C193.095 314.11 133.719 340.431 124.874 344.442C116.03 348.453 113.308 359.809 105.654 375.564C99.9846 387.421 92.4297 403.689 87.4829 413.466C87.4829 413.466 90.9981 421.713 102.139 419.645C105.909 412.363 112.571 405.858 122.266 394.277C128.487 387.123 132.905 378.875 135.222 370.086C135.59 368.522 136.451 367.081 137.705 365.931C138.959 364.78 140.555 363.965 142.309 363.581C152.103 361.476 172.075 356.901 193.166 350.483C222.889 341.434 214.47 318.485 214.47 318.485Z" fill="#034C95"/>
<path opacity="0.5" d="M214.47 318.485L193.095 314.11C193.095 314.11 133.719 340.431 124.874 344.442C116.03 348.453 113.308 359.809 105.654 375.564C99.9846 387.421 92.4297 403.689 87.4829 413.466C87.4829 413.466 90.9981 421.713 102.139 419.645C105.909 412.363 112.571 405.858 122.266 394.277C128.487 387.123 132.905 378.875 135.222 370.086C135.59 368.522 136.451 367.081 137.705 365.931C138.959 364.78 140.555 363.965 142.309 363.581C152.103 361.476 172.075 356.901 193.166 350.483C222.889 341.434 214.47 318.485 214.47 318.485Z" fill="black"/>
<path d="M87.4828 413.453C85.8528 416.674 84.5062 419.194 83.5849 420.61C79.8571 426.338 68.9854 432.542 65.1584 435.475C61.3314 438.408 60.5234 439.511 64.1804 441.993C73.4361 448.259 81.4588 441.416 86.6465 436.979C90.1105 434.167 93.9131 431.7 97.9859 429.622C98.2787 429.479 98.5329 429.282 98.7312 429.044C98.9294 428.806 99.0668 428.533 99.134 428.243C99.7085 425.272 100.724 422.381 102.153 419.645C90.998 421.713 87.4828 413.453 87.4828 413.453Z" fill="#FFA8A7"/>
<path d="M191.805 336.433L154.428 355.509L92.2739 323.736L129.651 304.259L191.805 336.433Z" fill="#FF5C85"/>
<path d="M158.439 330.993L144.421 323.836L153.209 319.349L167.241 326.506L158.439 330.993Z" fill="#263238"/>
<path d="M152.826 350.747L171.72 340.908L134.811 321.154L152.826 350.747Z" fill="#263238"/>
<path d="M153.932 291.775L138.978 298.042C134.511 299.041 130.107 300.246 125.782 301.652C125.782 301.652 115.378 305.412 114.896 307.918C114.414 310.425 122.706 316.329 129.977 313.433C131.894 312.543 133.94 311.889 136.058 311.491C140.479 311.119 144.658 309.532 148.007 306.953L160.098 304.02C160.098 304.02 166.334 293.317 153.932 291.775Z" fill="#FFA8A7"/>
<path d="M144.251 310.225C142.522 311.867 137.589 316.003 136.512 317.194C135.434 318.384 132.883 315.314 137.348 310.739C141.207 309.485 144.836 307.736 148.12 305.55C146.969 307.194 145.675 308.757 144.251 310.225Z" fill="#FFA8A7"/>
<path d="M184.534 245.801C181.098 245.316 177.579 245.926 174.604 247.521C171.629 249.116 169.392 251.594 168.29 254.512C166.705 258.725 165.682 263.087 165.243 267.51C163.953 281.121 163.598 287.927 163.598 287.927L148.12 294.194C148.12 294.194 156.483 294.545 155.916 304.973L175.179 300.649L184.534 245.801Z" fill="#034C95"/>
<path opacity="0.3" d="M184.534 245.801C181.098 245.316 177.579 245.926 174.604 247.521C171.629 249.116 169.392 251.594 168.29 254.512C166.705 258.725 165.682 263.087 165.243 267.51C163.953 281.121 163.598 287.927 163.598 287.927L148.12 294.194C148.12 294.194 156.412 294.545 155.916 304.973L175.179 300.649L184.534 245.801Z" fill="white"/>
<path d="M163.599 287.927C165.336 288.406 166.907 289.269 168.163 290.434C168.163 290.434 166.292 287.301 163.684 286.335L163.599 287.927Z" fill="#034C95"/>
<path opacity="0.1" d="M163.599 287.927C165.336 288.406 166.907 289.269 168.163 290.434C168.163 290.434 166.292 287.301 163.684 286.335L163.599 287.927Z" fill="white"/>
<path d="M177.758 214.892C177.758 214.892 168.205 212.385 171.649 202.847C175.094 193.309 199.459 189.223 217.801 202.847C217.801 202.847 230.671 201.092 230.671 216.985C230.671 232.878 223.47 240.135 234.554 244.271C234.554 244.271 227.793 249.937 222.322 244.271C222.322 244.271 221.174 256.68 200.437 252.356L177.758 214.892Z" fill="#263238"/>
<path d="M208.942 251.215L219.8 255.301V283.452C216.401 290.656 214.559 298.36 214.371 306.164V320.101C214.371 320.101 192.174 327.095 174.967 319.525C166.632 315.865 161.473 307.505 161.473 307.505C161.473 307.505 170.643 302.729 170.643 296.901C170.465 292.347 169.854 287.815 168.815 283.352C166.808 281.589 165.287 279.44 164.37 277.073C163.453 274.706 163.165 272.184 163.528 269.703C164.747 260.403 184.534 245.801 184.534 245.801L191.905 246.691L208.942 251.215Z" fill="#034C95"/>
<path d="M208.942 251.215L191.904 246.691V228.454H208.942V251.215Z" fill="#FFA8A7"/>
<path d="M191.904 246.754C195.375 245.607 198.546 243.849 201.226 241.587C203.906 239.325 206.039 236.605 207.496 233.593V228.58H191.904V246.754Z" fill="#F28F8F"/>
<path d="M187.936 203.75C187.936 203.75 172.344 204.552 174.272 228.128C175.165 239.02 178.042 244.661 187.539 244.247C198.283 243.783 213.549 237.253 212.557 218.603C211.564 199.952 187.936 203.75 187.936 203.75Z" fill="#FFA8A7"/>
<path d="M208.942 228.454C208.942 228.454 204.69 229.457 204.69 224.042C204.69 224.042 185.696 222.902 181.5 206.232C181.5 206.232 183.371 201.218 195.235 201.218C207.099 201.218 217.049 210.481 213.959 223.228L208.942 228.454Z" fill="#263238"/>
<path d="M185.696 223.391V231.5L180.324 230.046L185.696 223.391Z" fill="#F28F8F"/>
<path d="M193.762 224.256C193.762 224.583 193.651 224.904 193.445 225.176C193.239 225.448 192.946 225.66 192.603 225.785C192.261 225.91 191.884 225.942 191.52 225.877C191.157 225.812 190.824 225.654 190.563 225.421C190.301 225.188 190.124 224.892 190.054 224.571C189.983 224.249 190.022 223.916 190.166 223.614C190.31 223.312 190.552 223.054 190.861 222.874C191.171 222.694 191.534 222.599 191.905 222.601C192.15 222.601 192.392 222.644 192.619 222.727C192.845 222.811 193.05 222.933 193.223 223.086C193.395 223.24 193.532 223.423 193.624 223.623C193.717 223.824 193.763 224.039 193.762 224.256Z" fill="#263238"/>
<path d="M181.487 223.102C181.489 223.431 181.382 223.752 181.177 224.026C180.973 224.3 180.681 224.514 180.338 224.641C179.996 224.768 179.618 224.802 179.254 224.738C178.89 224.675 178.555 224.517 178.293 224.285C178.03 224.053 177.852 223.757 177.78 223.435C177.708 223.113 177.746 222.779 177.89 222.476C178.033 222.173 178.275 221.915 178.585 221.734C178.895 221.553 179.258 221.458 179.63 221.46C180.121 221.464 180.591 221.638 180.939 221.945C181.286 222.252 181.483 222.668 181.487 223.102Z" fill="#263238"/>
<path d="M177.348 219.668L181.005 217.75C181.005 217.75 179.587 216.497 178.17 217.236C177.773 217.522 177.482 217.907 177.335 218.34C177.189 218.774 177.193 219.237 177.348 219.668Z" fill="#263238"/>
<path d="M186.164 234.22C188.292 234.355 190.409 233.852 192.174 232.791C192.174 232.791 192.585 235.599 189.934 236.125C189.154 236.243 188.351 236.118 187.663 235.77C186.975 235.423 186.445 234.875 186.164 234.22Z" fill="#F28F8F"/>
<path d="M207.439 229.069C207.374 227.697 207.66 226.33 208.276 225.07C208.573 224.284 209.125 223.593 209.864 223.083C210.602 222.572 211.494 222.265 212.429 222.2C217.205 222.087 217.857 226.161 217.786 227.615C217.616 231.375 214.13 235.536 207.638 235.699L207.439 229.069Z" fill="#FFA8A7"/>
<path d="M191.905 246.753L186.873 252.531C186.308 253.182 185.91 253.933 185.708 254.734C185.506 255.534 185.504 256.364 185.702 257.165C185.901 257.966 186.295 258.719 186.857 259.372C187.419 260.024 188.136 260.56 188.956 260.942C191.187 261.974 193.755 262.288 196.219 261.831C198.683 261.373 200.891 260.173 202.464 258.435L208.942 251.278L191.905 246.753Z" fill="#FFA8A7"/>
<path d="M191.805 316.191L177.631 323.047C175.451 322.903 173.262 322.903 171.083 323.047C168.56 323.323 161.869 324.401 160.14 324.463C158.411 324.526 160.069 327.384 164.605 327.133C164.605 327.133 154.385 331.269 154.017 333.751C153.648 336.232 162.21 341.873 169.353 338.764C171.219 337.803 173.228 337.078 175.321 336.608C179.727 336.056 183.829 334.304 187.057 331.595L199.006 328.211C199.006 328.211 204.25 317.269 191.805 316.191Z" fill="#FFA8A7"/>
<path d="M219.799 255.302C219.799 255.302 211.11 260.541 212.599 276.835C213.464 286.692 213.464 296.595 212.599 306.452L191.791 316.191C194.023 317.503 195.843 319.294 197.082 321.395C198.321 323.497 198.939 325.841 198.878 328.211C198.878 328.211 228.757 322.771 230.543 316.617C232.329 310.463 232.981 281.021 232.981 275.907C232.981 270.794 230.657 259.388 219.799 255.302Z" fill="#034C95"/>
<path opacity="0.3" d="M219.799 255.302C219.799 255.302 211.11 260.541 212.599 276.835C213.464 286.692 213.464 296.595 212.599 306.452L191.791 316.191C194.023 317.503 195.843 319.294 197.082 321.395C198.321 323.497 198.939 325.841 198.878 328.211C198.878 328.211 228.757 322.771 230.543 316.617C232.329 310.463 232.981 281.021 232.981 275.907C232.981 270.794 230.657 259.388 219.799 255.302Z" fill="white"/>
<path d="M212.613 306.452C214.903 306.409 217.178 306.776 219.304 307.53C217.392 306.216 215.133 305.353 212.741 305.023L212.613 306.452Z" fill="#034C95"/>
<path opacity="0.1" d="M212.613 306.452C214.903 306.409 217.178 306.776 219.304 307.53C217.392 306.216 215.133 305.353 212.741 305.023L212.613 306.452Z" fill="white"/>
<path d="M83.6134 287.313L90.1052 324.914C90.0985 324.935 90.0985 324.957 90.1052 324.977L154.669 358.091C154.685 358.098 154.702 358.101 154.72 358.1C154.737 358.098 154.754 358.093 154.769 358.084C154.783 358.075 154.795 358.063 154.802 358.049C154.809 358.035 154.812 358.019 154.811 358.004L148.503 321.518C148.368 320.746 148.045 320.01 147.555 319.361C147.066 318.711 146.422 318.164 145.668 317.758L86.4766 285.608C86.1673 285.435 85.8078 285.346 85.4419 285.35C85.0759 285.355 84.7194 285.454 84.4158 285.634C84.1122 285.815 83.8747 286.07 83.7322 286.368C83.5898 286.666 83.5485 286.994 83.6134 287.313Z" fill="#FF5C85"/>
<path d="M154.711 358.104L189.183 340.444C189.978 340.036 190.639 339.452 191.099 338.748C191.559 338.044 191.803 337.246 191.805 336.433L154.414 355.51L154.711 358.104Z" fill="#263238"/>
<path d="M120.963 323.561C120.963 326.255 118.836 327.321 116.2 325.992C114.814 325.193 113.66 324.116 112.833 322.848C112.005 321.581 111.527 320.159 111.438 318.698C111.438 316.015 113.578 314.937 116.2 316.266C117.587 317.065 118.741 318.142 119.569 319.409C120.396 320.677 120.874 322.099 120.963 323.561Z" fill="#37474F"/>
<path opacity="0.2" d="M184.534 285.37C184.534 285.37 197.56 288.504 204.477 279.855C204.477 279.855 199.998 291.023 184.534 285.37Z" fill="black"/>
</svg>
