<svg width="269" height="406" viewBox="0 0 269 406" fill="none" xmlns="http://www.w3.org/2000/svg">
<g filter="url(#filter0_d_1558_7419)">
<rect x="8" y="8" width="253" height="390" rx="32" fill="#E8E8E8"/>
<path d="M68.1026 73.922H142.41V137.35H68.1026V73.922Z" fill="#E8E8E8" stroke="#191919" stroke-width="0.205268"/>
<line x1="68.0407" y1="73.84" x2="115.047" y2="38.3286" stroke="#191919" stroke-width="0.205268"/>
<line x1="81.1774" y1="73.84" x2="128.184" y2="38.3286" stroke="#191919" stroke-width="0.205268"/>
<line x1="100.883" y1="73.4293" x2="147.89" y2="37.918" stroke="#191919" stroke-width="0.205268"/>
<line x1="118.947" y1="73.4293" x2="165.953" y2="37.918" stroke="#191919" stroke-width="0.205268"/>
<line x1="142.545" y1="86.7787" x2="180.68" y2="50.9239" stroke="#191919" stroke-width="0.205268"/>
<line x1="142.545" y1="100.26" x2="180.68" y2="64.4048" stroke="#191919" stroke-width="0.205268"/>
<line x1="142.545" y1="112.576" x2="180.68" y2="76.7207" stroke="#191919" stroke-width="0.205268"/>
<line x1="142.545" y1="127.15" x2="180.68" y2="91.295" stroke="#191919" stroke-width="0.205268"/>
<line x1="142.75" y1="137.208" x2="180.885" y2="101.353" stroke="#191919" stroke-width="0.205268"/>
<line x1="115.109" y1="38.3183" x2="180.794" y2="37.8972" stroke="#191919" stroke-width="0.205268"/>
<line x1="180.692" y1="101.632" x2="180.898" y2="37.9994" stroke="#191919" stroke-width="0.205268"/>
<line x1="142.339" y1="73.8465" x2="180.725" y2="38.3352" stroke="#191919" stroke-width="0.205268"/>
<line x1="79.1865" y1="65.4027" x2="151.442" y2="65.4027" stroke="#191919" stroke-width="0.205268"/>
<line x1="88.6296" y1="58.2187" x2="159.241" y2="58.0128" stroke="#191919" stroke-width="0.205268"/>
<line x1="97.0446" y1="51.8554" x2="166.22" y2="51.6489" stroke="#191919" stroke-width="0.205268"/>
<line x1="106.487" y1="45.0829" x2="173.405" y2="45.0817" stroke="#191919" stroke-width="0.205268"/>
<line x1="151.339" y1="128.934" x2="151.339" y2="65.7111" stroke="#191919" stroke-width="0.205268"/>
<line x1="159.139" y1="121.955" x2="159.139" y2="58.7321" stroke="#191919" stroke-width="0.205268"/>
<line x1="165.913" y1="115.385" x2="166.118" y2="51.9576" stroke="#191919" stroke-width="0.205268"/>
<line x1="173.303" y1="108.407" x2="173.303" y2="45.1842" stroke="#191919" stroke-width="0.205268"/>
<path d="M135.036 83.4863C135.156 83.366 135.156 83.1711 135.036 83.0508L133.077 81.0914C132.956 80.9711 132.761 80.9711 132.641 81.0914C132.521 81.2116 132.521 81.4066 132.641 81.5268L134.383 83.2686L132.641 85.0103C132.521 85.1306 132.521 85.3255 132.641 85.4457C132.761 85.566 132.956 85.566 133.077 85.4457L135.036 83.4863ZM73.2295 83.5765H134.818V82.9607H73.2295V83.5765Z" fill="#191919"/>
<path d="M135.041 94.8715C135.161 94.7513 135.161 94.5563 135.041 94.4361L133.082 92.4766C132.961 92.3564 132.766 92.3564 132.646 92.4766C132.526 92.5969 132.526 92.7918 132.646 92.9121L134.388 94.6538L132.646 96.3956C132.526 96.5158 132.526 96.7108 132.646 96.831C132.766 96.9512 132.961 96.9512 133.082 96.831L135.041 94.8715ZM73.2344 94.9617H134.823V94.3459H73.2344V94.9617Z" fill="#191919"/>
<path d="M135.041 105.956C135.161 105.836 135.161 105.641 135.041 105.521L133.082 103.561C132.961 103.441 132.766 103.441 132.646 103.561C132.526 103.681 132.526 103.876 132.646 103.997L134.388 105.738L132.646 107.48C132.526 107.6 132.526 107.795 132.646 107.915C132.766 108.036 132.961 108.036 133.082 107.915L135.041 105.956ZM73.2344 106.046H134.823V105.43H73.2344V106.046Z" fill="#191919"/>
<path d="M135.041 119.504C135.161 119.384 135.161 119.189 135.041 119.068L133.082 117.109C132.961 116.989 132.766 116.989 132.646 117.109C132.526 117.229 132.526 117.424 132.646 117.544L134.388 119.286L132.646 121.028C132.526 121.148 132.526 121.343 132.646 121.463C132.766 121.584 132.961 121.584 133.082 121.463L135.041 119.504ZM73.2344 119.594H134.823V118.978H73.2344V119.594Z" fill="#191919"/>
<path d="M135.618 131.486C135.738 131.366 135.738 131.171 135.618 131.051L133.659 129.091C133.538 128.971 133.344 128.971 133.223 129.091C133.103 129.212 133.103 129.407 133.223 129.527L134.965 131.269L133.223 133.01C133.103 133.131 133.103 133.326 133.223 133.446C133.344 133.566 133.538 133.566 133.659 133.446L135.618 131.486ZM73.8115 131.576H135.4V130.961H73.8115V131.576Z" fill="#191919"/>
<rect x="73.9867" y="292.673" width="23.6223" height="22.4109" fill="#E8E8E8" stroke="#191919" stroke-width="0.2019"/>
<line x1="73.8179" y1="292.497" x2="82.4996" y2="284.623" stroke="#191919" stroke-width="0.2019"/>
<line x1="97.643" y1="292.497" x2="106.527" y2="284.623" stroke="#191919" stroke-width="0.2019"/>
<line x1="97.6348" y1="302.6" x2="106.518" y2="292.707" stroke="#191919" stroke-width="0.2019"/>
<line x1="73.8838" y1="302.567" x2="97.7114" y2="302.567" stroke="#191919" stroke-width="0.2019"/>
<line x1="85.6969" y1="315.185" x2="85.6969" y2="292.774" stroke="#191919" stroke-width="0.2019"/>
<line x1="85.73" y1="292.497" x2="94.4117" y2="284.623" stroke="#191919" stroke-width="0.2019"/>
<line x1="82.5674" y1="284.597" x2="106.594" y2="284.597" stroke="#191919" stroke-width="0.2019"/>
<line x1="78.125" y1="288.635" x2="102.151" y2="288.635" stroke="#191919" stroke-width="0.2019"/>
<line x1="106.493" y1="304.484" x2="106.493" y2="284.698" stroke="#191919" stroke-width="0.2019"/>
<line x1="97.6323" y1="315.121" x2="106.516" y2="304.42" stroke="#191919" stroke-width="0.2019"/>
<rect x="106.695" y="294.491" width="23.6223" height="22.4109" fill="#E8E8E8" stroke="#191919" stroke-width="0.2019"/>
<line x1="106.526" y1="294.315" x2="115.208" y2="286.441" stroke="#191919" stroke-width="0.2019"/>
<line x1="130.351" y1="294.314" x2="139.235" y2="286.44" stroke="#191919" stroke-width="0.2019"/>
<line x1="130.343" y1="304.417" x2="139.226" y2="294.524" stroke="#191919" stroke-width="0.2019"/>
<line x1="106.592" y1="304.384" x2="130.419" y2="304.384" stroke="#191919" stroke-width="0.2019"/>
<line x1="118.405" y1="317.002" x2="118.405" y2="294.592" stroke="#191919" stroke-width="0.2019"/>
<line x1="118.438" y1="294.315" x2="127.12" y2="286.441" stroke="#191919" stroke-width="0.2019"/>
<line x1="115.275" y1="286.415" x2="139.302" y2="286.415" stroke="#191919" stroke-width="0.2019"/>
<line x1="110.833" y1="290.453" x2="134.859" y2="290.453" stroke="#191919" stroke-width="0.2019"/>
<line x1="139.201" y1="306.302" x2="139.201" y2="286.516" stroke="#191919" stroke-width="0.2019"/>
<line x1="130.34" y1="316.938" x2="139.224" y2="306.237" stroke="#191919" stroke-width="0.2019"/>
<rect x="139.403" y="297.115" width="23.6223" height="22.4109" fill="#E8E8E8" stroke="#191919" stroke-width="0.2019"/>
<line x1="139.234" y1="296.939" x2="147.916" y2="289.065" stroke="#191919" stroke-width="0.2019"/>
<line x1="163.059" y1="296.939" x2="171.943" y2="289.065" stroke="#191919" stroke-width="0.2019"/>
<line x1="163.051" y1="307.042" x2="171.934" y2="297.149" stroke="#191919" stroke-width="0.2019"/>
<line x1="139.3" y1="307.008" x2="163.127" y2="307.008" stroke="#191919" stroke-width="0.2019"/>
<line x1="151.113" y1="319.627" x2="151.113" y2="297.216" stroke="#191919" stroke-width="0.2019"/>
<line x1="151.146" y1="296.939" x2="159.828" y2="289.065" stroke="#191919" stroke-width="0.2019"/>
<line x1="147.983" y1="289.039" x2="172.01" y2="289.039" stroke="#191919" stroke-width="0.2019"/>
<line x1="143.541" y1="293.077" x2="167.567" y2="293.077" stroke="#191919" stroke-width="0.2019"/>
<line x1="171.909" y1="308.926" x2="171.909" y2="289.14" stroke="#191919" stroke-width="0.2019"/>
<line x1="163.048" y1="319.562" x2="171.932" y2="308.862" stroke="#191919" stroke-width="0.2019"/>
<rect x="65.1029" y="311.046" width="23.6223" height="22.4109" fill="#E8E8E8" stroke="#191919" stroke-width="0.2019"/>
<line x1="64.9341" y1="310.871" x2="73.6158" y2="302.996" stroke="#191919" stroke-width="0.2019"/>
<line x1="88.7592" y1="310.87" x2="97.6428" y2="302.996" stroke="#191919" stroke-width="0.2019"/>
<line x1="88.7511" y1="320.973" x2="97.6347" y2="311.08" stroke="#191919" stroke-width="0.2019"/>
<line x1="65" y1="320.94" x2="88.8276" y2="320.94" stroke="#191919" stroke-width="0.2019"/>
<line x1="76.8131" y1="333.559" x2="76.8131" y2="311.148" stroke="#191919" stroke-width="0.2019"/>
<line x1="76.8462" y1="310.871" x2="85.528" y2="302.996" stroke="#191919" stroke-width="0.2019"/>
<line x1="73.6836" y1="302.97" x2="97.7097" y2="302.97" stroke="#191919" stroke-width="0.2019"/>
<line x1="69.2412" y1="307.008" x2="93.2673" y2="307.008" stroke="#191919" stroke-width="0.2019"/>
<line x1="97.609" y1="322.857" x2="97.609" y2="303.071" stroke="#191919" stroke-width="0.2019"/>
<line x1="88.7485" y1="333.494" x2="97.6321" y2="322.793" stroke="#191919" stroke-width="0.2019"/>
<rect x="97.8109" y="312.863" width="23.6223" height="22.4109" fill="#E8E8E8" stroke="#191919" stroke-width="0.2019"/>
<line x1="97.6421" y1="312.687" x2="106.324" y2="304.813" stroke="#191919" stroke-width="0.2019"/>
<line x1="121.467" y1="312.687" x2="130.351" y2="304.813" stroke="#191919" stroke-width="0.2019"/>
<line x1="121.459" y1="322.79" x2="130.343" y2="312.897" stroke="#191919" stroke-width="0.2019"/>
<line x1="97.708" y1="322.756" x2="121.536" y2="322.756" stroke="#191919" stroke-width="0.2019"/>
<line x1="109.521" y1="335.375" x2="109.521" y2="312.964" stroke="#191919" stroke-width="0.2019"/>
<line x1="109.554" y1="312.687" x2="118.236" y2="304.813" stroke="#191919" stroke-width="0.2019"/>
<line x1="106.392" y1="304.787" x2="130.418" y2="304.787" stroke="#191919" stroke-width="0.2019"/>
<line x1="101.949" y1="308.825" x2="125.975" y2="308.825" stroke="#191919" stroke-width="0.2019"/>
<line x1="130.317" y1="324.674" x2="130.317" y2="304.888" stroke="#191919" stroke-width="0.2019"/>
<line x1="121.457" y1="335.311" x2="130.34" y2="324.61" stroke="#191919" stroke-width="0.2019"/>
<rect x="130.519" y="315.488" width="23.6223" height="22.4109" fill="#E8E8E8" stroke="#191919" stroke-width="0.2019"/>
<line x1="130.35" y1="315.312" x2="139.032" y2="307.438" stroke="#191919" stroke-width="0.2019"/>
<line x1="154.175" y1="315.312" x2="163.059" y2="307.438" stroke="#191919" stroke-width="0.2019"/>
<line x1="154.167" y1="325.415" x2="163.051" y2="315.522" stroke="#191919" stroke-width="0.2019"/>
<line x1="130.416" y1="325.381" x2="154.244" y2="325.381" stroke="#191919" stroke-width="0.2019"/>
<line x1="142.229" y1="338" x2="142.229" y2="315.589" stroke="#191919" stroke-width="0.2019"/>
<line x1="142.262" y1="315.312" x2="150.944" y2="307.438" stroke="#191919" stroke-width="0.2019"/>
<line x1="139.1" y1="307.412" x2="163.126" y2="307.412" stroke="#191919" stroke-width="0.2019"/>
<line x1="134.657" y1="311.45" x2="158.683" y2="311.45" stroke="#191919" stroke-width="0.2019"/>
<line x1="163.025" y1="327.299" x2="163.025" y2="307.513" stroke="#191919" stroke-width="0.2019"/>
<line x1="154.165" y1="337.936" x2="163.048" y2="327.235" stroke="#191919" stroke-width="0.2019"/>
<rect x="82.6683" y="260.975" width="23.6223" height="22.4109" fill="#E8E8E8" stroke="#191919" stroke-width="0.2019"/>
<line x1="82.4996" y1="260.799" x2="91.1813" y2="252.925" stroke="#191919" stroke-width="0.2019"/>
<line x1="106.325" y1="260.798" x2="115.208" y2="252.924" stroke="#191919" stroke-width="0.2019"/>
<line x1="106.316" y1="270.902" x2="115.2" y2="261.009" stroke="#191919" stroke-width="0.2019"/>
<line x1="82.5654" y1="270.868" x2="106.393" y2="270.868" stroke="#191919" stroke-width="0.2019"/>
<line x1="94.3785" y1="283.487" x2="94.3785" y2="261.076" stroke="#191919" stroke-width="0.2019"/>
<line x1="94.4117" y1="260.799" x2="103.093" y2="252.925" stroke="#191919" stroke-width="0.2019"/>
<line x1="91.249" y1="252.899" x2="115.275" y2="252.899" stroke="#191919" stroke-width="0.2019"/>
<line x1="86.8076" y1="256.937" x2="110.834" y2="256.937" stroke="#191919" stroke-width="0.2019"/>
<line x1="115.174" y1="272.786" x2="115.174" y2="253" stroke="#191919" stroke-width="0.2019"/>
<line x1="106.314" y1="283.422" x2="115.198" y2="272.722" stroke="#191919" stroke-width="0.2019"/>
<rect x="115.376" y="262.792" width="23.6223" height="22.4109" fill="#E8E8E8" stroke="#191919" stroke-width="0.2019"/>
<line x1="115.208" y1="262.617" x2="123.889" y2="254.743" stroke="#191919" stroke-width="0.2019"/>
<line x1="139.033" y1="262.616" x2="147.916" y2="254.742" stroke="#191919" stroke-width="0.2019"/>
<line x1="139.024" y1="272.719" x2="147.908" y2="262.826" stroke="#191919" stroke-width="0.2019"/>
<line x1="115.273" y1="272.686" x2="139.101" y2="272.686" stroke="#191919" stroke-width="0.2019"/>
<line x1="127.087" y1="285.304" x2="127.087" y2="262.893" stroke="#191919" stroke-width="0.2019"/>
<line x1="127.12" y1="262.617" x2="135.801" y2="254.743" stroke="#191919" stroke-width="0.2019"/>
<line x1="123.957" y1="254.716" x2="147.983" y2="254.716" stroke="#191919" stroke-width="0.2019"/>
<line x1="119.515" y1="258.755" x2="143.541" y2="258.755" stroke="#191919" stroke-width="0.2019"/>
<line x1="147.882" y1="274.604" x2="147.882" y2="254.817" stroke="#191919" stroke-width="0.2019"/>
<line x1="139.022" y1="285.24" x2="147.906" y2="274.539" stroke="#191919" stroke-width="0.2019"/>
<rect x="148.084" y="265.417" width="23.6223" height="22.4109" fill="#E8E8E8" stroke="#191919" stroke-width="0.2019"/>
<line x1="147.916" y1="265.241" x2="156.597" y2="257.367" stroke="#191919" stroke-width="0.2019"/>
<line x1="171.741" y1="265.24" x2="180.624" y2="257.366" stroke="#191919" stroke-width="0.2019"/>
<line x1="171.733" y1="275.344" x2="180.616" y2="265.451" stroke="#191919" stroke-width="0.2019"/>
<line x1="147.981" y1="275.31" x2="171.809" y2="275.31" stroke="#191919" stroke-width="0.2019"/>
<line x1="159.795" y1="287.929" x2="159.795" y2="265.518" stroke="#191919" stroke-width="0.2019"/>
<line x1="159.828" y1="265.241" x2="168.509" y2="257.367" stroke="#191919" stroke-width="0.2019"/>
<line x1="156.665" y1="257.341" x2="180.691" y2="257.341" stroke="#191919" stroke-width="0.2019"/>
<line x1="152.223" y1="261.379" x2="176.249" y2="261.379" stroke="#191919" stroke-width="0.2019"/>
<line x1="180.59" y1="277.228" x2="180.59" y2="257.442" stroke="#191919" stroke-width="0.2019"/>
<line x1="171.73" y1="287.864" x2="180.614" y2="277.164" stroke="#191919" stroke-width="0.2019"/>
<path d="M123.149 203.097C124.902 203.097 125.963 202.124 125.963 200.556V200.498H124.843V200.556C124.843 201.627 124.347 202.085 123.12 202.085C121.767 202.085 121.222 201.433 121.222 199.739C121.222 198.045 121.767 197.392 123.12 197.392C124.347 197.392 124.843 197.85 124.843 198.921V198.979H125.963V198.921C125.963 197.354 124.902 196.38 123.149 196.38C121.251 196.38 120.102 197.704 120.102 199.739C120.102 201.773 121.251 203.097 123.149 203.097ZM127.907 203V200.216C127.907 199.301 128.297 198.97 129.154 198.97C130.039 198.97 130.312 199.33 130.312 200.196V203H131.363V199.953C131.363 198.892 130.828 198.064 129.562 198.064C128.686 198.064 128.17 198.532 127.946 198.97H127.907V196.477H126.856V203H127.907ZM134.2 203.097C135.144 203.097 135.66 202.591 135.894 202.036H135.933V203H136.906V198.162H135.855V200.887C135.855 201.842 135.397 202.192 134.589 202.192C133.752 202.192 133.421 201.832 133.421 200.965V198.162H132.369V201.15C132.369 202.25 132.934 203.097 134.2 203.097ZM138.993 203V200.206C138.993 199.301 139.382 198.97 140.239 198.97C141.125 198.97 141.397 199.33 141.397 200.196V203H142.449V199.963C142.449 198.863 141.884 198.064 140.628 198.064C139.684 198.064 139.168 198.551 138.944 199.067H138.905V198.162H137.941V203H138.993ZM144.507 203V201.024H145.471L146.736 203H147.963L146.308 200.449L147.992 198.162H146.756L145.461 200.079H144.507V196.477H143.455V203H144.507ZM151.486 203V200.187H154.776V203H155.828V196.477H154.776V199.242H151.486V196.477H150.434V203H151.486ZM159.683 203.097C161.445 203.097 162.457 202.114 162.457 200.449V196.477H161.406V200.449C161.406 201.627 160.958 202.085 159.683 202.085C158.398 202.085 157.95 201.627 157.95 200.449V196.477H156.908V200.449C156.908 202.114 157.911 203.097 159.683 203.097ZM166.174 203.097C167.265 203.097 167.946 202.572 168.19 201.978H168.228V203H169.192V199.651H166.145V200.556H168.18V200.712C168.18 201.734 167.615 202.085 166.418 202.085C164.977 202.085 164.393 201.433 164.393 199.739C164.393 198.045 164.957 197.392 166.33 197.392C167.576 197.392 168.073 197.831 168.073 198.814V198.882H169.183V198.814C169.183 197.315 168.121 196.38 166.379 196.38C164.441 196.38 163.273 197.704 163.273 199.739C163.273 201.812 164.325 203.097 166.174 203.097ZM174.882 203V202.056H171.27V200.196H174.736V199.242H171.27V197.422H174.882V196.477H170.219V203H174.882ZM180.539 203V200.391H183.966V199.437H180.539V197.422H184.112V196.477H179.488V203H180.539ZM185.842 197.548V196.477H184.791L184.8 197.548H185.842ZM185.852 203V198.132H184.8V203H185.852ZM187.869 203V196.477H186.817V203H187.869ZM191.013 203.097C192.317 203.097 193.184 202.455 193.184 201.462V201.374H192.142V201.452C192.142 201.89 191.831 202.163 191.023 202.163C190.01 202.163 189.689 201.715 189.65 200.829H193.164C193.194 200.683 193.223 200.42 193.223 200.167C193.223 198.843 192.308 198.064 191.003 198.064C189.562 198.064 188.667 199.077 188.667 200.576C188.667 202.085 189.416 203.097 191.013 203.097ZM190.984 198.95C191.811 198.95 192.259 199.301 192.22 200.128H189.66C189.718 199.378 190.069 198.95 190.984 198.95ZM196.144 203.097C197.371 203.097 198.081 202.572 198.081 201.676C198.081 200.878 197.595 200.459 196.66 200.274L195.842 200.118C195.161 199.982 194.986 199.875 194.986 199.505C194.986 199.135 195.17 198.931 195.94 198.931C196.806 198.931 196.962 199.252 196.962 199.7V199.817H197.965V199.729C197.965 198.629 197.108 198.064 195.969 198.064C194.703 198.064 193.983 198.648 193.983 199.525C193.983 200.401 194.528 200.79 195.394 200.946L196.144 201.072C196.855 201.199 197.088 201.316 197.088 201.705C197.088 202.065 196.942 202.241 196.163 202.241C195.239 202.241 195.005 202.046 195.005 201.52V201.345H193.993V201.364C193.993 202.542 194.732 203.097 196.144 203.097ZM140.295 215.097C142.145 215.097 143.333 213.773 143.333 211.739C143.333 209.704 142.145 208.38 140.295 208.38C138.436 208.38 137.248 209.704 137.248 211.739C137.248 213.773 138.436 215.097 140.295 215.097ZM140.295 214.085C138.942 214.085 138.368 213.433 138.368 211.739C138.368 210.045 138.942 209.392 140.295 209.392C141.649 209.392 142.213 210.045 142.213 211.739C142.213 213.433 141.649 214.085 140.295 214.085ZM145.253 215V212.206C145.253 211.301 145.643 210.97 146.499 210.97C147.385 210.97 147.658 211.33 147.658 212.196V215H148.709V211.963C148.709 210.863 148.145 210.064 146.889 210.064C145.944 210.064 145.428 210.551 145.205 211.067H145.166V210.162H144.202V215H145.253ZM153.576 215C153.907 215 154.238 214.961 154.442 214.912V214.056H153.848C153.196 214.056 152.982 213.968 152.982 213.462V211.038H154.442V210.162H152.982V208.964H152.174L151.95 210.162H151.122V211.038H151.93V213.511C151.93 214.601 152.495 215 153.576 215ZM156.243 215V212.216C156.243 211.301 156.633 210.97 157.49 210.97C158.375 210.97 158.648 211.33 158.648 212.196V215H159.699V211.953C159.699 210.892 159.164 210.064 157.898 210.064C157.022 210.064 156.506 210.532 156.282 210.97H156.243V208.477H155.192V215H156.243ZM162.867 215.097C164.172 215.097 165.038 214.455 165.038 213.462V213.374H163.996V213.452C163.996 213.89 163.685 214.163 162.877 214.163C161.864 214.163 161.543 213.715 161.504 212.829H165.019C165.048 212.683 165.077 212.42 165.077 212.167C165.077 210.843 164.162 210.064 162.857 210.064C161.417 210.064 160.521 211.077 160.521 212.576C160.521 214.085 161.271 215.097 162.867 215.097ZM162.838 210.95C163.665 210.95 164.113 211.301 164.074 212.128H161.514C161.572 211.378 161.923 210.95 162.838 210.95ZM170.505 215.097C171.595 215.097 172.277 214.572 172.52 213.978H172.559V215H173.523V211.651H170.476V212.556H172.51V212.712C172.51 213.734 171.946 214.085 170.748 214.085C169.307 214.085 168.723 213.433 168.723 211.739C168.723 210.045 169.288 209.392 170.661 209.392C171.907 209.392 172.403 209.831 172.403 210.814V210.882H173.513V210.814C173.513 209.315 172.452 208.38 170.709 208.38C168.772 208.38 167.604 209.704 167.604 211.739C167.604 213.812 168.655 215.097 170.505 215.097ZM177.459 215.097C179.308 215.097 180.496 213.773 180.496 211.739C180.496 209.704 179.308 208.38 177.459 208.38C175.599 208.38 174.411 209.704 174.411 211.739C174.411 213.773 175.599 215.097 177.459 215.097ZM177.459 214.085C176.105 214.085 175.531 213.433 175.531 211.739C175.531 210.045 176.105 209.392 177.459 209.392C178.812 209.392 179.376 210.045 179.376 211.739C179.376 213.433 178.812 214.085 177.459 214.085ZM182.485 212.858C182.485 211.924 182.64 209.908 182.64 209.159V208.477H181.307V209.159C181.307 209.908 181.462 211.914 181.462 212.858H182.485ZM182.572 215V213.559H181.385V215H182.572Z" fill="#0F0F0F"/>
<path d="M106.563 236.437C106.804 236.679 107.196 236.679 107.437 236.437L111.371 232.503C111.612 232.262 111.612 231.87 111.371 231.629C111.13 231.388 110.738 231.388 110.497 231.629L107 235.126L103.503 231.629C103.262 231.388 102.87 231.388 102.629 231.629C102.388 231.87 102.388 232.262 102.629 232.503L106.563 236.437ZM106.382 165V236H107.618V165H106.382Z" fill="black"/>
</g>
<defs>
<filter id="filter0_d_1558_7419" x="0" y="0" width="269" height="406" filterUnits="userSpaceOnUse" color-interpolation-filters="sRGB">
<feFlood flood-opacity="0" result="BackgroundImageFix"/>
<feColorMatrix in="SourceAlpha" type="matrix" values="0 0 0 0 0 0 0 0 0 0 0 0 0 0 0 0 0 0 127 0" result="hardAlpha"/>
<feOffset/>
<feGaussianBlur stdDeviation="4"/>
<feComposite in2="hardAlpha" operator="out"/>
<feColorMatrix type="matrix" values="0 0 0 0 0.00392157 0 0 0 0 0.137255 0 0 0 0 0.270588 0 0 0 0.1 0"/>
<feBlend mode="normal" in2="BackgroundImageFix" result="effect1_dropShadow_1558_7419"/>
<feBlend mode="normal" in="SourceGraphic" in2="effect1_dropShadow_1558_7419" result="shape"/>
</filter>
</defs>
</svg>
