<svg width="285" height="422" viewBox="0 0 285 422" fill="none" xmlns="http://www.w3.org/2000/svg">
<g filter="url(#filter0_d_2291_10061)">
<rect x="16" y="16.0002" width="253" height="390" rx="32" fill="#E6EEF6"/>
<path d="M76.2 82.0195H150.312V145.253H76.2V82.0195Z" fill="#034C95" stroke="#568CC2" stroke-width="0.4"/>
<line x1="75.983" y1="81.7625" x2="122.989" y2="46.2512" stroke="#568CC2" stroke-width="0.4"/>
<line x1="89.1197" y1="81.7625" x2="136.126" y2="46.2512" stroke="#568CC2" stroke-width="0.4"/>
<line x1="108.825" y1="81.3524" x2="155.831" y2="45.841" stroke="#568CC2" stroke-width="0.4"/>
<line x1="126.889" y1="81.3524" x2="173.896" y2="45.841" stroke="#568CC2" stroke-width="0.4"/>
<line x1="150.478" y1="94.7081" x2="188.613" y2="58.8532" stroke="#568CC2" stroke-width="0.4"/>
<line x1="150.478" y1="108.189" x2="188.613" y2="72.3336" stroke="#568CC2" stroke-width="0.4"/>
<line x1="150.478" y1="120.505" x2="188.613" y2="84.6501" stroke="#568CC2" stroke-width="0.4"/>
<line x1="150.478" y1="135.079" x2="188.613" y2="99.2243" stroke="#568CC2" stroke-width="0.4"/>
<line x1="150.683" y1="145.137" x2="188.818" y2="109.282" stroke="#568CC2" stroke-width="0.4"/>
<line x1="123.108" y1="46.2211" x2="188.794" y2="45.8001" stroke="#568CC2" stroke-width="0.4"/>
<line x1="188.595" y1="109.633" x2="188.8" y2="45.9996" stroke="#568CC2" stroke-width="0.4"/>
<line x1="150.274" y1="81.7753" x2="188.659" y2="46.264" stroke="#568CC2" stroke-width="0.4"/>
<line x1="87.1855" y1="73.3051" x2="159.441" y2="73.3051" stroke="#568CC2" stroke-width="0.4"/>
<line x1="96.6283" y1="66.1215" x2="167.24" y2="65.9157" stroke="#568CC2" stroke-width="0.4"/>
<line x1="105.044" y1="59.7583" x2="174.219" y2="59.5518" stroke="#568CC2" stroke-width="0.4"/>
<line x1="114.488" y1="52.9858" x2="181.406" y2="52.9846" stroke="#568CC2" stroke-width="0.4"/>
<line x1="159.241" y1="136.934" x2="159.241" y2="73.7113" stroke="#568CC2" stroke-width="0.4"/>
<line x1="167.042" y1="129.954" x2="167.042" y2="66.7318" stroke="#568CC2" stroke-width="0.4"/>
<line x1="173.816" y1="123.385" x2="174.021" y2="59.9577" stroke="#568CC2" stroke-width="0.4"/>
<line x1="181.204" y1="116.407" x2="181.204" y2="53.1849" stroke="#568CC2" stroke-width="0.4"/>
<path d="M143.173 91.6224C143.368 91.4271 143.368 91.1105 143.173 90.9152L139.991 87.7333C139.796 87.538 139.479 87.538 139.284 87.7333C139.089 87.9285 139.089 88.2451 139.284 88.4404L142.112 91.2688L139.284 94.0972C139.089 94.2925 139.089 94.6091 139.284 94.8043C139.479 94.9996 139.796 94.9996 139.991 94.8043L143.173 91.6224ZM81.2305 91.7688H142.819V90.7688H81.2305V91.7688Z" fill="#B1CAE3"/>
<path d="M143.177 103.008C143.372 102.813 143.372 102.496 143.177 102.301L139.995 99.119C139.8 98.9237 139.483 98.9237 139.288 99.119C139.093 99.3143 139.093 99.6309 139.288 99.8261L142.116 102.655L139.288 105.483C139.093 105.678 139.093 105.995 139.288 106.19C139.483 106.385 139.8 106.385 139.995 106.19L143.177 103.008ZM81.2344 103.155H142.823V102.155H81.2344V103.155Z" fill="#B1CAE3"/>
<path d="M143.177 114.092C143.372 113.897 143.372 113.58 143.177 113.385L139.995 110.203C139.8 110.008 139.483 110.008 139.288 110.203C139.093 110.398 139.093 110.715 139.288 110.91L142.116 113.739L139.288 116.567C139.093 116.762 139.093 117.079 139.288 117.274C139.483 117.469 139.8 117.469 139.995 117.274L143.177 114.092ZM81.2344 114.239H142.823V113.239H81.2344V114.239Z" fill="#B1CAE3"/>
<path d="M143.177 127.64C143.372 127.445 143.372 127.128 143.177 126.933L139.995 123.751C139.8 123.555 139.483 123.555 139.288 123.751C139.093 123.946 139.093 124.263 139.288 124.458L142.116 127.286L139.288 130.115C139.093 130.31 139.093 130.627 139.288 130.822C139.483 131.017 139.8 131.017 139.995 130.822L143.177 127.64ZM81.2344 127.786H142.823V126.786H81.2344V127.786Z" fill="#B1CAE3"/>
<path d="M143.755 139.622C143.95 139.427 143.95 139.111 143.755 138.915L140.573 135.733C140.378 135.538 140.061 135.538 139.866 135.733C139.671 135.929 139.671 136.245 139.866 136.44L142.694 139.269L139.866 142.097C139.671 142.292 139.671 142.609 139.866 142.804C140.061 143 140.378 143 140.573 142.804L143.755 139.622ZM81.8125 139.769H143.401V138.769H81.8125V139.769Z" fill="#B1CAE3"/>
<rect x="82.0848" y="300.773" width="23.4242" height="22.2128" fill="#034C95" stroke="#568CC2" stroke-width="0.4"/>
<line x1="81.7504" y1="300.424" x2="90.4321" y2="292.55" stroke="#568CC2" stroke-width="0.4"/>
<line x1="105.576" y1="300.423" x2="114.46" y2="292.549" stroke="#568CC2" stroke-width="0.4"/>
<line x1="105.56" y1="310.534" x2="114.444" y2="300.641" stroke="#568CC2" stroke-width="0.4"/>
<line x1="81.8828" y1="310.467" x2="105.71" y2="310.467" stroke="#568CC2" stroke-width="0.4"/>
<line x1="93.5969" y1="323.186" x2="93.5969" y2="300.775" stroke="#568CC2" stroke-width="0.4"/>
<line x1="93.6625" y1="300.424" x2="102.344" y2="292.55" stroke="#568CC2" stroke-width="0.4"/>
<line x1="90.5664" y1="292.498" x2="114.593" y2="292.498" stroke="#568CC2" stroke-width="0.4"/>
<line x1="86.125" y1="296.537" x2="110.151" y2="296.537" stroke="#568CC2" stroke-width="0.4"/>
<line x1="114.392" y1="312.485" x2="114.392" y2="292.698" stroke="#568CC2" stroke-width="0.4"/>
<line x1="105.555" y1="323.058" x2="114.439" y2="312.357" stroke="#568CC2" stroke-width="0.4"/>
<rect x="114.794" y="302.59" width="23.4242" height="22.2128" fill="#034C95" stroke="#568CC2" stroke-width="0.4"/>
<line x1="114.459" y1="302.242" x2="123.141" y2="294.368" stroke="#568CC2" stroke-width="0.4"/>
<line x1="138.285" y1="302.24" x2="147.169" y2="294.366" stroke="#568CC2" stroke-width="0.4"/>
<line x1="138.269" y1="312.351" x2="147.153" y2="302.458" stroke="#568CC2" stroke-width="0.4"/>
<line x1="114.592" y1="312.285" x2="138.419" y2="312.285" stroke="#568CC2" stroke-width="0.4"/>
<line x1="126.306" y1="325.003" x2="126.306" y2="302.592" stroke="#568CC2" stroke-width="0.4"/>
<line x1="126.371" y1="302.242" x2="135.053" y2="294.368" stroke="#568CC2" stroke-width="0.4"/>
<line x1="123.275" y1="294.316" x2="147.302" y2="294.316" stroke="#568CC2" stroke-width="0.4"/>
<line x1="118.834" y1="298.354" x2="142.86" y2="298.354" stroke="#568CC2" stroke-width="0.4"/>
<line x1="147.101" y1="314.302" x2="147.101" y2="294.516" stroke="#568CC2" stroke-width="0.4"/>
<line x1="138.264" y1="324.875" x2="147.148" y2="314.175" stroke="#568CC2" stroke-width="0.4"/>
<rect x="147.501" y="305.215" width="23.4242" height="22.2128" fill="#034C95" stroke="#568CC2" stroke-width="0.4"/>
<line x1="147.166" y1="304.867" x2="155.848" y2="296.993" stroke="#568CC2" stroke-width="0.4"/>
<line x1="170.992" y1="304.865" x2="179.876" y2="296.991" stroke="#568CC2" stroke-width="0.4"/>
<line x1="170.976" y1="314.976" x2="179.86" y2="305.083" stroke="#568CC2" stroke-width="0.4"/>
<line x1="147.299" y1="314.91" x2="171.126" y2="314.91" stroke="#568CC2" stroke-width="0.4"/>
<line x1="159.013" y1="327.628" x2="159.013" y2="305.217" stroke="#568CC2" stroke-width="0.4"/>
<line x1="159.079" y1="304.867" x2="167.76" y2="296.993" stroke="#568CC2" stroke-width="0.4"/>
<line x1="155.982" y1="296.941" x2="180.009" y2="296.941" stroke="#568CC2" stroke-width="0.4"/>
<line x1="151.541" y1="300.979" x2="175.567" y2="300.979" stroke="#568CC2" stroke-width="0.4"/>
<line x1="179.808" y1="316.927" x2="179.808" y2="297.141" stroke="#568CC2" stroke-width="0.4"/>
<line x1="170.971" y1="327.5" x2="179.855" y2="316.8" stroke="#568CC2" stroke-width="0.4"/>
<rect x="73.202" y="319.146" width="23.4242" height="22.2128" fill="#034C95" stroke="#568CC2" stroke-width="0.4"/>
<line x1="72.8676" y1="318.798" x2="81.5493" y2="310.923" stroke="#568CC2" stroke-width="0.4"/>
<line x1="96.6935" y1="318.796" x2="105.577" y2="310.922" stroke="#568CC2" stroke-width="0.4"/>
<line x1="96.6774" y1="328.908" x2="105.561" y2="319.015" stroke="#568CC2" stroke-width="0.4"/>
<line x1="73" y1="328.841" x2="96.8276" y2="328.841" stroke="#568CC2" stroke-width="0.4"/>
<line x1="84.7141" y1="341.559" x2="84.7141" y2="319.148" stroke="#568CC2" stroke-width="0.4"/>
<line x1="84.7797" y1="318.798" x2="93.4614" y2="310.923" stroke="#568CC2" stroke-width="0.4"/>
<line x1="81.6836" y1="310.872" x2="105.71" y2="310.872" stroke="#568CC2" stroke-width="0.4"/>
<line x1="77.2422" y1="314.91" x2="101.268" y2="314.91" stroke="#568CC2" stroke-width="0.4"/>
<line x1="105.509" y1="330.858" x2="105.509" y2="311.071" stroke="#568CC2" stroke-width="0.4"/>
<line x1="96.6723" y1="341.431" x2="105.556" y2="330.73" stroke="#568CC2" stroke-width="0.4"/>
<rect x="105.909" y="320.963" width="23.4242" height="22.2128" fill="#034C95" stroke="#568CC2" stroke-width="0.4"/>
<line x1="105.575" y1="320.615" x2="114.256" y2="312.741" stroke="#568CC2" stroke-width="0.4"/>
<line x1="129.401" y1="320.613" x2="138.284" y2="312.739" stroke="#568CC2" stroke-width="0.4"/>
<line x1="129.384" y1="330.724" x2="138.268" y2="320.831" stroke="#568CC2" stroke-width="0.4"/>
<line x1="105.707" y1="330.658" x2="129.535" y2="330.658" stroke="#568CC2" stroke-width="0.4"/>
<line x1="117.421" y1="343.376" x2="117.421" y2="320.965" stroke="#568CC2" stroke-width="0.4"/>
<line x1="117.487" y1="320.615" x2="126.168" y2="312.741" stroke="#568CC2" stroke-width="0.4"/>
<line x1="114.391" y1="312.689" x2="138.417" y2="312.689" stroke="#568CC2" stroke-width="0.4"/>
<line x1="109.949" y1="316.727" x2="133.975" y2="316.727" stroke="#568CC2" stroke-width="0.4"/>
<line x1="138.216" y1="332.675" x2="138.216" y2="312.889" stroke="#568CC2" stroke-width="0.4"/>
<line x1="129.379" y1="343.248" x2="138.263" y2="332.548" stroke="#568CC2" stroke-width="0.4"/>
<rect x="138.618" y="323.587" width="23.4242" height="22.2128" fill="#034C95" stroke="#568CC2" stroke-width="0.4"/>
<line x1="138.284" y1="323.239" x2="146.965" y2="315.365" stroke="#568CC2" stroke-width="0.4"/>
<line x1="162.11" y1="323.237" x2="170.993" y2="315.363" stroke="#568CC2" stroke-width="0.4"/>
<line x1="162.093" y1="333.348" x2="170.977" y2="323.455" stroke="#568CC2" stroke-width="0.4"/>
<line x1="138.416" y1="333.282" x2="162.244" y2="333.282" stroke="#568CC2" stroke-width="0.4"/>
<line x1="150.13" y1="346" x2="150.13" y2="323.589" stroke="#568CC2" stroke-width="0.4"/>
<line x1="150.196" y1="323.239" x2="158.877" y2="315.365" stroke="#568CC2" stroke-width="0.4"/>
<line x1="147.1" y1="315.313" x2="171.126" y2="315.313" stroke="#568CC2" stroke-width="0.4"/>
<line x1="142.658" y1="319.351" x2="166.684" y2="319.351" stroke="#568CC2" stroke-width="0.4"/>
<line x1="170.925" y1="335.299" x2="170.925" y2="315.513" stroke="#568CC2" stroke-width="0.4"/>
<line x1="162.088" y1="345.872" x2="170.972" y2="335.172" stroke="#568CC2" stroke-width="0.4"/>
<rect x="90.7664" y="269.074" width="23.4242" height="22.2128" fill="#034C95" stroke="#568CC2" stroke-width="0.4"/>
<line x1="90.432" y1="268.726" x2="99.1138" y2="260.852" stroke="#568CC2" stroke-width="0.4"/>
<line x1="114.258" y1="268.725" x2="123.142" y2="260.851" stroke="#568CC2" stroke-width="0.4"/>
<line x1="114.242" y1="278.835" x2="123.125" y2="268.942" stroke="#568CC2" stroke-width="0.4"/>
<line x1="90.5645" y1="278.769" x2="114.392" y2="278.769" stroke="#568CC2" stroke-width="0.4"/>
<line x1="102.279" y1="291.488" x2="102.279" y2="269.077" stroke="#568CC2" stroke-width="0.4"/>
<line x1="102.344" y1="268.726" x2="111.026" y2="260.852" stroke="#568CC2" stroke-width="0.4"/>
<line x1="99.248" y1="260.8" x2="123.274" y2="260.8" stroke="#568CC2" stroke-width="0.4"/>
<line x1="94.8066" y1="264.838" x2="118.833" y2="264.838" stroke="#568CC2" stroke-width="0.4"/>
<line x1="123.073" y1="280.786" x2="123.073" y2="261" stroke="#568CC2" stroke-width="0.4"/>
<line x1="114.237" y1="291.36" x2="123.12" y2="280.659" stroke="#568CC2" stroke-width="0.4"/>
<rect x="123.475" y="270.892" width="23.4242" height="22.2128" fill="#034C95" stroke="#568CC2" stroke-width="0.4"/>
<line x1="123.141" y1="270.544" x2="131.823" y2="262.67" stroke="#568CC2" stroke-width="0.4"/>
<line x1="146.967" y1="270.542" x2="155.851" y2="262.668" stroke="#568CC2" stroke-width="0.4"/>
<line x1="146.951" y1="280.653" x2="155.834" y2="270.76" stroke="#568CC2" stroke-width="0.4"/>
<line x1="123.273" y1="280.586" x2="147.101" y2="280.586" stroke="#568CC2" stroke-width="0.4"/>
<line x1="134.988" y1="293.305" x2="134.988" y2="270.894" stroke="#568CC2" stroke-width="0.4"/>
<line x1="135.053" y1="270.544" x2="143.735" y2="262.67" stroke="#568CC2" stroke-width="0.4"/>
<line x1="131.957" y1="262.618" x2="155.983" y2="262.618" stroke="#568CC2" stroke-width="0.4"/>
<line x1="127.516" y1="266.656" x2="151.542" y2="266.656" stroke="#568CC2" stroke-width="0.4"/>
<line x1="155.782" y1="282.604" x2="155.782" y2="262.818" stroke="#568CC2" stroke-width="0.4"/>
<line x1="146.946" y1="293.177" x2="155.829" y2="282.476" stroke="#568CC2" stroke-width="0.4"/>
<rect x="156.182" y="273.516" width="23.4242" height="22.2128" fill="#034C95" stroke="#568CC2" stroke-width="0.4"/>
<line x1="155.848" y1="273.168" x2="164.53" y2="265.294" stroke="#568CC2" stroke-width="0.4"/>
<line x1="179.674" y1="273.166" x2="188.558" y2="265.292" stroke="#568CC2" stroke-width="0.4"/>
<line x1="179.658" y1="283.277" x2="188.541" y2="273.384" stroke="#568CC2" stroke-width="0.4"/>
<line x1="155.98" y1="283.21" x2="179.808" y2="283.21" stroke="#568CC2" stroke-width="0.4"/>
<line x1="167.695" y1="295.929" x2="167.695" y2="273.518" stroke="#568CC2" stroke-width="0.4"/>
<line x1="167.76" y1="273.168" x2="176.442" y2="265.294" stroke="#568CC2" stroke-width="0.4"/>
<line x1="164.664" y1="265.242" x2="188.69" y2="265.242" stroke="#568CC2" stroke-width="0.4"/>
<line x1="160.223" y1="269.28" x2="184.249" y2="269.28" stroke="#568CC2" stroke-width="0.4"/>
<line x1="188.489" y1="285.228" x2="188.489" y2="265.442" stroke="#568CC2" stroke-width="0.4"/>
<line x1="179.653" y1="295.801" x2="188.536" y2="285.1" stroke="#568CC2" stroke-width="0.4"/>
<path d="M121.615 206.16C124.495 206.16 126.239 204.56 126.239 201.984V201.888H124.399V201.984C124.399 203.744 123.583 204.496 121.567 204.496C119.343 204.496 118.447 203.424 118.447 200.64C118.447 197.856 119.343 196.784 121.567 196.784C123.583 196.784 124.399 197.536 124.399 199.296V199.392H126.239V199.296C126.239 196.72 124.495 195.12 121.615 195.12C118.495 195.12 116.607 197.296 116.607 200.64C116.607 203.984 118.495 206.16 121.615 206.16ZM129.435 206V201.424C129.435 199.92 130.075 199.376 131.483 199.376C132.939 199.376 133.387 199.968 133.387 201.392V206H135.115V200.992C135.115 199.248 134.235 197.888 132.155 197.888C130.715 197.888 129.867 198.656 129.499 199.376H129.435V195.28H127.707V206H129.435ZM139.777 206.16C141.329 206.16 142.177 205.328 142.561 204.416H142.625V206H144.225V198.048H142.497V202.528C142.497 204.096 141.745 204.672 140.417 204.672C139.041 204.672 138.497 204.08 138.497 202.656V198.048H136.769V202.96C136.769 204.768 137.697 206.16 139.777 206.16ZM147.654 206V201.408C147.654 199.92 148.294 199.376 149.702 199.376C151.158 199.376 151.606 199.968 151.606 201.392V206H153.334V201.008C153.334 199.2 152.406 197.888 150.342 197.888C148.79 197.888 147.942 198.688 147.574 199.536H147.51V198.048H145.926V206H147.654ZM156.717 206V202.752H158.301L160.381 206H162.397L159.677 201.808L162.445 198.048H160.413L158.285 201.2H156.717V195.28H154.989V206H156.717ZM173.899 206V204.448H168.187V195.28H166.459V206H173.899ZM176.061 206L177.149 203.216H182.125L183.213 206H185.085L180.909 195.28H178.429L174.253 206H176.061ZM178.877 198.832L179.581 196.848H179.709L180.397 198.832L181.517 201.664H177.757L178.877 198.832ZM187.53 206V201.872H188.794C190.074 201.872 190.522 202.304 191.018 203.232L192.538 206H194.538L192.938 203.024C192.538 202.288 192.074 201.808 191.29 201.552V201.424C193.178 201.328 194.266 200.256 194.266 198.48C194.266 196.448 192.778 195.28 190.41 195.28H185.802V206H187.53ZM187.53 196.832H190.618C192.01 196.832 192.538 197.376 192.538 198.64C192.538 199.936 192.01 200.448 190.618 200.448H187.53V196.832ZM199.968 206.16C201.76 206.16 202.88 205.296 203.28 204.32H203.344V206H204.928V200.496H199.92V201.984H203.264V202.24C203.264 203.92 202.336 204.496 200.368 204.496C198 204.496 197.04 203.424 197.04 200.64C197.04 197.856 197.968 196.784 200.224 196.784C202.272 196.784 203.088 197.504 203.088 199.12V199.232H204.912V199.12C204.912 196.656 203.168 195.12 200.304 195.12C197.12 195.12 195.2 197.296 195.2 200.64C195.2 204.048 196.928 206.16 199.968 206.16ZM214.279 206V204.448H208.343V201.392H214.039V199.824H208.343V196.832H214.279V195.28H206.615V206H214.279ZM223.577 206V201.712H229.209V200.144H223.577V196.832H229.449V195.28H221.849V206H223.577ZM232.292 197.04V195.28H230.564L230.58 197.04H232.292ZM232.308 206V198H230.58V206H232.308ZM235.623 206V195.28H233.895V206H235.623ZM240.79 206.16C242.934 206.16 244.358 205.104 244.358 203.472V203.328H242.646V203.456C242.646 204.176 242.134 204.624 240.806 204.624C239.142 204.624 238.614 203.888 238.55 202.432H244.326C244.374 202.192 244.422 201.76 244.422 201.344C244.422 199.168 242.918 197.888 240.774 197.888C238.406 197.888 236.934 199.552 236.934 202.016C236.934 204.496 238.166 206.16 240.79 206.16ZM240.742 199.344C242.102 199.344 242.838 199.92 242.774 201.28H238.566C238.662 200.048 239.238 199.344 240.742 199.344ZM249.223 206.16C251.239 206.16 252.407 205.296 252.407 203.824C252.407 202.512 251.607 201.824 250.071 201.52L248.727 201.264C247.607 201.04 247.319 200.864 247.319 200.256C247.319 199.648 247.623 199.312 248.887 199.312C250.311 199.312 250.567 199.84 250.567 200.576V200.768H252.215V200.624C252.215 198.816 250.807 197.888 248.935 197.888C246.855 197.888 245.671 198.848 245.671 200.288C245.671 201.728 246.567 202.368 247.991 202.624L249.223 202.832C250.391 203.04 250.775 203.232 250.775 203.872C250.775 204.464 250.535 204.752 249.255 204.752C247.735 204.752 247.351 204.432 247.351 203.568V203.28H245.687V203.312C245.687 205.248 246.903 206.16 249.223 206.16ZM153.615 226.16C156.655 226.16 158.607 223.984 158.607 220.64C158.607 217.296 156.655 215.12 153.615 215.12C150.559 215.12 148.607 217.296 148.607 220.64C148.607 223.984 150.559 226.16 153.615 226.16ZM153.615 224.496C151.391 224.496 150.447 223.424 150.447 220.64C150.447 217.856 151.391 216.784 153.615 216.784C155.839 216.784 156.767 217.856 156.767 220.64C156.767 223.424 155.839 224.496 153.615 224.496ZM161.764 226V221.408C161.764 219.92 162.404 219.376 163.812 219.376C165.268 219.376 165.716 219.968 165.716 221.392V226H167.444V221.008C167.444 219.2 166.516 217.888 164.452 217.888C162.9 217.888 162.052 218.688 161.684 219.536H161.62V218.048H160.036V226H161.764ZM175.442 226C175.986 226 176.53 225.936 176.866 225.856V224.448H175.89C174.818 224.448 174.466 224.304 174.466 223.472V219.488H176.866V218.048H174.466V216.08H173.138L172.77 218.048H171.41V219.488H172.738V223.552C172.738 225.344 173.666 226 175.442 226ZM179.826 226V221.424C179.826 219.92 180.466 219.376 181.874 219.376C183.33 219.376 183.778 219.968 183.778 221.392V226H185.506V220.992C185.506 219.248 184.626 217.888 182.546 217.888C181.106 217.888 180.258 218.656 179.89 219.376H179.826V215.28H178.098V226H179.826ZM190.712 226.16C192.856 226.16 194.28 225.104 194.28 223.472V223.328H192.568V223.456C192.568 224.176 192.056 224.624 190.728 224.624C189.064 224.624 188.536 223.888 188.472 222.432H194.248C194.296 222.192 194.344 221.76 194.344 221.344C194.344 219.168 192.84 217.888 190.696 217.888C188.328 217.888 186.856 219.552 186.856 222.016C186.856 224.496 188.088 226.16 190.712 226.16ZM190.664 219.344C192.024 219.344 192.76 219.92 192.696 221.28H188.488C188.584 220.048 189.16 219.344 190.664 219.344ZM203.265 226.16C205.057 226.16 206.177 225.296 206.577 224.32H206.641V226H208.225V220.496H203.217V221.984H206.561V222.24C206.561 223.92 205.633 224.496 203.665 224.496C201.297 224.496 200.337 223.424 200.337 220.64C200.337 217.856 201.265 216.784 203.521 216.784C205.569 216.784 206.385 217.504 206.385 219.12V219.232H208.209V219.12C208.209 216.656 206.465 215.12 203.601 215.12C200.417 215.12 198.497 217.296 198.497 220.64C198.497 224.048 200.225 226.16 203.265 226.16ZM214.693 226.16C217.733 226.16 219.685 223.984 219.685 220.64C219.685 217.296 217.733 215.12 214.693 215.12C211.637 215.12 209.685 217.296 209.685 220.64C209.685 223.984 211.637 226.16 214.693 226.16ZM214.693 224.496C212.469 224.496 211.525 223.424 211.525 220.64C211.525 217.856 212.469 216.784 214.693 216.784C216.917 216.784 217.845 217.856 217.845 220.64C217.845 223.424 216.917 224.496 214.693 224.496ZM222.954 222.48C222.954 220.944 223.21 217.632 223.21 216.4V215.28H221.018V216.4C221.018 217.632 221.274 220.928 221.274 222.48H222.954ZM223.098 226V223.632H221.146V226H223.098Z" fill="#034C95"/>
<path d="M102.793 242.711C103.183 243.101 103.817 243.101 104.207 242.711L110.571 236.347C110.962 235.956 110.962 235.323 110.571 234.933C110.181 234.542 109.547 234.542 109.157 234.933L103.5 240.589L97.8431 234.933C97.4526 234.542 96.8195 234.542 96.4289 234.933C96.0384 235.323 96.0384 235.956 96.4289 236.347L102.793 242.711ZM102.5 162.997L102.5 242.004H104.5V162.997H102.5Z" fill="#034C95"/>
</g>
<defs>
<filter id="filter0_d_2291_10061" x="0" y="0.000244141" width="285" height="422" filterUnits="userSpaceOnUse" color-interpolation-filters="sRGB">
<feFlood flood-opacity="0" result="BackgroundImageFix"/>
<feColorMatrix in="SourceAlpha" type="matrix" values="0 0 0 0 0 0 0 0 0 0 0 0 0 0 0 0 0 0 127 0" result="hardAlpha"/>
<feOffset/>
<feGaussianBlur stdDeviation="8"/>
<feComposite in2="hardAlpha" operator="out"/>
<feColorMatrix type="matrix" values="0 0 0 0 0 0 0 0 0 0 0 0 0 0 0 0 0 0 0.2 0"/>
<feBlend mode="normal" in2="BackgroundImageFix" result="effect1_dropShadow_2291_10061"/>
<feBlend mode="normal" in="SourceGraphic" in2="effect1_dropShadow_2291_10061" result="shape"/>
</filter>
</defs>
</svg>
