<svg width="32" height="32" viewBox="0 0 32 32" fill="none" xmlns="http://www.w3.org/2000/svg">
<path d="M16.0003 30.3368C8.09366 30.3368 1.66699 23.9102 1.66699 16.0035C1.66699 8.09683 8.09366 1.67017 16.0003 1.67017C23.907 1.67017 30.3337 8.09683 30.3337 16.0035C30.3337 23.9102 23.907 30.3368 16.0003 30.3368ZM16.0003 3.67017C9.20032 3.67017 3.66699 9.2035 3.66699 16.0035C3.66699 22.8035 9.20032 28.3368 16.0003 28.3368C22.8003 28.3368 28.3337 22.8035 28.3337 16.0035C28.3337 9.2035 22.8003 3.67017 16.0003 3.67017Z" fill="#FDFDFE"/>
<path d="M16.3206 22.3351C12.8273 22.3351 9.9873 19.4951 9.9873 16.0018C9.9873 12.5085 12.8273 9.66846 16.3206 9.66846C17.854 9.66846 19.3473 10.2285 20.494 11.2551C20.9073 11.6151 20.9473 12.2551 20.5873 12.6685C20.2273 13.0818 19.5873 13.1218 19.174 12.7618C18.3873 12.0685 17.374 11.6818 16.3206 11.6818C13.934 11.6818 11.9873 13.6285 11.9873 16.0151C11.9873 18.4018 13.934 20.3485 16.3206 20.3485C17.3606 20.3485 18.3873 19.9618 19.174 19.2685C19.5873 18.9085 20.2273 18.9485 20.5873 19.3618C20.9473 19.7751 20.9073 20.4151 20.494 20.7751C19.334 21.7751 17.854 22.3351 16.3206 22.3351Z" fill="#FDFDFE"/>
</svg>
