<svg width="48" height="48" viewBox="0 0 48 48" fill="none" xmlns="http://www.w3.org/2000/svg">
<path d="M24 45.5029C12.14 45.5029 2.5 35.8629 2.5 24.0029C2.5 12.1429 12.14 2.50293 24 2.50293C35.86 2.50293 45.5 12.1429 45.5 24.0029C45.5 35.8629 35.86 45.5029 24 45.5029ZM24 5.50293C13.8 5.50293 5.5 13.8029 5.5 24.0029C5.5 34.2029 13.8 42.5029 24 42.5029C34.2 42.5029 42.5 34.2029 42.5 24.0029C42.5 13.8029 34.2 5.50293 24 5.50293Z" fill="#012345"/>
<path d="M18.3387 31.1627C17.9587 31.1627 17.5787 31.0227 17.2787 30.7227C16.6988 30.1427 16.6988 29.1827 17.2787 28.6027L28.5987 17.2827C29.1787 16.7027 30.1387 16.7027 30.7187 17.2827C31.2987 17.8627 31.2987 18.8227 30.7187 19.4027L19.3987 30.7227C19.1187 31.0227 18.7187 31.1627 18.3387 31.1627Z" fill="#012345"/>
<path d="M29.6587 31.1627C29.2787 31.1627 28.8987 31.0227 28.5987 30.7227L17.2787 19.4027C16.6988 18.8227 16.6988 17.8627 17.2787 17.2827C17.8587 16.7027 18.8187 16.7027 19.3987 17.2827L30.7187 28.6027C31.2987 29.1827 31.2987 30.1427 30.7187 30.7227C30.4187 31.0227 30.0387 31.1627 29.6587 31.1627Z" fill="#012345"/>
</svg>
