<svg width="24" height="32" viewBox="0 0 24 32" fill="none" xmlns="http://www.w3.org/2000/svg">
<path d="M11.9998 29.7143H2.39996V2.28608H11.9998V9.14314C12.0017 9.74878 12.2552 10.3291 12.7048 10.7574C13.1545 11.1856 13.7638 11.427 14.3998 11.4288H21.5996V16.0002H23.9996V9.14314C24.0038 8.99294 23.9739 8.84365 23.9117 8.70555C23.8496 8.56745 23.7567 8.44381 23.6396 8.34314L15.2397 0.343242C15.1341 0.231637 15.0043 0.143187 14.8593 0.0839957C14.7143 0.024804 14.5575 -0.0037209 14.3998 0.000388613H2.39996C1.76404 0.00219742 1.1547 0.243591 0.70503 0.671849C0.255361 1.10011 0.00189924 1.68043 0 2.28608V29.7143C0.00189924 30.32 0.255361 30.9003 0.70503 31.3285C1.1547 31.7568 1.76404 31.9982 2.39996 32H11.9998V29.7143ZM14.3998 2.74321L21.1197 9.14314H14.3998V2.74321Z" fill="#0353A4"/>
<path d="M22.2857 22.1864H18.1714V17.0664H16.1143V22.1864H12V24.7464H16.1143V29.8664H18.1714V24.7464H22.2857V22.1864Z" fill="#0353A4"/>
</svg>
