<svg width="28" height="29" viewBox="0 0 28 29" fill="none" xmlns="http://www.w3.org/2000/svg">
<path d="M10.4999 21.2104C10.0215 21.2104 9.62485 20.8138 9.62485 20.3354V15.4471L8.78485 16.2871C8.44652 16.6254 7.88652 16.6254 7.54818 16.2871C7.20985 15.9488 7.20985 15.3888 7.54818 15.0504L9.88152 12.7171C10.1265 12.4721 10.5115 12.3904 10.8382 12.5304C11.1649 12.6588 11.3749 12.9854 11.3749 13.3354V20.3354C11.3749 20.8138 10.9782 21.2104 10.4999 21.2104Z" fill="#012345"/>
<path d="M12.8333 16.5426C12.6117 16.5426 12.39 16.4609 12.215 16.2859L9.88168 13.9526C9.54335 13.6142 9.54335 13.0542 9.88168 12.7159C10.22 12.3776 10.78 12.3776 11.1183 12.7159L13.4517 15.0492C13.79 15.3876 13.79 15.9476 13.4517 16.2859C13.2767 16.4609 13.055 16.5426 12.8333 16.5426Z" fill="#012345"/>
<path d="M17.4997 27.043H10.4997C4.16467 27.043 1.45801 24.3364 1.45801 18.0014V11.0014C1.45801 4.66638 4.16467 1.95972 10.4997 1.95972H16.333C16.8113 1.95972 17.208 2.35638 17.208 2.83472C17.208 3.31305 16.8113 3.70972 16.333 3.70972H10.4997C5.12134 3.70972 3.20801 5.62305 3.20801 11.0014V18.0014C3.20801 23.3797 5.12134 25.293 10.4997 25.293H17.4997C22.878 25.293 24.7913 23.3797 24.7913 18.0014V12.168C24.7913 11.6897 25.188 11.293 25.6663 11.293C26.1447 11.293 26.5413 11.6897 26.5413 12.168V18.0014C26.5413 24.3364 23.8347 27.043 17.4997 27.043Z" fill="#012345"/>
<path d="M25.6668 13.0435H21.0002C17.0102 13.0435 15.4585 11.4919 15.4585 7.50186V2.83519C15.4585 2.48519 15.6685 2.15853 15.9952 2.03019C16.3218 1.89019 16.6952 1.97186 16.9518 2.21686L26.2852 11.5502C26.5302 11.7952 26.6118 12.1802 26.4718 12.5069C26.3318 12.8335 26.0168 13.0435 25.6668 13.0435ZM17.2085 4.94686V7.50186C17.2085 10.5119 17.9902 11.2935 21.0002 11.2935H23.5552L17.2085 4.94686Z" fill="#012345"/>
</svg>
