<svg width="65" height="64" viewBox="0 0 65 64" fill="none" xmlns="http://www.w3.org/2000/svg">
<path d="M25.5309 22.0324C27.0463 20.6746 28.4453 19.3168 29.9607 18.0825C28.7951 17.2185 27.7459 16.4779 26.6967 15.7373C25.4143 16.8482 24.1321 18.0825 22.8497 19.3168C24.1321 19.8106 25.0647 20.798 25.5309 22.0324Z" fill="#034C95"/>
<path d="M21.8066 28.3414C24.612 28.349 26.892 26.0066 26.8994 23.1094C26.9066 20.2122 24.6386 17.8573 21.8334 17.8496C19.028 17.8419 16.748 20.1844 16.7406 23.0816C16.7333 25.9788 19.0014 28.3338 21.8066 28.3414Z" fill="#034C95"/>
<path d="M26.2971 52.3283C19.0926 56.3973 12.865 57.4147 10.0565 54.6171C6.14898 50.6753 9.69018 40.3755 18.2379 29.9485C16.8947 29.5671 15.7957 28.5499 15.1851 27.2783C2.7299 41.7743 -2.88716 56.3973 2.60778 61.8651C7.12586 66.4429 17.9937 63.3911 29.9605 55.2529C28.7393 54.3629 27.5183 53.3457 26.2971 52.3283Z" fill="#034C95"/>
<path d="M34.5146 17.5838C34.8798 16.1889 35.8538 15.0476 37.0714 14.4136C22.7044 2.11309 8.09395 -3.33971 2.61501 2.11309C-1.88989 6.67821 1.03221 17.457 9.18975 29.377C10.1638 28.109 11.1378 26.9678 12.1118 25.6996C8.09395 18.4715 6.99817 12.2578 9.79851 9.34119C13.8164 5.41011 24.0438 9.08759 34.5146 17.5838Z" fill="#034C95"/>
<path d="M44.8769 20.9834C44.4027 22.255 43.3361 23.2724 42.1509 23.7812C43.9287 25.6888 45.5879 27.4692 47.0101 29.3768C47.8397 28.2322 48.6695 27.0876 49.2621 25.943C47.9583 24.2898 46.4175 22.6366 44.8769 20.9834Z" fill="#034C95"/>
<path d="M41.1356 26.229C43.9706 26.229 46.215 23.926 46.215 20.9832C46.215 18.0404 43.9706 15.7373 41.1356 15.7373C38.3006 15.7373 36.0562 18.0404 36.0562 20.9832C36.0562 23.798 38.3006 26.229 41.1356 26.229Z" fill="#034C95"/>
<path d="M55.0256 9.4128C58.9492 13.3503 55.3934 23.6386 46.8108 34.054C48.1596 34.435 49.263 35.4512 49.876 36.7212C62.2596 22.2414 67.8996 7.50756 62.3822 2.04588C57.8456 -2.3997 46.9334 0.648695 35.0404 8.77772C36.2664 9.66684 37.4924 10.683 38.7186 11.6991C45.9526 7.63458 52.2056 6.61846 55.0256 9.4128Z" fill="#034C95"/>
<path d="M40.3808 40.918C38.6394 42.6908 36.7818 44.337 35.0404 45.8564C36.2014 46.7428 37.2462 47.5026 38.4072 48.2624C40.0326 46.8694 41.5418 45.35 43.1672 43.7038C41.8902 43.1974 40.9614 42.1844 40.3808 40.918Z" fill="#034C95"/>
<path d="M44.2105 35.6568C41.4053 35.6488 39.1249 37.9908 39.1173 40.888C39.1095 43.7854 41.3775 46.1404 44.1827 46.1484C46.9879 46.1566 49.2683 43.8144 49.2759 40.9172C49.2837 38.02 47.0157 35.6648 44.2105 35.6568Z" fill="#034C95"/>
<path d="M22.8498 40.2186C21.072 38.311 19.4127 36.5306 17.9905 34.623C17.1609 35.7674 16.3312 36.912 15.7386 38.0566C17.1609 39.7098 18.5831 41.3632 20.1238 43.0164C20.598 41.7446 21.546 40.7272 22.8498 40.2186Z" fill="#034C95"/>
<path d="M55.8399 34.623C54.8691 35.8864 53.8983 37.0236 52.9275 38.2872C56.9321 45.4896 58.0243 51.5546 55.1119 54.4608C51.1073 58.3778 40.9139 54.7136 30.4777 46.374C30.1137 47.764 29.1429 48.9012 27.9293 49.533C42.3701 61.7894 56.9321 67.3492 62.3929 61.9158C66.8827 57.2406 63.9703 46.374 55.8399 34.623Z" fill="#034C95"/>
<path d="M28.9578 43.044C28.9652 40.1468 26.697 37.792 23.8918 37.7842C21.0866 37.7766 18.8065 40.1192 18.7992 43.0164C18.7919 45.9136 21.06 48.2684 23.8652 48.276C26.6706 48.2836 28.9506 45.9412 28.9578 43.044Z" fill="#034C95"/>
</svg>
