<svg width="28" height="28" viewBox="0 0 28 28" fill="none" xmlns="http://www.w3.org/2000/svg">
<path d="M25.6665 8.45728H18.6665C18.1882 8.45728 17.7915 8.06061 17.7915 7.58228C17.7915 7.10394 18.1882 6.70728 18.6665 6.70728H25.6665C26.1448 6.70728 26.5415 7.10394 26.5415 7.58228C26.5415 8.06061 26.1448 8.45728 25.6665 8.45728Z" fill="#023B74"/>
<path d="M7.00016 8.45728H2.3335C1.85516 8.45728 1.4585 8.06061 1.4585 7.58228C1.4585 7.10394 1.85516 6.70728 2.3335 6.70728H7.00016C7.4785 6.70728 7.87516 7.10394 7.87516 7.58228C7.87516 8.06061 7.4785 8.45728 7.00016 8.45728Z" fill="#023B74"/>
<path d="M11.6678 12.5407C8.93781 12.5407 6.70947 10.3124 6.70947 7.58236C6.70947 4.85236 8.93781 2.62402 11.6678 2.62402C14.3978 2.62402 16.6261 4.85236 16.6261 7.58236C16.6261 10.3124 14.3978 12.5407 11.6678 12.5407ZM11.6678 4.37402C9.89447 4.37402 8.45947 5.80902 8.45947 7.58236C8.45947 9.35569 9.89447 10.7907 11.6678 10.7907C13.4411 10.7907 14.8761 9.35569 14.8761 7.58236C14.8761 5.80902 13.4411 4.37402 11.6678 4.37402Z" fill="#023B74"/>
<path d="M25.6667 21.2903H21C20.5217 21.2903 20.125 20.8936 20.125 20.4153C20.125 19.9369 20.5217 19.5403 21 19.5403H25.6667C26.145 19.5403 26.5417 19.9369 26.5417 20.4153C26.5417 20.8936 26.145 21.2903 25.6667 21.2903Z" fill="#023B74"/>
<path d="M9.3335 21.2903H2.3335C1.85516 21.2903 1.4585 20.8936 1.4585 20.4153C1.4585 19.9369 1.85516 19.5403 2.3335 19.5403H9.3335C9.81183 19.5403 10.2085 19.9369 10.2085 20.4153C10.2085 20.8936 9.81183 21.2903 9.3335 21.2903Z" fill="#023B74"/>
<path d="M16.3319 25.3737C13.6019 25.3737 11.3735 23.1454 11.3735 20.4154C11.3735 17.6854 13.6019 15.457 16.3319 15.457C19.0619 15.457 21.2902 17.6854 21.2902 20.4154C21.2902 23.1454 19.0619 25.3737 16.3319 25.3737ZM16.3319 17.207C14.5585 17.207 13.1235 18.642 13.1235 20.4154C13.1235 22.1887 14.5585 23.6237 16.3319 23.6237C18.1052 23.6237 19.5402 22.1887 19.5402 20.4154C19.5402 18.642 18.1052 17.207 16.3319 17.207Z" fill="#023B74"/>
</svg>
