<svg width="20" height="21" viewBox="0 0 20 21" fill="none" xmlns="http://www.w3.org/2000/svg">
<path d="M10 13.624C8.275 13.624 6.875 12.224 6.875 10.499C6.875 8.77402 8.275 7.37402 10 7.37402C11.725 7.37402 13.125 8.77402 13.125 10.499C13.125 12.224 11.725 13.624 10 13.624ZM10 8.62402C8.96667 8.62402 8.125 9.46569 8.125 10.499C8.125 11.5324 8.96667 12.374 10 12.374C11.0333 12.374 11.875 11.5324 11.875 10.499C11.875 9.46569 11.0333 8.62402 10 8.62402Z" fill="#012345"/>
<path d="M12.6748 18.9915C12.4998 18.9915 12.3248 18.9665 12.1498 18.9248C11.6332 18.7832 11.1998 18.4582 10.9248 17.9998L10.8248 17.8332C10.3332 16.9832 9.65817 16.9832 9.1665 17.8332L9.07484 17.9915C8.79984 18.4582 8.3665 18.7915 7.84984 18.9248C7.32484 19.0665 6.78317 18.9915 6.32484 18.7165L4.8915 17.8915C4.38317 17.5998 4.0165 17.1248 3.85817 16.5498C3.70817 15.9748 3.78317 15.3832 4.07484 14.8748C4.3165 14.4498 4.38317 14.0665 4.2415 13.8248C4.09984 13.5832 3.7415 13.4415 3.24984 13.4415C2.03317 13.4415 1.0415 12.4498 1.0415 11.2332V9.7665C1.0415 8.54983 2.03317 7.55817 3.24984 7.55817C3.7415 7.55817 4.09984 7.4165 4.2415 7.17483C4.38317 6.93317 4.32484 6.54983 4.07484 6.12483C3.78317 5.6165 3.70817 5.0165 3.85817 4.44983C4.00817 3.87483 4.37484 3.39983 4.8915 3.10817L6.33317 2.28317C7.27484 1.72483 8.5165 2.04983 9.08317 3.00817L9.18317 3.17483C9.67484 4.02483 10.3498 4.02483 10.8415 3.17483L10.9332 3.0165C11.4998 2.04983 12.7415 1.72483 13.6915 2.2915L15.1248 3.1165C15.6332 3.40817 15.9998 3.88317 16.1582 4.45817C16.3082 5.03317 16.2332 5.62483 15.9415 6.13317C15.6998 6.55817 15.6332 6.9415 15.7748 7.18317C15.9165 7.42483 16.2748 7.5665 16.7665 7.5665C17.9832 7.5665 18.9748 8.55817 18.9748 9.77483V11.2415C18.9748 12.4582 17.9832 13.4498 16.7665 13.4498C16.2748 13.4498 15.9165 13.5915 15.7748 13.8332C15.6332 14.0748 15.6915 14.4582 15.9415 14.8832C16.2332 15.3915 16.3165 15.9915 16.1582 16.5582C16.0082 17.1332 15.6415 17.6082 15.1248 17.8998L13.6832 18.7248C13.3665 18.8998 13.0248 18.9915 12.6748 18.9915ZM9.99984 15.9082C10.7415 15.9082 11.4332 16.3748 11.9082 17.1998L11.9998 17.3582C12.0998 17.5332 12.2665 17.6582 12.4665 17.7082C12.6665 17.7582 12.8665 17.7332 13.0332 17.6332L14.4748 16.7998C14.6915 16.6748 14.8582 16.4665 14.9248 16.2165C14.9915 15.9665 14.9582 15.7082 14.8332 15.4915C14.3582 14.6748 14.2998 13.8332 14.6665 13.1915C15.0332 12.5498 15.7915 12.1832 16.7415 12.1832C17.2748 12.1832 17.6998 11.7582 17.6998 11.2248V9.75816C17.6998 9.23316 17.2748 8.79983 16.7415 8.79983C15.7915 8.79983 15.0332 8.43317 14.6665 7.7915C14.2998 7.14983 14.3582 6.30817 14.8332 5.4915C14.9582 5.27483 14.9915 5.0165 14.9248 4.7665C14.8582 4.5165 14.6998 4.3165 14.4832 4.18317L13.0415 3.35817C12.6832 3.1415 12.2082 3.2665 11.9915 3.63317L11.8998 3.7915C11.4248 4.6165 10.7332 5.08317 9.9915 5.08317C9.24984 5.08317 8.55817 4.6165 8.08317 3.7915L7.9915 3.62483C7.78317 3.27483 7.3165 3.14983 6.95817 3.35817L5.5165 4.1915C5.29984 4.3165 5.13317 4.52483 5.0665 4.77483C4.99984 5.02483 5.03317 5.28317 5.15817 5.49983C5.63317 6.3165 5.6915 7.15817 5.32484 7.79983C4.95817 8.4415 4.19984 8.80817 3.24984 8.80817C2.7165 8.80817 2.2915 9.23317 2.2915 9.7665V11.2332C2.2915 11.7582 2.7165 12.1915 3.24984 12.1915C4.19984 12.1915 4.95817 12.5582 5.32484 13.1998C5.6915 13.8415 5.63317 14.6832 5.15817 15.4998C5.03317 15.7165 4.99984 15.9748 5.0665 16.2248C5.13317 16.4748 5.2915 16.6748 5.50817 16.8082L6.94984 17.6332C7.12484 17.7415 7.33317 17.7665 7.52484 17.7165C7.72484 17.6665 7.89151 17.5332 7.99984 17.3582L8.0915 17.1998C8.5665 16.3832 9.25817 15.9082 9.99984 15.9082Z" fill="#012345"/>
</svg>
