<svg width="91" height="75" viewBox="0 0 91 75" fill="none" xmlns="http://www.w3.org/2000/svg">
<path d="M84.513 74.8734C84.9954 75.1424 85.6045 74.9693 85.8734 74.487L90.2561 66.6262C90.5251 66.1438 90.3521 65.5347 89.8697 65.2658C89.3873 64.9968 88.7782 65.1699 88.5093 65.6522L84.6135 72.6396L77.6262 68.7439C77.1438 68.4749 76.5347 68.6479 76.2658 69.1303C75.9969 69.6127 76.1699 70.2218 76.6523 70.4907L84.513 74.8734ZM0.890528 1.99399C52.7614 7.70675 76.2147 46.7337 84.0381 74.2733L85.9619 73.7267C78.0159 45.755 54.0983 5.8419 1.10947 0.00601017L0.890528 1.99399Z" fill="#E82E5D"/>
</svg>
