<svg width="1568" height="632" viewBox="0 0 1568 632" fill="none" xmlns="http://www.w3.org/2000/svg">
<rect y="0.760742" width="1568" height="631" rx="32" fill="#E6EEF6"/>
<path d="M56.3389 243.391H301.733V452.857H56.3389V243.391Z" fill="#B1CAE3" stroke="#023B74" stroke-width="0.677885"/>
<line x1="56.1346" y1="243.12" x2="211.37" y2="125.846" stroke="#023B74" stroke-width="0.677885"/>
<line x1="99.5193" y1="243.12" x2="254.755" y2="125.846" stroke="#023B74" stroke-width="0.677885"/>
<line x1="164.596" y1="241.764" x2="319.832" y2="124.49" stroke="#023B74" stroke-width="0.677885"/>
<line x1="224.25" y1="241.764" x2="379.485" y2="124.49" stroke="#023B74" stroke-width="0.677885"/>
<line x1="302.179" y1="285.85" x2="428.116" y2="167.442" stroke="#023B74" stroke-width="0.677885"/>
<line x1="302.179" y1="330.37" x2="428.116" y2="211.961" stroke="#023B74" stroke-width="0.677885"/>
<line x1="302.179" y1="371.043" x2="428.116" y2="252.634" stroke="#023B74" stroke-width="0.677885"/>
<line x1="302.179" y1="419.172" x2="428.116" y2="300.764" stroke="#023B74" stroke-width="0.677885"/>
<line x1="302.857" y1="452.389" x2="428.794" y2="333.98" stroke="#023B74" stroke-width="0.677885"/>
<line x1="211.572" y1="125.812" x2="428.495" y2="124.422" stroke="#023B74" stroke-width="0.677885"/>
<line x1="428.159" y1="334.904" x2="428.836" y2="124.76" stroke="#023B74" stroke-width="0.677885"/>
<line x1="301.503" y1="243.142" x2="428.267" y2="125.868" stroke="#023B74" stroke-width="0.677885"/>
<line x1="92.9424" y1="215.256" x2="331.562" y2="215.256" stroke="#023B74" stroke-width="0.677885"/>
<line x1="124.126" y1="191.533" x2="357.318" y2="190.853" stroke="#023B74" stroke-width="0.677885"/>
<line x1="151.919" y1="170.518" x2="380.366" y2="169.836" stroke="#023B74" stroke-width="0.677885"/>
<line x1="183.104" y1="148.152" x2="404.094" y2="148.148" stroke="#023B74" stroke-width="0.677885"/>
<line x1="331.221" y1="425.064" x2="331.221" y2="216.275" stroke="#023B74" stroke-width="0.677885"/>
<line x1="356.981" y1="402.016" x2="356.981" y2="193.227" stroke="#023B74" stroke-width="0.677885"/>
<line x1="379.351" y1="380.322" x2="380.029" y2="170.856" stroke="#023B74" stroke-width="0.677885"/>
<line x1="403.755" y1="357.275" x2="403.755" y2="148.487" stroke="#023B74" stroke-width="0.677885"/>
<path d="M277.384 274.976C277.781 274.579 277.781 273.935 277.384 273.538L270.913 267.067C270.516 266.67 269.872 266.67 269.475 267.067C269.078 267.464 269.078 268.108 269.475 268.505L275.227 274.257L269.475 280.009C269.078 280.406 269.078 281.05 269.475 281.447C269.872 281.844 270.516 281.844 270.913 281.447L277.384 274.976ZM73.2715 275.274H276.665V273.24H73.2715V275.274Z" fill="#023B74"/>
<path d="M277.399 312.576C277.796 312.179 277.796 311.535 277.399 311.138L270.928 304.667C270.531 304.27 269.887 304.27 269.49 304.667C269.093 305.064 269.093 305.708 269.49 306.105L275.242 311.857L269.49 317.609C269.093 318.006 269.093 318.65 269.49 319.047C269.887 319.444 270.531 319.444 270.928 319.047L277.399 312.576ZM73.2861 312.874H276.68V310.84H73.2861V312.874Z" fill="#023B74"/>
<path d="M277.399 349.182C277.796 348.785 277.796 348.141 277.399 347.744L270.928 341.273C270.531 340.876 269.887 340.876 269.49 341.273C269.093 341.67 269.093 342.314 269.49 342.711L275.242 348.463L269.49 354.215C269.093 354.612 269.093 355.256 269.49 355.653C269.887 356.05 270.531 356.05 270.928 355.653L277.399 349.182ZM73.2861 349.48H276.68V347.446H73.2861V349.48Z" fill="#023B74"/>
<path d="M277.399 393.922C277.796 393.525 277.796 392.881 277.399 392.484L270.928 386.013C270.531 385.616 269.887 385.616 269.49 386.013C269.093 386.41 269.093 387.054 269.49 387.451L275.242 393.203L269.49 398.955C269.093 399.352 269.093 399.996 269.49 400.393C269.887 400.79 270.531 400.79 270.928 400.393L277.399 393.922ZM73.2861 394.22H276.68V392.186H73.2861V394.22Z" fill="#023B74"/>
<path d="M279.306 433.493C279.703 433.096 279.703 432.453 279.306 432.055L272.835 425.584C272.437 425.187 271.794 425.187 271.397 425.584C270.999 425.981 270.999 426.625 271.397 427.022L277.149 432.774L271.397 438.526C270.999 438.924 270.999 439.567 271.397 439.964C271.794 440.362 272.437 440.362 272.835 439.964L279.306 433.493ZM75.1929 433.791H278.587V431.758H75.1929V433.791Z" fill="#023B74"/>
<rect x="1046.05" y="279.268" width="81.1496" height="76.9881" fill="#B1CAE3" stroke="#034C95" stroke-width="0.693587"/>
<line x1="1045.47" y1="278.665" x2="1075.29" y2="251.615" stroke="#034C95" stroke-width="0.693587"/>
<line x1="1127.31" y1="278.662" x2="1157.83" y2="251.612" stroke="#034C95" stroke-width="0.693587"/>
<line x1="1127.28" y1="313.369" x2="1157.8" y2="279.384" stroke="#034C95" stroke-width="0.693587"/>
<line x1="1045.69" y1="313.254" x2="1127.55" y2="313.254" stroke="#034C95" stroke-width="0.693587"/>
<line x1="1086.27" y1="356.603" x2="1086.27" y2="279.615" stroke="#034C95" stroke-width="0.693587"/>
<line x1="1086.39" y1="278.665" x2="1116.21" y2="251.615" stroke="#034C95" stroke-width="0.693587"/>
<line x1="1075.52" y1="251.525" x2="1158.06" y2="251.525" stroke="#034C95" stroke-width="0.693587"/>
<line x1="1060.27" y1="265.396" x2="1142.8" y2="265.396" stroke="#034C95" stroke-width="0.693587"/>
<line x1="1157.71" y1="319.843" x2="1157.71" y2="251.872" stroke="#034C95" stroke-width="0.693587"/>
<line x1="1127.28" y1="356.382" x2="1157.79" y2="319.621" stroke="#034C95" stroke-width="0.693587"/>
<rect x="1158.41" y="285.51" width="81.1496" height="76.9881" fill="#B1CAE3" stroke="#034C95" stroke-width="0.693587"/>
<line x1="1157.83" y1="284.907" x2="1187.65" y2="257.857" stroke="#034C95" stroke-width="0.693587"/>
<line x1="1239.67" y1="284.904" x2="1270.19" y2="257.854" stroke="#034C95" stroke-width="0.693587"/>
<line x1="1239.65" y1="319.611" x2="1270.16" y2="285.625" stroke="#034C95" stroke-width="0.693587"/>
<line x1="1158.05" y1="319.496" x2="1239.91" y2="319.496" stroke="#034C95" stroke-width="0.693587"/>
<line x1="1198.64" y1="362.845" x2="1198.64" y2="285.857" stroke="#034C95" stroke-width="0.693587"/>
<line x1="1198.75" y1="284.907" x2="1228.57" y2="257.857" stroke="#034C95" stroke-width="0.693587"/>
<line x1="1187.88" y1="257.767" x2="1270.42" y2="257.767" stroke="#034C95" stroke-width="0.693587"/>
<line x1="1172.63" y1="271.639" x2="1255.16" y2="271.639" stroke="#034C95" stroke-width="0.693587"/>
<line x1="1270.08" y1="326.085" x2="1270.08" y2="258.114" stroke="#034C95" stroke-width="0.693587"/>
<line x1="1239.64" y1="362.624" x2="1270.15" y2="325.864" stroke="#034C95" stroke-width="0.693587"/>
<rect x="1270.77" y="294.527" width="81.1496" height="76.9881" fill="#B1CAE3" stroke="#034C95" stroke-width="0.693587"/>
<line x1="1270.19" y1="293.923" x2="1300.01" y2="266.873" stroke="#034C95" stroke-width="0.693587"/>
<line x1="1352.03" y1="293.921" x2="1382.55" y2="266.871" stroke="#034C95" stroke-width="0.693587"/>
<line x1="1352.01" y1="328.628" x2="1382.52" y2="294.642" stroke="#034C95" stroke-width="0.693587"/>
<line x1="1270.42" y1="328.513" x2="1352.27" y2="328.513" stroke="#034C95" stroke-width="0.693587"/>
<line x1="1311" y1="371.862" x2="1311" y2="294.874" stroke="#034C95" stroke-width="0.693587"/>
<line x1="1311.11" y1="293.923" x2="1340.93" y2="266.873" stroke="#034C95" stroke-width="0.693587"/>
<line x1="1300.25" y1="266.784" x2="1382.78" y2="266.784" stroke="#034C95" stroke-width="0.693587"/>
<line x1="1284.99" y1="280.655" x2="1367.52" y2="280.655" stroke="#034C95" stroke-width="0.693587"/>
<line x1="1382.44" y1="335.102" x2="1382.44" y2="267.131" stroke="#034C95" stroke-width="0.693587"/>
<line x1="1352" y1="371.64" x2="1382.52" y2="334.88" stroke="#034C95" stroke-width="0.693587"/>
<rect x="1015.53" y="342.384" width="81.1496" height="76.9881" fill="#B1CAE3" stroke="#034C95" stroke-width="0.693587"/>
<line x1="1014.95" y1="341.781" x2="1044.77" y2="314.731" stroke="#034C95" stroke-width="0.693587"/>
<line x1="1096.79" y1="341.778" x2="1127.31" y2="314.728" stroke="#034C95" stroke-width="0.693587"/>
<line x1="1096.77" y1="376.485" x2="1127.28" y2="342.499" stroke="#034C95" stroke-width="0.693587"/>
<line x1="1015.18" y1="376.37" x2="1097.03" y2="376.37" stroke="#034C95" stroke-width="0.693587"/>
<line x1="1055.76" y1="419.719" x2="1055.76" y2="342.731" stroke="#034C95" stroke-width="0.693587"/>
<line x1="1055.87" y1="341.781" x2="1085.69" y2="314.731" stroke="#034C95" stroke-width="0.693587"/>
<line x1="1045.01" y1="314.641" x2="1127.54" y2="314.641" stroke="#034C95" stroke-width="0.693587"/>
<line x1="1029.75" y1="328.513" x2="1112.28" y2="328.513" stroke="#034C95" stroke-width="0.693587"/>
<line x1="1127.2" y1="382.959" x2="1127.2" y2="314.988" stroke="#034C95" stroke-width="0.693587"/>
<line x1="1096.76" y1="419.498" x2="1127.28" y2="382.738" stroke="#034C95" stroke-width="0.693587"/>
<rect x="1127.89" y="348.627" width="81.1496" height="76.9881" fill="#B1CAE3" stroke="#034C95" stroke-width="0.693587"/>
<line x1="1127.31" y1="348.023" x2="1157.13" y2="320.974" stroke="#034C95" stroke-width="0.693587"/>
<line x1="1209.16" y1="348.021" x2="1239.67" y2="320.971" stroke="#034C95" stroke-width="0.693587"/>
<line x1="1209.13" y1="382.728" x2="1239.65" y2="348.742" stroke="#034C95" stroke-width="0.693587"/>
<line x1="1127.54" y1="382.613" x2="1209.39" y2="382.613" stroke="#034C95" stroke-width="0.693587"/>
<line x1="1168.12" y1="425.962" x2="1168.12" y2="348.974" stroke="#034C95" stroke-width="0.693587"/>
<line x1="1168.23" y1="348.023" x2="1198.06" y2="320.974" stroke="#034C95" stroke-width="0.693587"/>
<line x1="1157.37" y1="320.884" x2="1239.9" y2="320.884" stroke="#034C95" stroke-width="0.693587"/>
<line x1="1142.11" y1="334.755" x2="1224.65" y2="334.755" stroke="#034C95" stroke-width="0.693587"/>
<line x1="1239.56" y1="389.202" x2="1239.56" y2="321.231" stroke="#034C95" stroke-width="0.693587"/>
<line x1="1209.12" y1="425.74" x2="1239.64" y2="388.98" stroke="#034C95" stroke-width="0.693587"/>
<rect x="1240.25" y="357.644" width="81.1496" height="76.9881" fill="#B1CAE3" stroke="#034C95" stroke-width="0.693587"/>
<line x1="1239.67" y1="357.04" x2="1269.49" y2="329.99" stroke="#034C95" stroke-width="0.693587"/>
<line x1="1321.52" y1="357.037" x2="1352.03" y2="329.987" stroke="#034C95" stroke-width="0.693587"/>
<line x1="1321.49" y1="391.744" x2="1352.01" y2="357.759" stroke="#034C95" stroke-width="0.693587"/>
<line x1="1239.9" y1="391.629" x2="1321.75" y2="391.629" stroke="#034C95" stroke-width="0.693587"/>
<line x1="1280.48" y1="434.979" x2="1280.48" y2="357.99" stroke="#034C95" stroke-width="0.693587"/>
<line x1="1280.59" y1="357.04" x2="1310.42" y2="329.99" stroke="#034C95" stroke-width="0.693587"/>
<line x1="1269.73" y1="329.9" x2="1352.26" y2="329.9" stroke="#034C95" stroke-width="0.693587"/>
<line x1="1254.47" y1="343.772" x2="1337.01" y2="343.772" stroke="#034C95" stroke-width="0.693587"/>
<line x1="1351.92" y1="398.219" x2="1351.92" y2="330.247" stroke="#034C95" stroke-width="0.693587"/>
<line x1="1321.48" y1="434.757" x2="1352" y2="397.997" stroke="#034C95" stroke-width="0.693587"/>
<rect x="1075.87" y="170.375" width="81.1496" height="76.9881" fill="#B1CAE3" stroke="#034C95" stroke-width="0.693587"/>
<line x1="1075.29" y1="169.771" x2="1105.12" y2="142.722" stroke="#034C95" stroke-width="0.693587"/>
<line x1="1157.14" y1="169.769" x2="1187.66" y2="142.719" stroke="#034C95" stroke-width="0.693587"/>
<line x1="1157.11" y1="204.476" x2="1187.63" y2="170.49" stroke="#034C95" stroke-width="0.693587"/>
<line x1="1075.52" y1="204.361" x2="1157.37" y2="204.361" stroke="#034C95" stroke-width="0.693587"/>
<line x1="1116.1" y1="247.71" x2="1116.1" y2="170.722" stroke="#034C95" stroke-width="0.693587"/>
<line x1="1116.21" y1="169.771" x2="1146.04" y2="142.722" stroke="#034C95" stroke-width="0.693587"/>
<line x1="1105.35" y1="142.632" x2="1187.89" y2="142.632" stroke="#034C95" stroke-width="0.693587"/>
<line x1="1090.09" y1="156.503" x2="1172.63" y2="156.503" stroke="#034C95" stroke-width="0.693587"/>
<line x1="1187.54" y1="210.95" x2="1187.54" y2="142.979" stroke="#034C95" stroke-width="0.693587"/>
<line x1="1157.1" y1="247.488" x2="1187.62" y2="210.728" stroke="#034C95" stroke-width="0.693587"/>
<rect x="1188.23" y="176.617" width="81.1496" height="76.9881" fill="#B1CAE3" stroke="#034C95" stroke-width="0.693587"/>
<line x1="1187.65" y1="176.014" x2="1217.48" y2="148.964" stroke="#034C95" stroke-width="0.693587"/>
<line x1="1269.5" y1="176.011" x2="1300.02" y2="148.961" stroke="#034C95" stroke-width="0.693587"/>
<line x1="1269.47" y1="210.718" x2="1299.99" y2="176.732" stroke="#034C95" stroke-width="0.693587"/>
<line x1="1187.88" y1="210.603" x2="1269.73" y2="210.603" stroke="#034C95" stroke-width="0.693587"/>
<line x1="1228.46" y1="253.952" x2="1228.46" y2="176.964" stroke="#034C95" stroke-width="0.693587"/>
<line x1="1228.57" y1="176.014" x2="1258.4" y2="148.964" stroke="#034C95" stroke-width="0.693587"/>
<line x1="1217.71" y1="148.874" x2="1300.25" y2="148.874" stroke="#034C95" stroke-width="0.693587"/>
<line x1="1202.45" y1="162.745" x2="1284.99" y2="162.745" stroke="#034C95" stroke-width="0.693587"/>
<line x1="1299.9" y1="217.192" x2="1299.9" y2="149.221" stroke="#034C95" stroke-width="0.693587"/>
<line x1="1269.46" y1="253.731" x2="1299.98" y2="216.971" stroke="#034C95" stroke-width="0.693587"/>
<rect x="1300.59" y="185.634" width="81.1496" height="76.9881" fill="#B1CAE3" stroke="#034C95" stroke-width="0.693587"/>
<line x1="1300.01" y1="185.03" x2="1329.84" y2="157.98" stroke="#034C95" stroke-width="0.693587"/>
<line x1="1381.86" y1="185.028" x2="1412.38" y2="157.978" stroke="#034C95" stroke-width="0.693587"/>
<line x1="1381.83" y1="219.735" x2="1412.35" y2="185.749" stroke="#034C95" stroke-width="0.693587"/>
<line x1="1300.24" y1="219.62" x2="1382.09" y2="219.62" stroke="#034C95" stroke-width="0.693587"/>
<line x1="1340.82" y1="262.969" x2="1340.82" y2="185.981" stroke="#034C95" stroke-width="0.693587"/>
<line x1="1340.93" y1="185.03" x2="1370.76" y2="157.98" stroke="#034C95" stroke-width="0.693587"/>
<line x1="1330.07" y1="157.891" x2="1412.61" y2="157.891" stroke="#034C95" stroke-width="0.693587"/>
<line x1="1314.81" y1="171.762" x2="1397.35" y2="171.762" stroke="#034C95" stroke-width="0.693587"/>
<line x1="1412.26" y1="226.209" x2="1412.26" y2="158.237" stroke="#034C95" stroke-width="0.693587"/>
<line x1="1381.82" y1="262.747" x2="1412.34" y2="225.987" stroke="#034C95" stroke-width="0.693587"/>
<path d="M510.431 249.321C520.511 249.321 526.615 243.721 526.615 234.705V234.369H520.175V234.705C520.175 240.865 517.319 243.497 510.263 243.497C502.479 243.497 499.343 239.745 499.343 230.001C499.343 220.257 502.479 216.505 510.263 216.505C517.319 216.505 520.175 219.137 520.175 225.297V225.633H526.615V225.297C526.615 216.281 520.511 210.681 510.431 210.681C499.511 210.681 492.903 218.297 492.903 230.001C492.903 241.705 499.511 249.321 510.431 249.321ZM537.801 248.761V232.745C537.801 227.481 540.041 225.577 544.969 225.577C550.065 225.577 551.633 227.649 551.633 232.633V248.761H557.681V231.233C557.681 225.129 554.601 220.369 547.321 220.369C542.281 220.369 539.313 223.057 538.025 225.577H537.801V211.241H531.753V248.761H537.801ZM573.996 249.321C579.428 249.321 582.396 246.409 583.74 243.217H583.964V248.761H589.564V220.929H583.516V236.609C583.516 242.097 580.884 244.113 576.236 244.113C571.42 244.113 569.516 242.041 569.516 237.057V220.929H563.468V238.121C563.468 244.449 566.716 249.321 573.996 249.321ZM601.567 248.761V232.689C601.567 227.481 603.807 225.577 608.735 225.577C613.831 225.577 615.399 227.649 615.399 232.633V248.761H621.447V231.289C621.447 224.961 618.199 220.369 610.975 220.369C605.543 220.369 602.575 223.169 601.287 226.137H601.063V220.929H595.519V248.761H601.567ZM633.286 248.761V237.393H638.83L646.11 248.761H653.166L643.646 234.089L653.334 220.929H646.222L638.774 231.961H633.286V211.241H627.238V248.761H633.286ZM693.422 248.761V243.329H673.43V211.241H667.382V248.761H693.422ZM700.992 248.761L704.8 239.017H722.216L726.024 248.761H732.576L717.96 211.241H709.28L694.664 248.761H700.992ZM710.848 223.673L713.312 216.729H713.76L716.168 223.673L720.088 233.585H706.928L710.848 223.673ZM741.133 248.761V234.313H745.557C750.037 234.313 751.605 235.825 753.341 239.073L758.661 248.761H765.661L760.061 238.345C758.661 235.769 757.037 234.089 754.293 233.193V232.745C760.901 232.409 764.709 228.657 764.709 222.441C764.709 215.329 759.501 211.241 751.213 211.241H735.085V248.761H741.133ZM741.133 216.673H751.941C756.813 216.673 758.661 218.577 758.661 223.001C758.661 227.537 756.813 229.329 751.941 229.329H741.133V216.673ZM784.665 249.321C790.937 249.321 794.857 246.297 796.257 242.881H796.481V248.761H802.025V229.497H784.497V234.705H796.201V235.601C796.201 241.481 792.953 243.497 786.065 243.497C777.777 243.497 774.417 239.745 774.417 230.001C774.417 220.257 777.665 216.505 785.561 216.505C792.729 216.505 795.585 219.025 795.585 224.681V225.073H801.969V224.681C801.969 216.057 795.865 210.681 785.841 210.681C774.697 210.681 767.977 218.297 767.977 230.001C767.977 241.929 774.025 249.321 784.665 249.321ZM834.753 248.761V243.329H813.977V232.633H833.913V227.145H813.977V216.673H834.753V211.241H807.929V248.761H834.753ZM856.743 248.761V233.753H876.455V228.265H856.743V216.673H877.295V211.241H850.695V248.761H856.743ZM887.245 217.401V211.241H881.197L881.253 217.401H887.245ZM887.301 248.761V220.761H881.253V248.761H887.301ZM898.903 248.761V211.241H892.855V248.761H898.903ZM916.989 249.321C924.493 249.321 929.477 245.625 929.477 239.913V239.409H923.485V239.857C923.485 242.377 921.693 243.945 917.045 243.945C911.221 243.945 909.373 241.369 909.149 236.273H929.365C929.533 235.433 929.701 233.921 929.701 232.465C929.701 224.849 924.437 220.369 916.933 220.369C908.645 220.369 903.493 226.193 903.493 234.817C903.493 243.497 907.805 249.321 916.989 249.321ZM916.821 225.465C921.581 225.465 924.157 227.481 923.933 232.241H909.205C909.541 227.929 911.557 225.465 916.821 225.465ZM946.504 249.321C953.56 249.321 957.648 246.297 957.648 241.145C957.648 236.553 954.848 234.145 949.472 233.081L944.768 232.185C940.848 231.401 939.84 230.785 939.84 228.657C939.84 226.529 940.904 225.353 945.328 225.353C950.312 225.353 951.208 227.201 951.208 229.777V230.449H956.976V229.945C956.976 223.617 952.048 220.369 945.496 220.369C938.216 220.369 934.072 223.729 934.072 228.769C934.072 233.809 937.208 236.049 942.192 236.945L946.504 237.673C950.592 238.401 951.936 239.073 951.936 241.313C951.936 243.385 951.096 244.393 946.616 244.393C941.296 244.393 939.952 243.273 939.952 240.249V239.241H934.128V239.353C934.128 246.129 938.384 249.321 946.504 249.321ZM617.153 318.321C627.793 318.321 634.625 310.705 634.625 299.001C634.625 287.297 627.793 279.681 617.153 279.681C606.457 279.681 599.625 287.297 599.625 299.001C599.625 310.705 606.457 318.321 617.153 318.321ZM617.153 312.497C609.369 312.497 606.065 308.745 606.065 299.001C606.065 289.257 609.369 285.505 617.153 285.505C624.937 285.505 628.185 289.257 628.185 299.001C628.185 308.745 624.937 312.497 617.153 312.497ZM645.672 317.761V301.689C645.672 296.481 647.912 294.577 652.84 294.577C657.936 294.577 659.504 296.649 659.504 301.633V317.761H665.552V300.289C665.552 293.961 662.304 289.369 655.08 289.369C649.648 289.369 646.68 292.169 645.392 295.137H645.168V289.929H639.624V317.761H645.672ZM693.546 317.761C695.45 317.761 697.354 317.537 698.53 317.257V312.329H695.114C691.362 312.329 690.13 311.825 690.13 308.913V294.969H698.53V289.929H690.13V283.041H685.482L684.194 289.929H679.434V294.969H684.082V309.193C684.082 315.465 687.33 317.761 693.546 317.761ZM708.891 317.761V301.745C708.891 296.481 711.131 294.577 716.059 294.577C721.155 294.577 722.723 296.649 722.723 301.633V317.761H728.771V300.233C728.771 294.129 725.691 289.369 718.411 289.369C713.371 289.369 710.403 292.057 709.115 294.577H708.891V280.241H702.843V317.761H708.891ZM746.992 318.321C754.496 318.321 759.48 314.625 759.48 308.913V308.409H753.488V308.857C753.488 311.377 751.696 312.945 747.048 312.945C741.224 312.945 739.376 310.369 739.152 305.273H759.368C759.536 304.433 759.704 302.921 759.704 301.465C759.704 293.849 754.44 289.369 746.936 289.369C738.648 289.369 733.496 295.193 733.496 303.817C733.496 312.497 737.808 318.321 746.992 318.321ZM746.824 294.465C751.584 294.465 754.16 296.481 753.936 301.241H739.208C739.544 296.929 741.56 294.465 746.824 294.465ZM790.927 318.321C797.199 318.321 801.119 315.297 802.519 311.881H802.743V317.761H808.287V298.497H790.759V303.705H802.463V304.601C802.463 310.481 799.215 312.497 792.327 312.497C784.039 312.497 780.679 308.745 780.679 299.001C780.679 289.257 783.927 285.505 791.823 285.505C798.991 285.505 801.847 288.025 801.847 293.681V294.073H808.231V293.681C808.231 285.057 802.127 279.681 792.103 279.681C780.959 279.681 774.239 287.297 774.239 299.001C774.239 310.929 780.287 318.321 790.927 318.321ZM830.927 318.321C841.567 318.321 848.399 310.705 848.399 299.001C848.399 287.297 841.567 279.681 830.927 279.681C820.231 279.681 813.399 287.297 813.399 299.001C813.399 310.705 820.231 318.321 830.927 318.321ZM830.927 312.497C823.143 312.497 819.839 308.745 819.839 299.001C819.839 289.257 823.143 285.505 830.927 285.505C838.711 285.505 841.959 289.257 841.959 299.001C841.959 308.745 838.711 312.497 830.927 312.497ZM859.838 305.441C859.838 300.065 860.734 288.473 860.734 284.161V280.241H853.062V284.161C853.062 288.473 853.958 300.009 853.958 305.441H859.838ZM860.342 317.761V309.473H853.51V317.761H860.342Z" fill="#023B74"/>
<path d="M866.542 390.882C867.714 389.71 867.714 387.811 866.542 386.639L847.45 367.548C846.278 366.376 844.379 366.376 843.207 367.548C842.036 368.719 842.036 370.619 843.207 371.79L860.178 388.761L843.207 405.731C842.036 406.903 842.036 408.802 843.207 409.974C844.379 411.146 846.278 411.146 847.45 409.974L866.542 390.882ZM596.58 391.761H864.421V385.761H596.58V391.761Z" fill="#0353A4"/>
</svg>
