<svg width="20" height="21" viewBox="0 0 20 21" fill="none" xmlns="http://www.w3.org/2000/svg">
<path d="M7.5 15.2922C7.41667 15.2922 7.34167 15.2756 7.25833 15.2422C7.025 15.1506 6.875 14.9172 6.875 14.6672V9.66724C6.875 9.32557 7.15833 9.04224 7.5 9.04224C7.84167 9.04224 8.125 9.32557 8.125 9.66724V13.1589L8.725 12.5589C8.96667 12.3172 9.36667 12.3172 9.60833 12.5589C9.85 12.8006 9.85 13.2006 9.60833 13.4422L7.94167 15.1089C7.825 15.2256 7.65833 15.2922 7.5 15.2922Z" fill="#012345"/>
<path d="M7.49954 15.2928C7.34121 15.2928 7.18288 15.2344 7.05788 15.1094L5.39121 13.4428C5.14954 13.2011 5.14954 12.8011 5.39121 12.5594C5.63288 12.3178 6.03288 12.3178 6.27454 12.5594L7.94121 14.2261C8.18288 14.4678 8.18288 14.8678 7.94121 15.1094C7.81621 15.2344 7.65788 15.2928 7.49954 15.2928Z" fill="#012345"/>
<path d="M12.4998 19.4596H7.49984C2.97484 19.4596 1.0415 17.5263 1.0415 13.0013V8.0013C1.0415 3.4763 2.97484 1.54297 7.49984 1.54297H11.6665C12.0082 1.54297 12.2915 1.8263 12.2915 2.16797C12.2915 2.50964 12.0082 2.79297 11.6665 2.79297H7.49984C3.65817 2.79297 2.2915 4.15963 2.2915 8.0013V13.0013C2.2915 16.843 3.65817 18.2096 7.49984 18.2096H12.4998C16.3415 18.2096 17.7082 16.843 17.7082 13.0013V8.83463C17.7082 8.49297 17.9915 8.20963 18.3332 8.20963C18.6748 8.20963 18.9582 8.49297 18.9582 8.83463V13.0013C18.9582 17.5263 17.0248 19.4596 12.4998 19.4596Z" fill="#012345"/>
<path d="M18.3332 9.45987H14.9998C12.1498 9.45987 11.0415 8.35154 11.0415 5.50154V2.1682C11.0415 1.9182 11.1915 1.68487 11.4248 1.5932C11.6582 1.4932 11.9248 1.55154 12.1082 1.72654L18.7748 8.3932C18.9498 8.5682 19.0082 8.8432 18.9082 9.07654C18.8082 9.30987 18.5832 9.45987 18.3332 9.45987ZM12.2915 3.67654V5.50154C12.2915 7.65154 12.8498 8.20987 14.9998 8.20987H16.8248L12.2915 3.67654Z" fill="#012345"/>
</svg>
