<svg width="26" height="34" viewBox="0 0 26 34" fill="none" xmlns="http://www.w3.org/2000/svg">
<path d="M8.5 25H13M1 4.2V29.8C1 30.6487 1.31607 31.4626 1.87868 32.0627C2.44129 32.6629 3.20435 33 4 33H22C22.7956 33 23.5587 32.6629 24.1213 32.0627C24.6839 31.4626 25 30.6487 25 29.8V11.1472C25 10.7209 24.92 10.2989 24.765 9.90599C24.6099 9.51308 24.3828 9.15719 24.097 8.8592L17.437 1.912C16.8765 1.32745 16.1239 1.0001 15.34 1H4C3.20435 1 2.44129 1.33714 1.87868 1.93726C1.31607 2.53737 1 3.35131 1 4.2V4.2ZM8.5 18.6H17.5H8.5Z" stroke="#012345" stroke-width="2" stroke-linecap="round" stroke-linejoin="round"/>
<path d="M16 1V7.4C16 8.24869 16.3161 9.06262 16.8787 9.66274C17.4413 10.2629 18.2043 10.6 19 10.6H25" stroke="#012345" stroke-width="2" stroke-linejoin="round"/>
</svg>
