<svg width="20" height="21" viewBox="0 0 20 21" fill="none" xmlns="http://www.w3.org/2000/svg">
<path d="M12.7001 19.059H12.5918C8.89176 19.059 7.10843 17.6007 6.80009 14.3341C6.76676 13.9924 7.01676 13.684 7.36676 13.6507C7.70009 13.6174 8.01676 13.8757 8.05009 14.2174C8.29176 16.834 9.52509 17.809 12.6001 17.809H12.7084C16.1001 17.809 17.3001 16.609 17.3001 13.2174V7.78405C17.3001 4.39238 16.1001 3.19238 12.7084 3.19238H12.6001C9.50843 3.19238 8.27509 4.18405 8.05009 6.85072C8.00843 7.19238 7.71676 7.45072 7.36676 7.41738C7.01676 7.39238 6.76676 7.08405 6.79176 6.74238C7.07509 3.42572 8.86676 1.94238 12.5918 1.94238H12.7001C16.7918 1.94238 18.5418 3.69238 18.5418 7.78405V13.2174C18.5418 17.309 16.7918 19.059 12.7001 19.059Z" fill="#E8240C"/>
<path d="M12.4999 11.1255H3.0166C2.67493 11.1255 2.3916 10.8422 2.3916 10.5005C2.3916 10.1588 2.67493 9.87549 3.0166 9.87549H12.4999C12.8416 9.87549 13.1249 10.1588 13.1249 10.5005C13.1249 10.8422 12.8416 11.1255 12.4999 11.1255Z" fill="#E8240C"/>
<path d="M4.87503 13.9167C4.7167 13.9167 4.55837 13.8584 4.43337 13.7334L1.6417 10.9417C1.40003 10.7 1.40003 10.3 1.6417 10.0584L4.43337 7.2667C4.67503 7.02503 5.07503 7.02503 5.3167 7.2667C5.55837 7.50837 5.55837 7.90837 5.3167 8.15003L2.9667 10.5L5.3167 12.85C5.55837 13.0917 5.55837 13.4917 5.3167 13.7334C5.20003 13.8584 5.03337 13.9167 4.87503 13.9167Z" fill="#E8240C"/>
</svg>
