<svg width="20" height="21" viewBox="0 0 20 21" fill="none" xmlns="http://www.w3.org/2000/svg">
<path d="M6.6665 19.0971C6.43317 19.0971 6.19149 19.0388 5.97482 18.9222C5.49982 18.6722 5.20817 18.1721 5.20817 17.6388V16.4555C2.6915 16.1972 1.0415 14.3471 1.0415 11.6971V6.69719C1.0415 3.83052 2.9665 1.90552 5.83317 1.90552H14.1665C17.0332 1.90552 18.9582 3.83052 18.9582 6.69719V11.6971C18.9582 14.5638 17.0332 16.4888 14.1665 16.4888H11.0248L7.47481 18.8555C7.23315 19.0139 6.94984 19.0971 6.6665 19.0971ZM5.83317 3.14718C3.68317 3.14718 2.2915 4.53884 2.2915 6.68884V11.6889C2.2915 13.8389 3.68317 15.2306 5.83317 15.2306C6.17484 15.2306 6.45817 15.5139 6.45817 15.8556V17.6306C6.45817 17.7389 6.52484 17.7889 6.56651 17.8139C6.60817 17.8389 6.69151 17.8639 6.78318 17.8055L10.4915 15.3389C10.5915 15.2722 10.7165 15.2306 10.8415 15.2306H14.1748C16.3248 15.2306 17.7165 13.8389 17.7165 11.6889V6.68884C17.7165 4.53884 16.3248 3.14718 14.1748 3.14718H5.83317Z" fill="#012345"/>
<path d="M9.99952 10.5901C9.65786 10.5901 9.37452 10.3068 9.37452 9.96509V9.79012C9.37452 8.82345 10.0828 8.34844 10.3495 8.16511C10.6578 7.95678 10.7578 7.81512 10.7578 7.59845C10.7578 7.18178 10.4162 6.84009 9.99952 6.84009C9.58286 6.84009 9.24121 7.18178 9.24121 7.59845C9.24121 7.94012 8.95788 8.22345 8.61621 8.22345C8.27454 8.22345 7.99121 7.94012 7.99121 7.59845C7.99121 6.49012 8.89119 5.59009 9.99952 5.59009C11.1079 5.59009 12.0078 6.49012 12.0078 7.59845C12.0078 8.54845 11.3079 9.02344 11.0495 9.19844C10.7245 9.4151 10.6245 9.55679 10.6245 9.79012V9.96509C10.6245 10.3151 10.3412 10.5901 9.99952 10.5901Z" fill="#012345"/>
<path d="M10 12.6648C9.65 12.6648 9.375 12.3815 9.375 12.0398C9.375 11.6981 9.65833 11.4148 10 11.4148C10.3417 11.4148 10.625 11.6981 10.625 12.0398C10.625 12.3815 10.35 12.6648 10 12.6648Z" fill="#012345"/>
</svg>
