<svg width="20" height="21" viewBox="0 0 20 21" fill="none" xmlns="http://www.w3.org/2000/svg">
<g clip-path="url(#clip0_1003_4949)">
<path d="M2.75036 19.4607C2.45036 19.4607 2.15868 19.3857 1.90868 19.2357C1.35035 18.9107 1.03369 18.2607 1.03369 17.4524V7.98572C1.03369 6.21072 2.47535 4.76904 4.25035 4.76904H10.7337C12.5087 4.76904 13.9504 6.21072 13.9504 7.98572V17.4524C13.9504 18.2607 13.6337 18.9024 13.0754 19.2357C12.517 19.5607 11.8004 19.5274 11.092 19.1357L7.81704 17.3107C7.6587 17.2191 7.32535 17.2191 7.16701 17.3107L3.89202 19.1357C3.50869 19.3524 3.11702 19.4607 2.75036 19.4607ZM4.25869 6.02738C3.17535 6.02738 2.29203 6.91071 2.29203 7.99404V17.4607C2.29203 17.8024 2.39203 18.069 2.55036 18.1607C2.7087 18.2524 2.99204 18.2107 3.29204 18.044L6.56704 16.219C7.10037 15.9274 7.90036 15.9274 8.43369 16.219L11.7087 18.044C12.0087 18.2107 12.2837 18.2524 12.4504 18.1607C12.6087 18.069 12.7087 17.8024 12.7087 17.4607V7.99404C12.7087 6.91071 11.8254 6.02738 10.742 6.02738H4.25869Z" fill="#012345"/>
<path d="M12.242 19.4601C11.8753 19.4601 11.492 19.3518 11.1003 19.1435L7.82534 17.3185C7.667 17.2351 7.3253 17.2351 7.16697 17.3185L3.90032 19.1435C3.19199 19.5351 2.46698 19.5685 1.91698 19.2435C1.35865 18.9185 1.04199 18.2685 1.04199 17.4685V8.00181C1.04199 6.22681 2.48365 4.78516 4.25865 4.78516H10.742C12.517 4.78516 13.9587 6.22681 13.9587 8.00181V17.4685C13.9587 18.2685 13.642 18.9185 13.0837 19.2435C12.8337 19.3851 12.5503 19.4601 12.242 19.4601ZM7.50032 16.0018C7.83366 16.0018 8.15865 16.0768 8.43365 16.2268L11.7086 18.0518C12.0086 18.2185 12.292 18.2601 12.4503 18.1601C12.6087 18.0685 12.7087 17.8018 12.7087 17.4601V7.99347C12.7087 6.91014 11.8253 6.02681 10.742 6.02681H4.25865C3.17531 6.02681 2.29199 6.91014 2.29199 7.99347V17.4601C2.29199 17.8018 2.39199 18.0685 2.55032 18.1601C2.70866 18.2518 2.992 18.2101 3.292 18.0435L6.567 16.2185C6.83366 16.0768 7.16699 16.0018 7.50032 16.0018Z" fill="#012345"/>
<path d="M17.2415 16.2275C16.8748 16.2275 16.4915 16.1191 16.0998 15.9108L13.0248 14.1941C12.8248 14.0858 12.7082 13.8775 12.7082 13.6525V8.00248C12.7082 6.91915 11.8248 6.03583 10.7415 6.03583H6.6665C6.32484 6.03583 6.0415 5.75249 6.0415 5.41083V4.76914C6.0415 2.99414 7.48316 1.55249 9.25816 1.55249H15.7415C17.5165 1.55249 18.9582 2.99414 18.9582 4.76914V14.2358C18.9582 15.0358 18.6415 15.6858 18.0832 16.0108C17.8332 16.1525 17.5498 16.2275 17.2415 16.2275ZM13.9582 13.2775L16.7082 14.8191C17.0082 14.9858 17.2832 15.0275 17.4498 14.9275C17.6165 14.8275 17.7082 14.5691 17.7082 14.2275V4.7608C17.7082 3.67747 16.8248 2.79415 15.7415 2.79415H9.25816C8.17483 2.79415 7.2915 3.67747 7.2915 4.7608V4.77749H10.7415C12.5165 4.77749 13.9582 6.21914 13.9582 7.99414V13.2775V13.2775Z" fill="#012345"/>
</g>
<defs>
<clipPath id="clip0_1003_4949">
<rect width="20" height="20" fill="white" transform="translate(0 0.5)"/>
</clipPath>
</defs>
</svg>
