<svg width="20" height="21" viewBox="0 0 20 21" fill="none" xmlns="http://www.w3.org/2000/svg">
<path d="M17.1834 11.3916C16.8667 11.3916 16.6 11.15 16.5584 10.8333C16.3584 8.94996 15.3417 7.24163 13.775 6.1583C13.4917 5.9583 13.425 5.57496 13.6167 5.29163C13.8167 5.0083 14.2084 4.94163 14.4834 5.1333C16.35 6.42496 17.55 8.4583 17.7917 10.7C17.825 11.0416 17.5834 11.35 17.2334 11.3916C17.225 11.3916 17.2 11.3916 17.1834 11.3916Z" fill="#012345"/>
<path d="M2.90825 11.4332C2.88325 11.4332 2.86659 11.4332 2.84159 11.4332C2.49992 11.3916 2.24992 11.0832 2.28325 10.7416C2.50825 8.49989 3.69992 6.47489 5.54159 5.16656C5.82492 4.96656 6.21659 5.03322 6.41659 5.31656C6.61659 5.59989 6.54992 5.99156 6.26659 6.19156C4.71659 7.28322 3.71659 8.99156 3.52492 10.8749C3.49992 11.1916 3.22492 11.4332 2.90825 11.4332Z" fill="#012345"/>
<path d="M10.0498 19.3415C8.81648 19.3415 7.64148 19.0581 6.54147 18.5081C6.23314 18.3498 6.10814 17.9748 6.26647 17.6665C6.42481 17.3581 6.79981 17.2331 7.10814 17.3915C8.90814 18.2998 11.0748 18.3165 12.8915 17.4415C13.1998 17.2915 13.5748 17.4248 13.7248 17.7331C13.8748 18.0415 13.7415 18.4165 13.4331 18.5665C12.3665 19.0831 11.2331 19.3415 10.0498 19.3415Z" fill="#012345"/>
<path d="M10.0501 7.53226C8.42507 7.53226 7.1084 6.21559 7.1084 4.59059C7.1084 2.96559 8.42507 1.64893 10.0501 1.64893C11.6751 1.64893 12.9917 2.96559 12.9917 4.59059C12.9917 6.21559 11.6667 7.53226 10.0501 7.53226ZM10.0501 2.90726C9.11673 2.90726 8.3584 3.66559 8.3584 4.59893C8.3584 5.53226 9.11673 6.29059 10.0501 6.29059C10.9834 6.29059 11.7417 5.53226 11.7417 4.59893C11.7417 3.66559 10.9751 2.90726 10.0501 2.90726Z" fill="#012345"/>
<path d="M4.02467 17.7256C2.39967 17.7256 1.08301 16.409 1.08301 14.784C1.08301 13.1673 2.39967 11.8423 4.02467 11.8423C5.64967 11.8423 6.96634 13.159 6.96634 14.784C6.96634 16.4006 5.64967 17.7256 4.02467 17.7256ZM4.02467 13.0923C3.09134 13.0923 2.33301 13.8506 2.33301 14.784C2.33301 15.7173 3.09134 16.4756 4.02467 16.4756C4.95801 16.4756 5.71634 15.7173 5.71634 14.784C5.71634 13.8506 4.95801 13.0923 4.02467 13.0923Z" fill="#012345"/>
<path d="M15.9749 17.7256C14.3499 17.7256 13.0332 16.409 13.0332 14.784C13.0332 13.1673 14.3499 11.8423 15.9749 11.8423C17.5999 11.8423 18.9165 13.159 18.9165 14.784C18.9082 16.4006 17.5915 17.7256 15.9749 17.7256ZM15.9749 13.0923C15.0415 13.0923 14.2832 13.8506 14.2832 14.784C14.2832 15.7173 15.0415 16.4756 15.9749 16.4756C16.9082 16.4756 17.6665 15.7173 17.6665 14.784C17.6582 13.8506 16.9082 13.0923 15.9749 13.0923Z" fill="#012345"/>
</svg>
