<svg width="40" height="41" viewBox="0 0 40 41" fill="none" xmlns="http://www.w3.org/2000/svg">
<path d="M20.0002 38.4105C10.1168 38.4105 2.0835 30.3771 2.0835 20.4938C2.0835 10.6105 10.1168 2.57715 20.0002 2.57715C29.8835 2.57715 37.9168 10.6105 37.9168 20.4938C37.9168 30.3771 29.8835 38.4105 20.0002 38.4105ZM20.0002 5.07715C11.5002 5.07715 4.5835 11.9938 4.5835 20.4938C4.5835 28.9938 11.5002 35.9105 20.0002 35.9105C28.5002 35.9105 35.4168 28.9938 35.4168 20.4938C35.4168 11.9938 28.5002 5.07715 20.0002 5.07715Z" fill="#E82E5D"/>
<path d="M17.6334 26.459C17.3001 26.459 16.9834 26.3257 16.7501 26.0924L12.0334 21.3757C11.5501 20.8923 11.5501 20.0924 12.0334 19.609C12.5167 19.1257 13.3167 19.1257 13.8001 19.609L17.6334 23.4424L26.2001 14.8757C26.6834 14.3924 27.4834 14.3924 27.9667 14.8757C28.4501 15.359 28.4501 16.159 27.9667 16.6423L18.5167 26.0924C18.2834 26.3257 17.9667 26.459 17.6334 26.459Z" fill="#E82E5D"/>
</svg>
