<svg width="64" height="65" viewBox="0 0 64 65" fill="none" xmlns="http://www.w3.org/2000/svg">
<path d="M25.0308 22.5325C26.5462 21.1747 27.9452 19.817 29.4606 18.5826C28.295 17.7186 27.2458 16.978 26.1966 16.2374C24.9142 17.3483 23.632 18.5826 22.3496 19.817C23.632 20.3107 24.5646 21.2981 25.0308 22.5325Z" fill="#FDFDFE"/>
<path d="M21.3062 28.8413C24.1116 28.8489 26.3916 26.5065 26.399 23.6093C26.4062 20.7121 24.1382 18.3572 21.333 18.3495C18.5277 18.3418 16.2476 20.6843 16.2403 23.5815C16.2329 26.4787 18.501 28.8337 21.3062 28.8413Z" fill="#FDFDFE"/>
<path d="M25.797 52.8286C18.5925 56.8976 12.3649 57.915 9.55638 55.1174C5.64886 51.1756 9.19006 40.8758 17.7378 30.4488C16.3945 30.0674 15.2956 29.0502 14.685 27.7786C2.22978 42.2746 -3.38728 56.8976 2.10766 62.3654C6.62574 66.9432 17.4935 63.8914 29.4604 55.7532C28.2392 54.8632 27.0182 53.846 25.797 52.8286Z" fill="#FDFDFE"/>
<path d="M34.0146 18.0838C34.3798 16.6889 35.3538 15.5476 36.5714 14.9136C22.2044 2.61309 7.59395 -2.83971 2.11501 2.61309C-2.38989 7.17821 0.532212 17.957 8.68975 29.877C9.66377 28.609 10.6378 27.4678 11.6118 26.1996C7.59395 18.9715 6.49817 12.7578 9.29851 9.84119C13.3164 5.91011 23.5438 9.58759 34.0146 18.0838Z" fill="#FDFDFE"/>
<path d="M44.3764 21.4833C43.9022 22.7549 42.8356 23.7723 41.6504 24.2811C43.4282 26.1887 45.0874 27.9691 46.5096 29.8767C47.3392 28.7321 48.169 27.5875 48.7616 26.4429C47.4578 24.7897 45.917 23.1365 44.3764 21.4833Z" fill="#FDFDFE"/>
<path d="M40.636 26.7291C43.471 26.7291 45.7154 24.4261 45.7154 21.4833C45.7154 18.5405 43.471 16.2374 40.636 16.2374C37.801 16.2374 35.5566 18.5405 35.5566 21.4833C35.5566 24.2981 37.801 26.7291 40.636 26.7291Z" fill="#FDFDFE"/>
<path d="M54.5252 9.9128C58.4488 13.8503 54.893 24.1386 46.3104 34.554C47.6592 34.935 48.7626 35.9512 49.3756 37.2212C61.7592 22.7414 67.3992 8.00756 61.8818 2.54588C57.3452 -1.8997 46.433 1.14869 34.54 9.27772C35.766 10.1668 36.992 11.183 38.2182 12.1991C45.4522 8.13458 51.7052 7.11846 54.5252 9.9128Z" fill="#FDFDFE"/>
<path d="M39.8804 41.4177C38.139 43.1905 36.2814 44.8367 34.54 46.3561C35.701 47.2425 36.7458 48.0023 37.9068 48.7621C39.5322 47.3691 41.0414 45.8497 42.6668 44.2035C41.3898 43.6971 40.461 42.6841 39.8804 41.4177Z" fill="#FDFDFE"/>
<path d="M43.7104 36.157C40.9052 36.149 38.6248 38.491 38.6172 41.3882C38.6094 44.2856 40.8774 46.6406 43.6826 46.6486C46.4878 46.6568 48.7682 44.3146 48.7758 41.4174C48.7836 38.5202 46.5156 36.165 43.7104 36.157Z" fill="#FDFDFE"/>
<path d="M22.3494 40.7188C20.5716 38.8112 18.9124 37.0308 17.4901 35.1232C16.6605 36.2676 15.8309 37.4122 15.2383 38.5568C16.6605 40.21 18.0827 41.8634 19.6235 43.5166C20.0976 42.2448 21.0456 41.2274 22.3494 40.7188Z" fill="#FDFDFE"/>
<path d="M55.3403 35.1232C54.3695 36.3866 53.3987 37.5238 52.4279 38.7874C56.4325 45.9898 57.5247 52.0548 54.6123 54.961C50.6077 58.878 40.4143 55.2138 29.9781 46.8742C29.6141 48.2642 28.6433 49.4014 27.4297 50.0332C41.8705 62.2896 56.4325 67.8494 61.8933 62.416C66.3831 57.7408 63.4707 46.8742 55.3403 35.1232Z" fill="#FDFDFE"/>
<path d="M28.4574 43.5438C28.4648 40.6466 26.1966 38.2918 23.3914 38.284C20.5862 38.2764 18.3062 40.619 18.2988 43.5162C18.2915 46.4134 20.5596 48.7682 23.3648 48.7758C26.1702 48.7834 28.4502 46.441 28.4574 43.5438Z" fill="#FDFDFE"/>
</svg>
