<svg width="600" height="600" viewBox="0 0 600 600" fill="none" xmlns="http://www.w3.org/2000/svg">
<path d="M300 600C465.685 600 600 525.87 600 434.426C600 342.982 465.685 268.853 300 268.853C134.315 268.853 0 342.982 0 434.426C0 525.87 134.315 600 300 600Z" fill="#E6EEF6"/>
<path d="M83.0554 475.652C107.231 475.652 126.829 464.836 126.829 451.495C126.829 438.153 107.231 427.338 83.0554 427.338C58.8796 427.338 39.2812 438.153 39.2812 451.495C39.2812 464.836 58.8796 475.652 83.0554 475.652Z" fill="#E0E0E0"/>
<path d="M263.777 398.603L143.193 465.156L55.5234 416.405L176.107 349.864L263.777 398.603Z" fill="#E0E0E0"/>
<path d="M460.281 535.273L163.847 371.667C163.229 371.329 162.715 370.842 162.358 370.253C162.001 369.665 161.812 368.996 161.812 368.316C161.812 367.636 162.001 366.967 162.358 366.379C162.715 365.79 163.229 365.303 163.847 364.965L211.699 338.557C213.649 337.476 215.863 336.907 218.117 336.907C220.372 336.907 222.586 337.476 224.536 338.557L520.97 502.15C521.591 502.487 522.108 502.975 522.468 503.565C522.827 504.154 523.017 504.825 523.017 505.507C523.017 506.19 522.827 506.86 522.468 507.45C522.108 508.04 521.591 508.528 520.97 508.865L473.132 535.273C471.177 536.347 468.962 536.912 466.707 536.912C464.452 536.912 462.236 536.347 460.281 535.273Z" fill="#E0E0E0"/>
<path d="M506.531 450.736L523.19 459.985C523.19 459.985 514.779 434.336 519.449 408.532C521.212 398.782 524.912 393.946 526.177 391.347C527.442 388.749 537.534 372.644 528.693 365.235C519.853 357.826 499.089 372.567 500.031 412.314C500.489 425.333 502.673 438.243 506.531 450.736Z" fill="#FF5C85"/>
<path opacity="0.3" d="M506.531 450.736L523.19 459.985C523.19 459.985 514.779 434.336 519.449 408.532C521.212 398.782 524.912 393.946 526.177 391.347C527.442 388.749 537.534 372.644 528.693 365.235C519.853 357.826 499.089 372.567 500.031 412.314C500.489 425.333 502.673 438.243 506.531 450.736Z" fill="black"/>
<path d="M514.27 455.611C514.147 455.611 514.027 455.575 513.927 455.509C513.826 455.442 513.748 455.348 513.705 455.238C513.637 455.071 507.353 438.375 507.676 411.581C507.999 384.787 522.801 370.303 522.949 370.162C523.063 370.053 523.218 369.991 523.38 369.991C523.541 369.991 523.696 370.053 523.811 370.162C523.925 370.271 523.989 370.419 523.989 370.573C523.989 370.728 523.925 370.876 523.811 370.985C523.662 371.126 509.21 385.134 508.887 411.594C508.564 438.053 514.781 454.672 514.835 454.839C514.863 454.91 514.876 454.984 514.874 455.059C514.871 455.134 514.853 455.208 514.82 455.276C514.788 455.344 514.742 455.406 514.684 455.456C514.626 455.507 514.559 455.547 514.485 455.573C514.416 455.598 514.343 455.611 514.27 455.611Z" fill="white"/>
<path d="M511.267 453.129L538.799 468.564C538.799 468.564 551.394 466.789 550.439 455.457C549.483 444.125 544.37 441.436 550.748 436.458C557.126 431.48 558.822 431.146 558.459 426.258C558.095 421.37 554.718 419.247 553.076 417.254C551.434 415.26 546.953 411.259 550.116 405.368C553.278 399.477 557.597 393.791 551.206 391.09C547.397 389.482 540.992 391.502 536.74 395.811C532.488 400.12 529.002 403.22 524.979 404.223C520.955 405.227 512.558 405.304 512.868 411.941C513.177 418.579 514.954 420.855 513.272 423.801C510.042 429.461 496.464 432.393 511.267 453.129Z" fill="#FF5C85"/>
<path d="M522.424 460.01C522.273 460.008 522.129 459.953 522.017 459.856C521.906 459.759 521.835 459.626 521.819 459.483C521.819 459.084 518.804 419.929 547.265 394.216C547.32 394.162 547.386 394.119 547.459 394.089C547.532 394.06 547.61 394.045 547.689 394.045C547.768 394.045 547.846 394.06 547.919 394.089C547.992 394.119 548.058 394.162 548.113 394.216C548.225 394.326 548.287 394.474 548.287 394.627C548.287 394.781 548.225 394.929 548.113 395.039C520.083 420.366 523.016 458.981 523.057 459.354C523.068 459.507 523.017 459.659 522.914 459.776C522.811 459.894 522.664 459.968 522.505 459.985L522.424 460.01Z" fill="white"/>
<path d="M527.416 426.387C527.264 426.387 527.118 426.334 527.006 426.236C526.894 426.138 526.824 426.004 526.811 425.859C526.577 422.832 525.706 419.882 524.249 417.185C522.792 414.488 520.78 412.101 518.333 410.166C518.268 410.122 518.214 410.065 518.172 410C518.13 409.935 518.102 409.863 518.09 409.788C518.077 409.713 518.08 409.636 518.099 409.562C518.118 409.488 518.151 409.418 518.198 409.356C518.244 409.295 518.302 409.243 518.368 409.203C518.435 409.163 518.51 409.136 518.587 409.124C518.665 409.112 518.744 409.115 518.821 409.133C518.897 409.151 518.969 409.183 519.033 409.227C521.645 411.249 523.788 413.769 525.327 416.625C526.865 419.482 527.764 422.614 527.968 425.821C527.975 425.974 527.921 426.123 527.815 426.238C527.71 426.353 527.562 426.425 527.403 426.438L527.416 426.387Z" fill="white"/>
<path d="M525.328 433.088C525.254 433.089 525.18 433.076 525.11 433.049C525.041 433.023 524.978 432.984 524.925 432.934C524.868 432.881 524.823 432.818 524.793 432.748C524.762 432.679 524.746 432.604 524.746 432.528C524.746 432.453 524.762 432.378 524.793 432.309C524.823 432.239 524.868 432.176 524.925 432.123C525.221 431.815 532.366 424.405 548.864 426.618C549.023 426.637 549.167 426.716 549.265 426.836C549.363 426.957 549.408 427.109 549.389 427.261C549.365 427.414 549.281 427.551 549.152 427.645C549.024 427.739 548.863 427.781 548.702 427.763C532.878 425.679 525.894 432.818 525.826 432.908C525.764 432.973 525.686 433.023 525.6 433.054C525.513 433.086 525.42 433.097 525.328 433.088Z" fill="white"/>
<path d="M480.399 334.969L441.98 313.462L464.857 343.536L480.399 334.969Z" fill="#3575B6"/>
<path opacity="0.6" d="M480.399 334.969L441.98 313.462L464.857 343.536L480.399 334.969Z" fill="black"/>
<path d="M457.564 414.566L232.719 290.463C231.754 289.932 230.952 289.167 230.395 288.246C229.837 287.324 229.543 286.279 229.543 285.215V138.46C229.544 137.395 229.837 136.35 230.394 135.429C230.95 134.507 231.75 133.741 232.714 133.209C233.678 132.676 234.771 132.394 235.884 132.393C236.997 132.391 238.091 132.669 239.057 133.199L463.929 257.302C464.894 257.836 465.695 258.603 466.253 259.526C466.81 260.45 467.104 261.497 467.105 262.563V409.318C467.104 410.385 466.81 411.432 466.251 412.356C465.692 413.279 464.888 414.046 463.921 414.578C462.954 415.11 461.857 415.389 460.741 415.387C459.625 415.385 458.529 415.102 457.564 414.566Z" fill="#E0E0E0"/>
<path d="M464.856 343.536L480.398 334.969V508.621C480.4 510.186 479.969 511.724 479.149 513.08C478.329 514.435 477.149 515.559 475.729 516.338L460.375 524.841L464.856 343.536Z" fill="#3575B6"/>
<path opacity="0.3" d="M464.856 343.536L480.398 334.969V508.621C480.4 510.186 479.969 511.724 479.149 513.08C478.329 514.435 477.149 515.559 475.729 516.338L460.375 524.841L464.856 343.536Z" fill="black"/>
<path d="M447.363 420.058L222.49 295.955C221.529 295.418 220.731 294.65 220.176 293.727C219.621 292.804 219.329 291.759 219.328 290.694V143.9C219.327 142.836 219.62 141.79 220.176 140.868C220.733 139.946 221.534 139.18 222.498 138.648C223.463 138.116 224.557 137.836 225.671 137.837C226.784 137.838 227.878 138.119 228.842 138.652L453.714 262.755C454.679 263.286 455.481 264.051 456.038 264.972C456.596 265.894 456.889 266.939 456.89 268.004V414.797C456.89 415.863 456.597 416.911 456.04 417.834C455.483 418.757 454.681 419.524 453.715 420.057C452.75 420.591 451.654 420.871 450.539 420.872C449.424 420.872 448.328 420.591 447.363 420.058Z" fill="#EBEBEB"/>
<path d="M437.148 425.796L212.289 301.706C211.324 301.171 210.523 300.404 209.965 299.481C209.408 298.558 209.114 297.511 209.113 296.445V149.69C209.112 148.625 209.405 147.579 209.961 146.657C210.518 145.735 211.319 144.969 212.283 144.437C213.248 143.905 214.342 143.625 215.456 143.626C216.569 143.627 217.663 143.908 218.627 144.441L443.499 268.545C444.468 269.078 445.272 269.846 445.83 270.773C446.388 271.699 446.679 272.75 446.675 273.818V420.548C446.673 421.613 446.378 422.658 445.82 423.58C445.262 424.502 444.46 425.267 443.495 425.798C442.529 426.33 441.435 426.61 440.321 426.609C439.207 426.609 438.113 426.328 437.148 425.796Z" fill="#FAFAFA"/>
<path d="M177.465 147.759V363.473C177.464 366.535 178.307 369.542 179.909 372.193C181.511 374.844 183.814 377.045 186.589 378.575L451.682 524.854C453.022 525.592 454.541 525.98 456.087 525.979C457.633 525.978 459.151 525.589 460.49 524.85C461.829 524.111 462.941 523.049 463.714 521.769C464.488 520.49 464.895 519.038 464.897 517.56V343.536L325.083 266.357L300.929 213.104C296.42 203.158 288.683 194.864 278.86 189.449L190.383 140.569C189.069 139.844 187.578 139.463 186.061 139.466C184.544 139.468 183.055 139.854 181.743 140.584C180.432 141.314 179.346 142.362 178.595 143.622C177.844 144.882 177.454 146.309 177.465 147.759Z" fill="#3575B6"/>
<path opacity="0.2" d="M177.465 147.759V363.473C177.464 366.535 178.307 369.542 179.909 372.193C181.511 374.844 183.814 377.045 186.589 378.575L451.682 524.854C453.022 525.592 454.541 525.98 456.087 525.979C457.633 525.978 459.151 525.589 460.49 524.85C461.829 524.111 462.941 523.049 463.714 521.769C464.488 520.49 464.895 519.038 464.897 517.56V343.536L325.083 266.357L300.929 213.104C296.42 203.158 288.683 194.864 278.86 189.449L190.383 140.569C189.069 139.844 187.578 139.463 186.061 139.466C184.544 139.468 183.055 139.854 181.743 140.584C180.432 141.314 179.346 142.362 178.595 143.622C177.844 144.882 177.454 146.309 177.465 147.759Z" fill="black"/>
<path d="M387.549 383.154C386.809 382.742 386.069 382.382 385.342 382.061C384.777 365.467 372.666 345.851 357.864 337.67C352.872 334.905 348.189 333.811 344.152 334.146C338.5 316.626 325.514 299.415 310.389 291.029C291.093 280.378 275.268 288.057 273.734 308.072C272.805 307.455 271.863 306.876 270.921 306.348C256.267 298.27 244.398 304.818 244.398 320.987C244.398 337.156 256.267 356.823 270.921 364.901L387.589 429.294C399.149 435.725 408.514 430.503 408.514 417.717C408.514 404.931 399.108 389.47 387.549 383.154Z" fill="#3575B6"/>
<path opacity="0.4" d="M387.549 383.154C386.809 382.742 386.069 382.382 385.342 382.061C384.777 365.467 372.666 345.851 357.864 337.67C352.872 334.905 348.189 333.811 344.152 334.146C338.5 316.626 325.514 299.415 310.389 291.029C291.093 280.378 275.268 288.057 273.734 308.072C272.805 307.455 271.863 306.876 270.921 306.348C256.267 298.27 244.398 304.818 244.398 320.987C244.398 337.156 256.267 356.823 270.921 364.901L387.589 429.294C399.149 435.725 408.514 430.503 408.514 417.717C408.514 404.931 399.108 389.47 387.549 383.154Z" fill="white"/>
<path d="M288.145 381.649L315.636 429.564L345.012 412.546L333.399 406.282V358.856L302.099 341.619V389.431L288.145 381.649Z" fill="white"/>
<path d="M209.06 78.8389C179.761 78.8383 151.222 87.7539 127.577 104.294C103.933 120.834 86.4108 144.14 77.5493 170.836L66.4207 164.713C66.0946 164.53 65.7251 164.43 65.3472 164.422C64.9694 164.414 64.5957 164.499 64.2615 164.668C63.9273 164.836 63.6437 165.084 63.4376 165.387C63.2314 165.689 63.1095 166.038 63.0835 166.398C61.0616 187.016 64.1742 207.799 72.1666 227.047C76.097 236.601 81.4152 245.577 87.9646 253.713C88.1743 253.966 88.4499 254.161 88.7638 254.28C89.0776 254.399 89.4188 254.437 89.7528 254.39C90.0869 254.344 90.4022 254.213 90.667 254.013C90.9318 253.813 91.1368 253.55 91.2615 253.25C96.1111 241.622 102.801 230.777 111.096 221.092C116.462 214.727 122.495 208.904 129.101 203.714C129.472 203.425 129.764 203.053 129.951 202.632C130.138 202.211 130.215 201.753 130.176 201.297C130.136 200.841 129.98 200.401 129.723 200.015C129.465 199.629 129.113 199.31 128.698 199.083L115.349 191.713C122.464 167.135 138.016 145.557 159.505 130.446C180.994 115.334 207.174 107.567 233.838 108.39C260.501 109.214 286.102 118.581 306.525 134.987C326.949 151.394 341.011 173.886 346.451 198.852C343.351 166.065 327.536 135.573 302.113 113.366C276.69 91.159 243.499 78.8433 209.06 78.8389Z" fill="#3575B6"/>
<path opacity="0.4" d="M209.06 78.8389C179.761 78.8383 151.222 87.7539 127.577 104.294C103.933 120.834 86.4108 144.14 77.5493 170.836L66.4207 164.713C66.0946 164.53 65.7251 164.43 65.3472 164.422C64.9694 164.414 64.5957 164.499 64.2615 164.668C63.9273 164.836 63.6437 165.084 63.4376 165.387C63.2314 165.689 63.1095 166.038 63.0835 166.398C61.0616 187.016 64.1742 207.799 72.1666 227.047C76.097 236.601 81.4152 245.577 87.9646 253.713C88.1743 253.966 88.4499 254.161 88.7638 254.28C89.0776 254.399 89.4188 254.437 89.7528 254.39C90.0869 254.344 90.4022 254.213 90.667 254.013C90.9318 253.813 91.1368 253.55 91.2615 253.25C96.1111 241.622 102.801 230.777 111.096 221.092C116.462 214.727 122.495 208.904 129.101 203.714C129.472 203.425 129.764 203.053 129.951 202.632C130.138 202.211 130.215 201.753 130.176 201.297C130.136 200.841 129.98 200.401 129.723 200.015C129.465 199.629 129.113 199.31 128.698 199.083L115.349 191.713C122.464 167.135 138.016 145.557 159.505 130.446C180.994 115.334 207.174 107.567 233.838 108.39C260.501 109.214 286.102 118.581 306.525 134.987C326.949 151.394 341.011 173.886 346.451 198.852C343.351 166.065 327.536 135.573 302.113 113.366C276.69 91.159 243.499 78.8433 209.06 78.8389Z" fill="white"/>
<path d="M474.354 106.155C489.53 97.7793 489.531 70.6208 474.355 45.4947C459.179 20.3686 434.574 6.78975 419.397 15.1655C404.221 23.5412 404.22 50.6998 419.396 75.8259C434.572 100.952 459.177 114.531 474.354 106.155Z" fill="#FFC0D0"/>
<path opacity="0.2" d="M474.354 106.155C489.53 97.7793 489.531 70.6208 474.355 45.4947C459.179 20.3686 434.574 6.78975 419.397 15.1655C404.221 23.5412 404.22 50.6998 419.396 75.8259C434.572 100.952 459.177 114.531 474.354 106.155Z" fill="black"/>
<path d="M472.069 107.416C487.245 99.0401 487.246 71.8815 472.07 46.7554C456.894 21.6293 432.289 8.05047 417.112 16.4262C401.936 24.8019 401.935 51.9605 417.111 77.0866C432.287 102.213 456.892 115.792 472.069 107.416Z" fill="#FFC0D0"/>
<path d="M429.184 74.4394L459.097 91.0328C459.462 91.2369 459.876 91.3453 460.298 91.347C460.721 91.3487 461.136 91.2437 461.502 91.0426C461.868 90.8415 462.172 90.5514 462.383 90.2018C462.594 89.8522 462.705 89.4555 462.704 89.0518V53.6783C462.697 52.7928 462.444 51.9249 461.971 51.1633C461.498 50.4017 460.822 49.7737 460.012 49.3435L430.099 32.8015C429.734 32.5975 429.32 32.4891 428.898 32.4873C428.475 32.4856 428.06 32.5906 427.694 32.7917C427.328 32.9928 427.024 33.2829 426.813 33.6325C426.602 33.9821 426.491 34.3788 426.492 34.7825V70.156C426.509 71.0328 426.766 71.89 427.238 72.6418C427.711 73.3935 428.382 74.0134 429.184 74.4394Z" fill="#FFC0D0"/>
<path opacity="0.6" d="M429.184 74.4394L459.097 91.0328C459.462 91.2369 459.876 91.3453 460.298 91.347C460.721 91.3487 461.136 91.2437 461.502 91.0426C461.868 90.8415 462.172 90.5514 462.383 90.2018C462.594 89.8522 462.705 89.4555 462.704 89.0518V53.6783C462.697 52.7928 462.444 51.9249 461.971 51.1633C461.498 50.4017 460.822 49.7737 460.012 49.3435L430.099 32.8015C429.734 32.5975 429.32 32.4891 428.898 32.4873C428.475 32.4856 428.06 32.5906 427.694 32.7917C427.328 32.9928 427.024 33.2829 426.813 33.6325C426.602 33.9821 426.491 34.3788 426.492 34.7825V70.156C426.509 71.0328 426.766 71.89 427.238 72.6418C427.711 73.3935 428.382 74.0134 429.184 74.4394Z" fill="white"/>
<path d="M432.185 69.2943L456.232 82.5047C456.527 82.6707 456.863 82.758 457.205 82.7575C457.547 82.757 457.883 82.6686 458.177 82.5017C458.472 82.3348 458.714 82.0954 458.878 81.8086C459.042 81.5218 459.123 81.198 459.112 80.8711V54.3731C459.111 53.6691 458.917 52.9776 458.549 52.3679C458.18 51.7583 457.651 51.2521 457.013 50.9001L432.966 37.6382C432.673 37.4783 432.342 37.3946 432.005 37.3955C431.668 37.3964 431.337 37.4819 431.046 37.6434C430.754 37.8049 430.512 38.0367 430.344 38.3157C430.175 38.5948 430.087 38.9112 430.086 39.2333V65.7698C430.077 66.4826 430.267 67.1848 430.636 67.8042C431.005 68.4236 431.54 68.938 432.185 69.2943Z" fill="#FFC0D0"/>
<path opacity="0.4" d="M459.112 54.3729V80.8709C459.116 81.1945 459.029 81.5133 458.862 81.7947C458.695 82.076 458.452 82.3098 458.159 82.472C457.866 82.6343 457.533 82.7192 457.195 82.7182C456.856 82.7171 456.524 82.63 456.232 82.4659L432.185 69.2941C431.547 68.9462 431.016 68.4427 430.647 67.8348C430.278 67.227 430.085 66.5366 430.086 65.8339V39.233C430.082 38.9094 430.168 38.5906 430.336 38.3093C430.503 38.0279 430.746 37.7942 431.039 37.6319C431.332 37.4696 431.665 37.3847 432.003 37.3858C432.342 37.3868 432.674 37.4739 432.966 37.638L457.013 50.9127C457.651 51.2606 458.182 51.7642 458.551 52.372C458.919 52.9798 459.113 53.6703 459.112 54.3729Z" fill="white"/>
<path d="M459.112 79.932V80.871C459.116 81.1947 459.029 81.5135 458.862 81.7948C458.695 82.0761 458.452 82.3099 458.159 82.4722C457.866 82.6344 457.533 82.7194 457.195 82.7183C456.856 82.7172 456.524 82.6302 456.232 82.466L432.185 69.2942C431.547 68.9463 431.016 68.4428 430.647 67.835C430.278 67.2271 430.085 66.5367 430.086 65.8341V63.2614L436.384 58.1162L443.812 68.2266L451.065 59.9814L459.112 79.932Z" fill="#FAFAFA"/>
<path d="M438.375 50.1543C438.437 51.2275 438.761 52.272 439.322 53.2036C439.883 54.1352 440.665 54.928 441.605 55.5182C443.394 56.5086 444.848 55.7111 444.848 53.7302C444.784 52.6558 444.458 51.6106 443.895 50.6789C443.331 49.7472 442.547 48.9551 441.605 48.3663C439.828 47.4273 438.375 48.1862 438.375 50.1543Z" fill="#FAFAFA"/>
<path d="M541.702 238.22C556.878 229.845 556.879 202.686 541.703 177.56C526.527 152.434 501.922 138.855 486.745 147.231C471.569 155.607 471.568 182.765 486.744 207.891C501.92 233.017 526.525 246.596 541.702 238.22Z" fill="#FFC0D0"/>
<path opacity="0.2" d="M541.702 238.22C556.878 229.845 556.879 202.686 541.703 177.56C526.527 152.434 501.922 138.855 486.745 147.231C471.569 155.607 471.568 182.765 486.744 207.891C501.92 233.017 526.525 246.596 541.702 238.22Z" fill="black"/>
<path d="M539.428 239.492C554.605 231.116 554.605 203.958 539.429 178.832C524.253 153.706 499.648 140.127 484.472 148.502C469.295 156.878 469.295 184.037 484.47 209.163C499.646 234.289 524.252 247.868 539.428 239.492Z" fill="#FFC0D0"/>
<path d="M497.45 164.867C497.084 164.667 496.669 164.562 496.248 164.563C495.826 164.563 495.412 164.67 495.047 164.872C494.681 165.074 494.378 165.364 494.167 165.713C493.956 166.062 493.844 166.458 493.844 166.861V202.235C493.844 203.112 494.087 203.974 494.547 204.733C495.008 205.492 495.671 206.121 496.468 206.557L526.449 223.111C526.818 223.331 527.243 223.451 527.679 223.457C528.114 223.464 528.542 223.357 528.919 223.148C529.295 222.939 529.605 222.636 529.814 222.271C530.024 221.907 530.126 221.495 530.109 221.079V194.825L522.035 178.374L497.45 164.867Z" fill="#FFC0D0"/>
<path opacity="0.6" d="M497.45 164.867C497.084 164.667 496.669 164.562 496.248 164.563C495.826 164.563 495.412 164.67 495.047 164.872C494.681 165.074 494.378 165.364 494.167 165.713C493.956 166.062 493.844 166.458 493.844 166.861V202.235C493.844 203.112 494.087 203.974 494.547 204.733C495.008 205.492 495.671 206.121 496.468 206.557L526.449 223.111C526.818 223.331 527.243 223.451 527.679 223.457C528.114 223.464 528.542 223.357 528.919 223.148C529.295 222.939 529.605 222.636 529.814 222.271C530.024 221.907 530.126 221.495 530.109 221.079V194.825L522.035 178.374L497.45 164.867Z" fill="white"/>
<path d="M520.862 184.394L521.911 178.374L529.985 194.839L522.652 189.063C521.951 188.503 521.417 187.777 521.103 186.958C520.789 186.138 520.706 185.254 520.862 184.394Z" fill="#FFC0D0"/>
<path opacity="0.4" d="M520.862 184.394L521.911 178.374L529.985 194.839L522.652 189.063C521.951 188.503 521.417 187.777 521.103 186.958C520.789 186.138 520.706 185.254 520.862 184.394Z" fill="white"/>
<path d="M523.782 198.209C523.635 198.207 523.491 198.167 523.365 198.093L499.695 185.063C499.508 184.955 499.372 184.782 499.316 184.58C499.261 184.378 499.291 184.163 499.399 183.982C499.509 183.804 499.688 183.674 499.897 183.621C500.106 183.568 500.328 183.596 500.516 183.699L524.2 196.755C524.387 196.862 524.523 197.036 524.579 197.238C524.634 197.44 524.604 197.654 524.496 197.836C524.422 197.953 524.317 198.049 524.192 198.114C524.066 198.18 523.925 198.212 523.782 198.209Z" fill="#FAFAFA"/>
<path d="M523.782 205.875C523.637 205.872 523.494 205.836 523.365 205.772L499.695 192.703C499.508 192.596 499.372 192.423 499.316 192.221C499.261 192.019 499.291 191.804 499.399 191.623C499.509 191.444 499.688 191.315 499.897 191.262C500.106 191.209 500.328 191.237 500.516 191.34L524.2 204.357C524.387 204.464 524.523 204.638 524.579 204.84C524.634 205.042 524.604 205.256 524.496 205.438C524.431 205.567 524.33 205.676 524.204 205.753C524.078 205.83 523.932 205.872 523.782 205.875Z" fill="#FAFAFA"/>
<path d="M523.782 213.541C523.637 213.538 523.494 213.502 523.365 213.438L499.695 200.369C499.508 200.262 499.372 200.089 499.316 199.887C499.261 199.685 499.291 199.47 499.399 199.289C499.509 199.11 499.688 198.981 499.897 198.928C500.106 198.875 500.328 198.903 500.516 199.006L524.2 212.075C524.358 212.161 524.482 212.295 524.551 212.455C524.621 212.616 524.633 212.794 524.585 212.962C524.538 213.13 524.433 213.278 524.287 213.383C524.142 213.488 523.964 213.543 523.782 213.541Z" fill="#FAFAFA"/>
<path d="M401.105 161.827C416.351 153.451 416.408 126.199 401.232 100.957C386.056 75.716 361.395 62.0436 346.149 70.4194C330.902 78.7951 330.845 106.047 346.021 131.289C361.197 156.53 385.859 170.202 401.105 161.827Z" fill="#FFC0D0"/>
<path opacity="0.2" d="M401.105 161.827C416.351 153.451 416.408 126.199 401.232 100.957C386.056 75.716 361.395 62.0436 346.149 70.4194C330.902 78.7951 330.845 106.047 346.021 131.289C361.197 156.53 385.859 170.202 401.105 161.827Z" fill="black"/>
<path d="M397.209 162.345C412.386 153.97 412.386 126.811 397.211 101.685C382.035 76.559 357.429 62.9802 342.253 71.3559C327.076 79.7316 327.076 106.89 342.252 132.016C357.428 157.142 382.033 170.721 397.209 162.345Z" fill="#FFC0D0"/>
<path d="M354.243 129.43L384.224 145.972C384.588 146.176 385.002 146.284 385.425 146.286C385.847 146.288 386.262 146.182 386.628 145.981C386.994 145.78 387.298 145.49 387.509 145.141C387.72 144.791 387.831 144.394 387.83 143.991V108.617C387.83 107.738 387.587 106.874 387.126 106.113C386.666 105.352 386.003 104.721 385.206 104.282L355.171 87.7403C354.807 87.5395 354.394 87.4337 353.974 87.4336C353.554 87.4335 353.141 87.5391 352.777 87.7399C352.413 87.9406 352.11 88.2293 351.9 88.5771C351.689 88.9249 351.578 89.3195 351.578 89.7213V125.095C351.584 125.978 351.833 126.843 352.301 127.604C352.769 128.365 353.439 128.995 354.243 129.43Z" fill="#FFC0D0"/>
<path opacity="0.6" d="M354.243 129.43L384.224 145.972C384.588 146.176 385.002 146.284 385.425 146.286C385.847 146.288 386.262 146.182 386.628 145.981C386.994 145.78 387.298 145.49 387.509 145.141C387.72 144.791 387.831 144.394 387.83 143.991V108.617C387.83 107.738 387.587 106.874 387.126 106.113C386.666 105.352 386.003 104.721 385.206 104.282L355.171 87.7403C354.807 87.5395 354.394 87.4337 353.974 87.4336C353.554 87.4335 353.141 87.5391 352.777 87.7399C352.413 87.9406 352.11 88.2293 351.9 88.5771C351.689 88.9249 351.578 89.3195 351.578 89.7213V125.095C351.584 125.978 351.833 126.843 352.301 127.604C352.769 128.365 353.439 128.995 354.243 129.43Z" fill="white"/>
<path d="M362.414 110.855V122.857C362.414 123.331 362.611 123.786 362.962 124.121C363.313 124.456 363.788 124.645 364.284 124.645H375.171C375.529 124.644 375.88 124.546 376.182 124.36C376.483 124.175 376.723 123.911 376.871 123.599C377.02 123.287 377.072 122.941 377.021 122.602C376.97 122.263 376.818 121.945 376.584 121.686L365.697 109.685C365.448 109.41 365.116 109.214 364.747 109.124C364.377 109.034 363.988 109.054 363.631 109.181C363.274 109.308 362.966 109.537 362.748 109.836C362.531 110.135 362.414 110.491 362.414 110.855Z" fill="#FAFAFA"/>
<path d="M446.877 112.412C446.624 112.412 446.381 112.316 446.202 112.144C446.023 111.973 445.922 111.741 445.922 111.499V109.068C445.922 108.825 446.023 108.593 446.202 108.422C446.381 108.251 446.624 108.154 446.877 108.154C447.002 108.154 447.126 108.178 447.241 108.224C447.356 108.27 447.46 108.338 447.548 108.423C447.636 108.508 447.705 108.608 447.751 108.719C447.798 108.83 447.821 108.948 447.819 109.068V111.499C447.821 111.618 447.798 111.736 447.751 111.847C447.705 111.958 447.636 112.059 447.548 112.144C447.46 112.229 447.356 112.296 447.241 112.342C447.126 112.388 447.002 112.412 446.877 112.412Z" fill="#FFC0D0"/>
<path d="M446.877 248.477C446.624 248.477 446.381 248.381 446.202 248.21C446.023 248.039 445.922 247.806 445.922 247.564V242.702C445.922 242.46 446.023 242.227 446.202 242.056C446.381 241.885 446.624 241.789 446.877 241.789C447.002 241.789 447.126 241.812 447.241 241.858C447.356 241.904 447.46 241.972 447.548 242.057C447.636 242.142 447.705 242.243 447.751 242.353C447.798 242.464 447.821 242.583 447.819 242.702V247.564C447.821 247.683 447.798 247.802 447.751 247.913C447.705 248.023 447.636 248.124 447.548 248.209C447.46 248.294 447.356 248.362 447.241 248.408C447.126 248.454 447.002 248.477 446.877 248.477ZM446.877 238.753C446.624 238.753 446.381 238.657 446.202 238.485C446.023 238.314 445.922 238.082 445.922 237.84V232.99C445.922 232.748 446.023 232.516 446.202 232.344C446.381 232.173 446.624 232.077 446.877 232.077C447.002 232.077 447.126 232.101 447.241 232.147C447.356 232.193 447.46 232.26 447.548 232.345C447.636 232.43 447.705 232.531 447.751 232.642C447.798 232.752 447.821 232.871 447.819 232.99V237.801C447.827 237.924 447.808 238.046 447.764 238.161C447.72 238.277 447.651 238.382 447.563 238.471C447.475 238.56 447.369 238.631 447.251 238.68C447.133 238.728 447.006 238.753 446.877 238.753ZM446.877 229.041C446.624 229.041 446.381 228.945 446.202 228.774C446.023 228.602 445.922 228.37 445.922 228.128V223.266C445.922 223.023 446.023 222.791 446.202 222.62C446.381 222.449 446.624 222.352 446.877 222.352C447.002 222.352 447.126 222.376 447.241 222.422C447.356 222.468 447.46 222.536 447.548 222.621C447.636 222.706 447.705 222.806 447.751 222.917C447.798 223.028 447.821 223.146 447.819 223.266V228.128C447.821 228.247 447.798 228.366 447.751 228.476C447.705 228.587 447.636 228.688 447.548 228.773C447.46 228.858 447.356 228.925 447.241 228.971C447.126 229.018 447.002 229.041 446.877 229.041ZM446.877 219.317C446.624 219.317 446.381 219.221 446.202 219.049C446.023 218.878 445.922 218.646 445.922 218.403V213.541C445.922 213.422 445.947 213.304 445.995 213.194C446.043 213.084 446.114 212.984 446.203 212.9C446.291 212.816 446.397 212.75 446.513 212.706C446.629 212.661 446.752 212.639 446.877 212.641C447.127 212.641 447.367 212.736 447.543 212.905C447.72 213.073 447.819 213.302 447.819 213.541V218.403C447.821 218.523 447.798 218.641 447.751 218.752C447.705 218.863 447.636 218.964 447.548 219.048C447.46 219.133 447.356 219.201 447.241 219.247C447.126 219.293 447.002 219.317 446.877 219.317ZM446.877 209.605C446.624 209.605 446.381 209.509 446.202 209.338C446.023 209.166 445.922 208.934 445.922 208.692V203.83C445.922 203.587 446.023 203.355 446.202 203.184C446.381 203.013 446.624 202.916 446.877 202.916C447.002 202.916 447.126 202.94 447.241 202.986C447.356 203.032 447.46 203.1 447.548 203.185C447.636 203.27 447.705 203.37 447.751 203.481C447.798 203.592 447.821 203.71 447.819 203.83V208.692C447.821 208.811 447.798 208.93 447.751 209.04C447.705 209.151 447.636 209.252 447.548 209.337C447.46 209.422 447.356 209.489 447.241 209.535C447.126 209.581 447.002 209.605 446.877 209.605ZM446.877 199.881C446.624 199.881 446.381 199.784 446.202 199.613C446.023 199.442 445.922 199.21 445.922 198.967V194.066C445.922 193.824 446.023 193.592 446.202 193.421C446.381 193.249 446.624 193.153 446.877 193.153C447.002 193.153 447.126 193.177 447.241 193.223C447.356 193.269 447.46 193.337 447.548 193.421C447.636 193.506 447.705 193.607 447.751 193.718C447.798 193.829 447.821 193.947 447.819 194.066V198.929C447.827 199.051 447.808 199.174 447.764 199.289C447.72 199.404 447.651 199.51 447.563 199.599C447.475 199.688 447.369 199.759 447.251 199.808C447.133 199.856 447.006 199.881 446.877 199.881ZM446.877 190.156C446.752 190.158 446.629 190.136 446.513 190.091C446.397 190.047 446.291 189.981 446.203 189.897C446.114 189.813 446.043 189.713 445.995 189.603C445.947 189.493 445.922 189.375 445.922 189.256V184.393C445.922 184.151 446.023 183.919 446.202 183.748C446.381 183.576 446.624 183.48 446.877 183.48C447.002 183.48 447.126 183.504 447.241 183.55C447.356 183.596 447.46 183.663 447.548 183.748C447.636 183.833 447.705 183.934 447.751 184.045C447.798 184.156 447.821 184.274 447.819 184.393V189.256C447.827 189.378 447.808 189.501 447.764 189.616C447.72 189.731 447.651 189.837 447.563 189.926C447.475 190.015 447.369 190.086 447.251 190.134C447.133 190.183 447.006 190.208 446.877 190.208V190.156ZM446.877 180.444C446.624 180.444 446.381 180.348 446.202 180.177C446.023 180.006 445.922 179.773 445.922 179.531V174.669C445.922 174.427 446.023 174.194 446.202 174.023C446.381 173.852 446.624 173.756 446.877 173.756C447.002 173.756 447.126 173.779 447.241 173.825C447.356 173.871 447.46 173.939 447.548 174.024C447.636 174.109 447.705 174.21 447.751 174.32C447.798 174.431 447.821 174.55 447.819 174.669V179.531C447.821 179.651 447.798 179.769 447.751 179.88C447.705 179.99 447.636 180.091 447.548 180.176C447.46 180.261 447.356 180.329 447.241 180.375C447.126 180.421 447.002 180.444 446.877 180.444ZM446.877 170.72C446.752 170.72 446.628 170.696 446.512 170.65C446.396 170.605 446.29 170.537 446.202 170.452C446.113 170.368 446.043 170.267 445.995 170.156C445.947 170.045 445.922 169.927 445.922 169.807V164.957C445.922 164.715 446.023 164.483 446.202 164.312C446.381 164.14 446.624 164.044 446.877 164.044C447.002 164.044 447.126 164.068 447.241 164.114C447.356 164.16 447.46 164.227 447.548 164.312C447.636 164.397 447.705 164.498 447.751 164.609C447.798 164.72 447.821 164.838 447.819 164.957V169.807C447.821 169.926 447.798 170.044 447.751 170.155C447.705 170.266 447.636 170.367 447.548 170.452C447.46 170.537 447.356 170.604 447.241 170.65C447.126 170.696 447.002 170.72 446.877 170.72ZM446.877 161.008C446.624 161.008 446.381 160.912 446.202 160.741C446.023 160.57 445.922 160.337 445.922 160.095V155.233C445.922 154.991 446.023 154.758 446.202 154.587C446.381 154.416 446.624 154.32 446.877 154.32C447.002 154.32 447.126 154.343 447.241 154.389C447.356 154.435 447.46 154.503 447.548 154.588C447.636 154.673 447.705 154.774 447.751 154.884C447.798 154.995 447.821 155.113 447.819 155.233V160.095C447.821 160.214 447.798 160.333 447.751 160.444C447.705 160.554 447.636 160.655 447.548 160.74C447.46 160.825 447.356 160.893 447.241 160.939C447.126 160.985 447.002 161.008 446.877 161.008ZM446.877 151.284C446.624 151.284 446.381 151.188 446.202 151.016C446.023 150.845 445.922 150.613 445.922 150.371V145.508C445.922 145.389 445.947 145.271 445.995 145.161C446.043 145.051 446.114 144.951 446.203 144.867C446.291 144.783 446.397 144.717 446.513 144.673C446.629 144.628 446.752 144.606 446.877 144.608C447.127 144.608 447.367 144.703 447.543 144.872C447.72 145.04 447.819 145.27 447.819 145.508V150.332C447.827 150.454 447.808 150.577 447.764 150.692C447.72 150.808 447.651 150.913 447.563 151.002C447.475 151.091 447.369 151.162 447.251 151.211C447.133 151.259 447.006 151.284 446.877 151.284ZM446.877 141.572C446.624 141.572 446.381 141.476 446.202 141.305C446.023 141.133 445.922 140.901 445.922 140.659V135.797C445.922 135.554 446.023 135.322 446.202 135.151C446.381 134.98 446.624 134.883 446.877 134.883C447.002 134.883 447.126 134.907 447.241 134.953C447.356 134.999 447.46 135.067 447.548 135.152C447.636 135.237 447.705 135.337 447.751 135.448C447.798 135.559 447.821 135.677 447.819 135.797V140.659C447.821 140.778 447.798 140.897 447.751 141.007C447.705 141.118 447.636 141.219 447.548 141.304C447.46 141.389 447.356 141.456 447.241 141.502C447.126 141.549 447.002 141.572 446.877 141.572ZM446.877 131.848C446.624 131.848 446.381 131.751 446.202 131.58C446.023 131.409 445.922 131.177 445.922 130.934V126.072C445.922 125.83 446.023 125.598 446.202 125.426C446.381 125.255 446.624 125.159 446.877 125.159C447.002 125.159 447.126 125.183 447.241 125.229C447.356 125.275 447.46 125.342 447.548 125.427C447.636 125.512 447.705 125.613 447.751 125.724C447.798 125.834 447.821 125.953 447.819 126.072V130.934C447.821 131.054 447.798 131.172 447.751 131.283C447.705 131.394 447.636 131.494 447.548 131.579C447.46 131.664 447.356 131.732 447.241 131.778C447.126 131.824 447.002 131.848 446.877 131.848ZM446.877 122.123C446.752 122.125 446.629 122.103 446.513 122.058C446.397 122.014 446.291 121.948 446.203 121.864C446.114 121.78 446.043 121.68 445.995 121.57C445.947 121.46 445.922 121.342 445.922 121.223V116.361C445.922 116.118 446.023 115.886 446.202 115.715C446.381 115.543 446.624 115.447 446.877 115.447C447.002 115.447 447.126 115.471 447.241 115.517C447.356 115.563 447.46 115.631 447.548 115.716C447.636 115.801 447.705 115.901 447.751 116.012C447.798 116.123 447.821 116.241 447.819 116.361V121.223C447.819 121.341 447.795 121.458 447.748 121.567C447.7 121.677 447.631 121.776 447.543 121.859C447.456 121.943 447.352 122.009 447.238 122.055C447.123 122.1 447.001 122.123 446.877 122.123Z" fill="#FFC0D0"/>
<path d="M446.877 255.809C446.752 255.811 446.629 255.789 446.513 255.744C446.397 255.7 446.291 255.634 446.203 255.55C446.114 255.466 446.043 255.367 445.995 255.256C445.947 255.146 445.922 255.028 445.922 254.909V252.478C445.922 252.236 446.023 252.003 446.202 251.832C446.381 251.661 446.624 251.564 446.877 251.564C447.002 251.564 447.126 251.588 447.241 251.634C447.356 251.68 447.46 251.748 447.548 251.833C447.636 251.918 447.705 252.018 447.751 252.129C447.798 252.24 447.821 252.358 447.819 252.478V254.909C447.819 255.148 447.72 255.377 447.543 255.546C447.367 255.714 447.127 255.809 446.877 255.809Z" fill="#FFC0D0"/>
<path d="M470.9 195.983C470.724 195.985 470.55 195.939 470.4 195.85C470.25 195.761 470.129 195.633 470.053 195.481C469.995 195.374 469.961 195.257 469.952 195.138C469.942 195.018 469.958 194.897 469.998 194.783C470.039 194.669 470.102 194.564 470.185 194.474C470.269 194.384 470.37 194.311 470.483 194.259L472.757 193.179C472.869 193.125 472.99 193.094 473.114 193.085C473.238 193.077 473.363 193.092 473.481 193.13C473.599 193.167 473.708 193.227 473.802 193.305C473.896 193.383 473.973 193.477 474.029 193.584C474.085 193.69 474.118 193.806 474.127 193.925C474.136 194.043 474.12 194.163 474.081 194.276C474.041 194.388 473.979 194.493 473.897 194.583C473.816 194.673 473.717 194.746 473.605 194.799L471.331 195.893C471.197 195.954 471.049 195.985 470.9 195.983Z" fill="#FFC0D0"/>
<path d="M459.704 201.309C459.527 201.311 459.353 201.265 459.203 201.176C459.053 201.087 458.933 200.959 458.856 200.807C458.787 200.697 458.744 200.575 458.729 200.448C458.714 200.321 458.727 200.193 458.767 200.071C458.808 199.949 458.876 199.837 458.965 199.743C459.054 199.648 459.164 199.572 459.286 199.521L464.884 196.858C465 196.795 465.128 196.755 465.26 196.741C465.392 196.728 465.526 196.741 465.652 196.78C465.779 196.819 465.896 196.882 465.995 196.967C466.095 197.051 466.175 197.154 466.23 197.27C466.296 197.38 466.338 197.502 466.352 197.629C466.366 197.755 466.353 197.883 466.312 198.004C466.272 198.125 466.205 198.237 466.117 198.332C466.028 198.427 465.92 198.503 465.799 198.556L460.134 201.219C460 201.28 459.853 201.311 459.704 201.309Z" fill="#FFC0D0"/>
<path d="M451.833 205.052C451.656 205.054 451.482 205.008 451.332 204.919C451.182 204.83 451.062 204.702 450.985 204.55C450.916 204.441 450.873 204.318 450.858 204.191C450.842 204.064 450.856 203.936 450.896 203.814C450.937 203.692 451.004 203.58 451.094 203.486C451.183 203.391 451.293 203.315 451.415 203.264L453.69 202.183C453.805 202.12 453.933 202.08 454.065 202.067C454.197 202.053 454.331 202.066 454.458 202.105C454.584 202.144 454.701 202.207 454.8 202.292C454.9 202.376 454.98 202.479 455.035 202.595C455.147 202.812 455.165 203.062 455.084 203.291C455.003 203.52 454.831 203.709 454.605 203.817L452.33 204.897C452.183 204.992 452.01 205.046 451.833 205.052Z" fill="#FFC0D0"/>
<path d="M416.601 139.141C416.438 139.142 416.278 139.103 416.136 139.026C415.994 138.949 415.876 138.838 415.793 138.704L414.448 136.62C414.375 136.518 414.325 136.402 414.301 136.28C414.277 136.158 414.28 136.033 414.309 135.912C414.338 135.792 414.393 135.678 414.47 135.578C414.547 135.479 414.645 135.396 414.757 135.334C414.867 135.268 414.988 135.224 415.115 135.205C415.243 135.185 415.373 135.189 415.498 135.218C415.623 135.247 415.741 135.299 415.845 135.372C415.949 135.445 416.037 135.537 416.103 135.643L417.449 137.726C417.538 137.864 417.588 138.023 417.591 138.185C417.594 138.347 417.552 138.507 417.468 138.648C417.383 138.789 417.261 138.906 417.113 138.986C416.965 139.066 416.798 139.106 416.628 139.103L416.601 139.141Z" fill="#FFC0D0"/>
<path d="M437.488 172.084C437.324 172.085 437.162 172.045 437.018 171.968C436.874 171.892 436.753 171.781 436.668 171.647L434.057 167.53C433.984 167.428 433.934 167.313 433.909 167.192C433.884 167.07 433.886 166.945 433.913 166.824C433.94 166.704 433.993 166.589 434.068 166.488C434.143 166.388 434.238 166.302 434.349 166.238C434.459 166.173 434.582 166.131 434.71 166.113C434.838 166.095 434.968 166.103 435.093 166.134C435.218 166.166 435.335 166.222 435.437 166.298C435.539 166.375 435.623 166.47 435.685 166.579L438.296 170.695C438.364 170.799 438.41 170.915 438.431 171.037C438.452 171.159 438.447 171.283 438.417 171.403C438.387 171.523 438.332 171.635 438.256 171.735C438.18 171.834 438.083 171.918 437.973 171.981C437.824 172.057 437.657 172.093 437.488 172.084ZM432.267 163.852C432.103 163.852 431.94 163.813 431.797 163.736C431.653 163.659 431.532 163.549 431.446 163.414L428.836 159.298C428.767 159.194 428.721 159.077 428.701 158.956C428.68 158.834 428.685 158.71 428.715 158.59C428.745 158.47 428.799 158.357 428.876 158.258C428.952 158.159 429.048 158.075 429.159 158.012C429.267 157.945 429.389 157.899 429.517 157.878C429.644 157.857 429.775 157.862 429.901 157.89C430.027 157.919 430.145 157.972 430.249 158.046C430.353 158.12 430.44 158.213 430.504 158.32L433.115 162.437C433.199 162.575 433.244 162.732 433.245 162.892C433.246 163.052 433.205 163.21 433.123 163.35C433.042 163.49 432.924 163.607 432.781 163.691C432.638 163.774 432.475 163.821 432.308 163.826L432.267 163.852ZM427.046 155.619C426.881 155.616 426.719 155.574 426.575 155.495C426.432 155.416 426.311 155.304 426.225 155.169L423.615 151.053C423.513 150.848 423.494 150.615 423.562 150.397C423.63 150.18 423.781 149.995 423.984 149.878C424.187 149.761 424.428 149.72 424.661 149.764C424.894 149.807 425.101 149.932 425.243 150.114L427.84 154.191C427.913 154.294 427.963 154.41 427.987 154.531C428.01 154.653 428.008 154.778 427.979 154.899C427.95 155.02 427.895 155.134 427.818 155.233C427.741 155.333 427.643 155.416 427.531 155.478C427.384 155.563 427.218 155.612 427.046 155.619ZM421.825 147.374C421.661 147.374 421.499 147.333 421.355 147.257C421.212 147.18 421.091 147.07 421.004 146.937L418.394 142.82C418.329 142.717 418.286 142.603 418.268 142.484C418.25 142.366 418.256 142.245 418.287 142.128C418.317 142.012 418.372 141.902 418.446 141.806C418.521 141.709 418.615 141.628 418.723 141.566C418.831 141.505 418.95 141.464 419.075 141.446C419.199 141.429 419.326 141.435 419.448 141.464C419.569 141.493 419.684 141.545 419.785 141.617C419.886 141.688 419.971 141.778 420.035 141.881L422.646 145.998C422.736 146.135 422.785 146.294 422.788 146.456C422.791 146.619 422.749 146.779 422.665 146.92C422.581 147.061 422.458 147.177 422.31 147.257C422.162 147.337 421.995 147.378 421.825 147.374Z" fill="#FFC0D0"/>
<path d="M441.403 178.284C441.239 178.282 441.078 178.24 440.937 178.161C440.795 178.082 440.678 177.969 440.596 177.834L439.25 175.763C439.132 175.557 439.102 175.316 439.165 175.089C439.228 174.862 439.38 174.668 439.59 174.545C439.799 174.423 440.05 174.382 440.29 174.432C440.529 174.481 440.74 174.617 440.878 174.811L442.224 176.895C442.296 176.998 442.345 177.114 442.368 177.237C442.391 177.359 442.387 177.485 442.357 177.605C442.327 177.726 442.27 177.84 442.192 177.939C442.113 178.038 442.014 178.12 441.901 178.181C441.748 178.258 441.576 178.294 441.403 178.284Z" fill="#FFC0D0"/>
<path d="M164.924 315.61L104.558 349.736V381.624L73.043 398.5V415.647L131.525 448.074L223.393 398.796V348.038L164.924 315.61Z" fill="#263238"/>
<path d="M73.043 398.5L131.525 430.928V448.074L73.043 415.647V398.5Z" fill="#455A64"/>
<path d="M163.025 382.177V414.064L131.523 430.928V448.074L223.391 398.796V348.038L163.025 382.177Z" fill="#263238"/>
<path d="M131.525 430.928L163.027 414.065L104.558 381.624L73.043 398.5L131.525 430.928Z" fill="#37474F"/>
<path d="M163.027 414.065V382.177L104.559 349.736V381.624L163.027 414.065Z" fill="#455A64"/>
<path d="M163.027 382.177L104.559 349.736L164.925 315.61L223.393 348.038L163.027 382.177Z" fill="#37474F"/>
<path d="M179.588 231.846C179.588 231.846 165.189 251.14 173.748 257.816C182.306 264.492 201.078 259.103 201.832 255.925C202.585 252.748 179.588 231.846 179.588 231.846Z" fill="#263238"/>
<path d="M115.267 400.713L94.1133 427.622L99.9938 432.06C99.9938 432.06 108.471 430.362 111.472 419.66C113.232 413.444 114.5 407.111 115.267 400.713Z" fill="#FFA8A7"/>
<path d="M117.179 398.886C117.179 398.886 123.06 404.031 120.462 408.546C117.865 413.061 113.357 416.778 113.223 422.785C113.088 428.792 109.939 439.507 102.969 441.205C95.9985 442.903 89.176 440.588 89.3106 438.221C89.4451 435.854 94.1145 427.622 94.1145 427.622C94.1145 427.622 100.52 431.417 105.243 427.751C109.966 424.085 111.056 408.687 111.056 408.687L117.179 398.886Z" fill="#034C95"/>
<path opacity="0.2" d="M117.179 398.886C117.179 398.886 123.06 404.031 120.462 408.546C117.865 413.061 113.357 416.778 113.223 422.785C113.088 428.792 109.939 439.507 102.969 441.205C95.9985 442.903 89.176 440.588 89.3106 438.221C89.4451 435.854 94.1145 427.622 94.1145 427.622C94.1145 427.622 100.52 431.417 105.243 427.751C109.966 424.085 111.056 408.687 111.056 408.687L117.179 398.886Z" fill="black"/>
<path d="M153.323 315.584C153.323 315.584 106.145 334.66 102.323 336.538C98.5014 338.416 91.8 341.683 92.4728 356.386C93.1457 371.088 97.0077 407.504 97.0077 407.504L122.871 359.91L189.656 329.566L153.323 315.584Z" fill="#034C95"/>
<path opacity="0.5" d="M153.323 315.584C153.323 315.584 106.145 334.66 102.323 336.538C98.5014 338.416 91.8 341.683 92.4728 356.386C93.1457 371.088 97.0077 407.504 97.0077 407.504L122.871 359.91L189.656 329.566L153.323 315.584Z" fill="black"/>
<path d="M95.082 388.66C96.0778 399.053 96.9794 407.504 96.9794 407.504L122.843 359.911L170.466 338.236L159.7 330.146C144.481 337.452 122.372 348.051 115.765 351.292C107.368 355.409 104.771 367.05 97.5311 383.219C96.7103 384.994 95.9029 386.795 95.082 388.66Z" fill="#034C95"/>
<path opacity="0.7" d="M95.082 388.66C96.0778 399.053 96.9794 407.504 96.9794 407.504L122.843 359.911L170.466 338.236L159.7 330.146C144.481 337.452 122.372 348.051 115.765 351.292C107.368 355.409 104.771 367.05 97.5311 383.219C96.7103 384.994 95.9029 386.795 95.082 388.66Z" fill="black"/>
<path d="M157.211 325.309L162.082 332.345L158.274 332.898L157.211 325.309Z" fill="#034C95"/>
<path opacity="0.7" d="M157.211 325.309L162.082 332.345L158.274 332.898L157.211 325.309Z" fill="black"/>
<path d="M94.3699 438.221C94.3699 438.221 95.0427 439.301 95.0427 444.742C95.0427 450.183 92.7685 451.328 89.9561 452.241C87.1437 453.155 78.7872 459.007 76.4996 461.554C74.212 464.101 64.9808 466.7 55.8573 465.182C46.7337 463.664 44.8095 457.901 49.1963 454.21C53.5831 450.518 66.0842 443.79 66.0842 443.79L94.3699 438.221Z" fill="#034C95"/>
<path d="M203.612 326.853L183.319 322.363C183.319 322.363 126.95 349.376 118.553 353.492C110.156 357.608 107.572 369.262 100.306 385.431C94.9234 397.6 87.751 414.296 83.0547 424.329C83.0547 424.329 86.3919 432.793 96.9687 430.671C100.548 423.197 106.873 416.521 116.077 404.636C121.983 397.294 126.177 388.829 128.376 379.81C128.726 378.204 129.544 376.726 130.734 375.545C131.924 374.364 133.439 373.528 135.105 373.134C144.403 370.973 163.363 366.278 183.387 359.692C211.605 350.405 203.612 326.853 203.612 326.853Z" fill="#034C95"/>
<path opacity="0.5" d="M203.612 326.853L183.319 322.363C183.319 322.363 126.95 349.376 118.553 353.492C110.156 357.608 107.572 369.262 100.306 385.431C94.9234 397.6 87.751 414.296 83.0547 424.329C83.0547 424.329 86.3919 432.793 96.9687 430.671C100.548 423.197 106.873 416.521 116.077 404.636C121.983 397.294 126.177 388.829 128.376 379.81C128.726 378.204 129.544 376.726 130.734 375.545C131.924 374.364 133.439 373.528 135.105 373.134C144.403 370.973 163.363 366.278 183.387 359.692C211.605 350.405 203.612 326.853 203.612 326.853Z" fill="black"/>
<path d="M83.0517 424.316C81.5042 427.622 80.2259 430.208 79.3512 431.661C75.8121 437.54 65.491 443.907 61.8577 446.917C58.2244 449.927 57.4574 451.059 60.9292 453.606C69.7163 460.037 77.3327 453.014 82.2578 448.46C85.5464 445.575 89.1565 443.043 93.023 440.91C93.301 440.763 93.5424 440.561 93.7306 440.317C93.9187 440.072 94.0492 439.792 94.113 439.495C94.6584 436.446 95.6222 433.479 96.9793 430.671C86.389 432.793 83.0517 424.316 83.0517 424.316Z" fill="#FFA8A7"/>
<path d="M182.093 345.272L146.608 364.85L87.6016 332.242L123.086 312.253L182.093 345.272Z" fill="#FF5C85"/>
<path d="M150.418 339.69L137.109 332.345L145.452 327.74L158.774 335.085L150.418 339.69Z" fill="#263238"/>
<path d="M145.088 359.962L163.025 349.864L127.984 329.592L145.088 359.962Z" fill="#263238"/>
<path d="M146.137 299.441L131.94 305.873C127.7 306.899 123.518 308.135 119.412 309.578C119.412 309.578 109.535 313.436 109.078 316.009C108.62 318.582 116.492 324.64 123.395 321.669C125.215 320.755 127.158 320.084 129.168 319.675C133.365 319.293 137.332 317.665 140.512 315.019L151.991 312.009C151.991 312.009 157.911 301.024 146.137 299.441Z" fill="#FFA8A7"/>
<path d="M136.944 318.376C135.302 320.061 130.619 324.306 129.597 325.528C128.574 326.75 126.152 323.598 130.391 318.903C134.054 317.616 137.5 315.822 140.618 313.578C139.525 315.266 138.296 316.87 136.944 318.376Z" fill="#FFA8A7"/>
<path d="M175.191 252.259C171.929 251.762 168.589 252.387 165.764 254.024C162.94 255.662 160.816 258.204 159.77 261.199C158.265 265.523 157.294 269.999 156.877 274.538C155.652 288.508 155.316 295.492 155.316 295.492L140.621 301.924C140.621 301.924 148.56 302.284 148.022 312.986L166.31 308.548L175.191 252.259Z" fill="#034C95"/>
<path opacity="0.3" d="M175.191 252.259C171.929 251.762 168.589 252.387 165.764 254.024C162.94 255.662 160.816 258.204 159.77 261.199C158.265 265.523 157.294 269.999 156.877 274.538C155.652 288.508 155.316 295.492 155.316 295.492L140.621 301.924C140.621 301.924 148.493 302.284 148.022 312.986L166.31 308.548L175.191 252.259Z" fill="white"/>
<path d="M155.312 295.492C156.962 295.983 158.454 296.869 159.646 298.065C159.646 298.065 157.869 294.849 155.393 293.858L155.312 295.492Z" fill="#034C95"/>
<path opacity="0.1" d="M155.312 295.492C156.962 295.983 158.454 296.869 159.646 298.065C159.646 298.065 157.869 294.849 155.393 293.858L155.312 295.492Z" fill="white"/>
<path d="M168.757 220.539C168.757 220.539 159.687 217.967 162.957 208.178C166.227 198.389 189.359 194.196 206.772 208.178C206.772 208.178 218.99 206.377 218.99 222.687C218.99 238.998 212.154 246.445 222.677 250.69C222.677 250.69 216.258 256.504 211.064 250.69C211.064 250.69 209.974 263.425 190.287 258.987L168.757 220.539Z" fill="#263238"/>
<path d="M198.363 257.817L208.671 262.01V290.9C205.444 298.294 203.696 306.199 203.517 314.208V328.512C203.517 328.512 182.444 335.69 166.108 327.92C158.195 324.164 153.297 315.585 153.297 315.585C153.297 315.585 162.003 310.684 162.003 304.703C161.834 300.029 161.253 295.378 160.267 290.798C158.362 288.988 156.918 286.783 156.047 284.354C155.177 281.924 154.903 279.336 155.248 276.79C156.405 267.245 175.191 252.26 175.191 252.26L182.188 253.173L198.363 257.817Z" fill="#034C95"/>
<path d="M198.362 257.816L182.188 253.173V234.457H198.362V257.816Z" fill="#FFA8A7"/>
<path d="M182.188 253.237C185.482 252.06 188.493 250.257 191.037 247.935C193.582 245.613 195.607 242.823 196.99 239.731V234.586H182.188V253.237Z" fill="#F28F8F"/>
<path d="M178.418 209.104C178.418 209.104 163.616 209.927 165.446 234.122C166.294 245.301 169.025 251.089 178.041 250.664C188.241 250.188 202.734 243.487 201.792 224.347C200.85 205.206 178.418 209.104 178.418 209.104Z" fill="#FFA8A7"/>
<path d="M198.36 234.457C198.36 234.457 194.323 235.486 194.323 229.93C194.323 229.93 176.292 228.759 172.309 211.651C172.309 211.651 174.085 206.506 185.348 206.506C196.611 206.506 206.058 216.012 203.124 229.093L198.36 234.457Z" fill="#263238"/>
<path d="M176.295 229.261V237.583L171.195 236.091L176.295 229.261Z" fill="#F28F8F"/>
<path d="M183.951 230.148C183.951 230.485 183.846 230.813 183.651 231.093C183.455 231.372 183.177 231.59 182.851 231.718C182.526 231.846 182.168 231.879 181.823 231.812C181.478 231.746 181.162 231.583 180.914 231.344C180.666 231.105 180.498 230.802 180.431 230.471C180.364 230.141 180.401 229.799 180.538 229.489C180.674 229.179 180.904 228.915 181.198 228.73C181.492 228.545 181.836 228.448 182.188 228.45C182.421 228.45 182.651 228.494 182.866 228.58C183.081 228.665 183.276 228.79 183.439 228.948C183.603 229.106 183.733 229.293 183.821 229.499C183.908 229.705 183.953 229.926 183.951 230.148Z" fill="#263238"/>
<path d="M172.295 228.964C172.297 229.301 172.195 229.631 172.001 229.913C171.807 230.194 171.529 230.413 171.204 230.543C170.879 230.674 170.521 230.708 170.175 230.643C169.829 230.578 169.512 230.416 169.262 230.178C169.013 229.94 168.844 229.636 168.776 229.305C168.708 228.975 168.744 228.632 168.88 228.322C169.016 228.011 169.246 227.746 169.54 227.56C169.834 227.375 170.179 227.277 170.532 227.279C170.998 227.283 171.445 227.461 171.774 227.777C172.104 228.092 172.291 228.519 172.295 228.964Z" fill="#263238"/>
<path d="M168.367 225.44L171.839 223.472C171.839 223.472 170.493 222.186 169.148 222.945C168.771 223.238 168.495 223.633 168.355 224.078C168.216 224.523 168.22 224.997 168.367 225.44Z" fill="#263238"/>
<path d="M176.738 240.374C178.759 240.512 180.769 239.996 182.444 238.907C182.444 238.907 182.834 241.789 180.318 242.329C179.576 242.45 178.814 242.322 178.161 241.965C177.508 241.608 177.005 241.046 176.738 240.374Z" fill="#F28F8F"/>
<path d="M196.934 235.087C196.872 233.68 197.144 232.277 197.728 230.984C198.011 230.178 198.535 229.468 199.236 228.944C199.937 228.421 200.784 228.106 201.671 228.038C206.206 227.923 206.825 232.103 206.758 233.595C206.596 237.454 203.286 241.725 197.123 241.892L196.934 235.087Z" fill="#FFA8A7"/>
<path d="M182.185 253.237L177.408 259.167C176.871 259.835 176.494 260.606 176.302 261.427C176.11 262.249 176.108 263.1 176.296 263.923C176.485 264.745 176.859 265.518 177.392 266.187C177.926 266.857 178.606 267.407 179.386 267.798C181.504 268.857 183.941 269.18 186.28 268.711C188.62 268.241 190.716 267.009 192.21 265.226L198.359 257.881L182.185 253.237Z" fill="#FFA8A7"/>
<path d="M182.093 324.499L168.637 331.535C166.567 331.388 164.489 331.388 162.42 331.535C160.024 331.818 153.673 332.924 152.031 332.989C150.389 333.053 151.964 335.986 156.27 335.729C156.27 335.729 146.568 339.973 146.218 342.52C145.868 345.067 153.996 350.856 160.778 347.665C162.549 346.679 164.456 345.935 166.443 345.453C170.626 344.886 174.521 343.088 177.585 340.308L188.929 336.835C188.929 336.835 193.908 325.605 182.093 324.499Z" fill="#FFA8A7"/>
<path d="M208.668 262.01C208.668 262.01 200.419 267.387 201.832 284.109C202.654 294.225 202.654 304.387 201.832 314.504L182.078 324.499C184.197 325.845 185.925 327.683 187.101 329.84C188.278 331.996 188.864 334.403 188.806 336.834C188.806 336.834 217.173 331.252 218.868 324.936C220.564 318.62 221.183 288.405 221.183 283.157C221.183 277.909 218.976 266.203 208.668 262.01Z" fill="#034C95"/>
<path opacity="0.3" d="M208.668 262.01C208.668 262.01 200.419 267.387 201.832 284.109C202.654 294.225 202.654 304.387 201.832 314.504L182.078 324.499C184.197 325.845 185.925 327.683 187.101 329.84C188.278 331.996 188.864 334.403 188.806 336.834C188.806 336.834 217.173 331.252 218.868 324.936C220.564 318.62 221.183 288.405 221.183 283.157C221.183 277.909 218.976 266.203 208.668 262.01Z" fill="white"/>
<path d="M201.848 314.504C204.021 314.461 206.181 314.837 208.199 315.611C206.384 314.262 204.24 313.377 201.969 313.038L201.848 314.504Z" fill="#034C95"/>
<path opacity="0.1" d="M201.848 314.504C204.021 314.461 206.181 314.837 208.199 315.611C206.384 314.262 204.24 313.377 201.969 313.038L201.848 314.504Z" fill="white"/>
<path d="M79.38 294.862L85.5431 333.451C85.5367 333.472 85.5367 333.495 85.5431 333.516L146.838 367.5C146.853 367.507 146.869 367.51 146.886 367.509C146.903 367.507 146.919 367.502 146.932 367.493C146.946 367.483 146.957 367.471 146.964 367.456C146.971 367.442 146.974 367.426 146.972 367.41L140.984 329.965C140.856 329.174 140.549 328.418 140.084 327.752C139.619 327.085 139.008 326.524 138.293 326.107L82.0982 293.113C81.8046 292.935 81.4632 292.843 81.1158 292.848C80.7684 292.853 80.43 292.954 80.1417 293.139C79.8535 293.325 79.628 293.586 79.4928 293.892C79.3575 294.198 79.3183 294.535 79.38 294.862Z" fill="#FF5C85"/>
<path d="M146.876 367.513L179.603 349.389C180.358 348.97 180.985 348.37 181.422 347.648C181.859 346.926 182.09 346.107 182.092 345.272L146.594 364.85L146.876 367.513Z" fill="#263238"/>
<path d="M114.836 332.062C114.836 334.827 112.817 335.921 110.314 334.557C108.998 333.737 107.903 332.631 107.118 331.331C106.332 330.03 105.878 328.571 105.793 327.071C105.793 324.318 107.825 323.212 110.314 324.575C111.631 325.395 112.727 326.5 113.513 327.801C114.298 329.102 114.752 330.562 114.836 332.062Z" fill="#37474F"/>
<path opacity="0.2" d="M175.188 292.869C175.188 292.869 187.554 296.085 194.121 287.209C194.121 287.209 189.869 298.67 175.188 292.869Z" fill="black"/>
</svg>
